<mxfile host="app.diagrams.net" modified="2021-09-02T22:08:22.031Z" agent="5.0 (Macintosh; Intel Mac OS X 10_15_7) AppleWebKit/605.1.15 (KHTML, like Gecko) Version/14.1.2 Safari/605.1.15" etag="2-_-ZdSEqhc7rxV2ePFV" version="14.9.8" type="github">
  <diagram id="z0HHgGlnCuGLutk6PVgF" name="Page-1">
    <mxGraphModel dx="3215" dy="1613" grid="1" gridSize="10" guides="1" tooltips="1" connect="1" arrows="1" fold="1" page="1" pageScale="1" pageWidth="850" pageHeight="1100" math="1" shadow="0">
      <root>
        <mxCell id="0" />
        <mxCell id="1" parent="0" />
        <mxCell id="CTJLBTLDGU4M1NpmP4fn-3" style="edgeStyle=orthogonalEdgeStyle;rounded=0;orthogonalLoop=1;jettySize=auto;html=1;exitX=0.5;exitY=0;exitDx=0;exitDy=0;entryX=0.5;entryY=1;entryDx=0;entryDy=0;strokeWidth=1.5;endArrow=openThin;endFill=0;" edge="1" parent="1" target="CTJLBTLDGU4M1NpmP4fn-2">
          <mxGeometry relative="1" as="geometry">
            <mxPoint x="360" y="526" as="sourcePoint" />
          </mxGeometry>
        </mxCell>
        <mxCell id="CTJLBTLDGU4M1NpmP4fn-6" style="edgeStyle=orthogonalEdgeStyle;rounded=0;orthogonalLoop=1;jettySize=auto;html=1;exitX=0.5;exitY=0;exitDx=0;exitDy=0;entryX=0.5;entryY=1;entryDx=0;entryDy=0;endArrow=openThin;endFill=0;strokeWidth=1.5;" edge="1" parent="1" source="CTJLBTLDGU4M1NpmP4fn-2" target="CTJLBTLDGU4M1NpmP4fn-5">
          <mxGeometry relative="1" as="geometry" />
        </mxCell>
        <mxCell id="CTJLBTLDGU4M1NpmP4fn-40" style="edgeStyle=orthogonalEdgeStyle;rounded=0;orthogonalLoop=1;jettySize=auto;html=1;exitX=1;exitY=0.5;exitDx=0;exitDy=0;entryX=0;entryY=0.5;entryDx=0;entryDy=0;endArrow=none;endFill=0;strokeWidth=1.5;" edge="1" parent="1" source="CTJLBTLDGU4M1NpmP4fn-2" target="CTJLBTLDGU4M1NpmP4fn-39">
          <mxGeometry relative="1" as="geometry" />
        </mxCell>
        <mxCell id="CTJLBTLDGU4M1NpmP4fn-2" value="&lt;span style=&quot;font-size: 14px&quot;&gt;Multi-head Self-attention&lt;/span&gt;" style="rounded=1;whiteSpace=wrap;html=1;fillColor=#e1d5e7;strokeColor=#9673a6;" vertex="1" parent="1">
          <mxGeometry x="265" y="460" width="190" height="30" as="geometry" />
        </mxCell>
        <mxCell id="CTJLBTLDGU4M1NpmP4fn-4" value="" style="edgeStyle=elbowEdgeStyle;elbow=horizontal;endArrow=openThin;html=1;strokeWidth=1.5;entryX=0;entryY=0.5;entryDx=0;entryDy=0;endFill=0;" edge="1" parent="1" target="CTJLBTLDGU4M1NpmP4fn-5">
          <mxGeometry width="50" height="50" relative="1" as="geometry">
            <mxPoint x="360" y="510" as="sourcePoint" />
            <mxPoint x="460" y="420" as="targetPoint" />
            <Array as="points">
              <mxPoint x="230" y="470" />
              <mxPoint x="530" y="450" />
            </Array>
          </mxGeometry>
        </mxCell>
        <mxCell id="CTJLBTLDGU4M1NpmP4fn-12" style="edgeStyle=orthogonalEdgeStyle;rounded=0;orthogonalLoop=1;jettySize=auto;html=1;exitX=0.5;exitY=0;exitDx=0;exitDy=0;entryX=0.5;entryY=1;entryDx=0;entryDy=0;endArrow=openThin;endFill=0;strokeWidth=1.5;" edge="1" parent="1" source="CTJLBTLDGU4M1NpmP4fn-5" target="CTJLBTLDGU4M1NpmP4fn-7">
          <mxGeometry relative="1" as="geometry" />
        </mxCell>
        <mxCell id="CTJLBTLDGU4M1NpmP4fn-5" value="" style="shape=orEllipse;perimeter=ellipsePerimeter;whiteSpace=wrap;html=1;backgroundOutline=1;fillColor=#f5f5f5;strokeColor=#666666;fontColor=#333333;" vertex="1" parent="1">
          <mxGeometry x="345" y="410" width="30" height="30" as="geometry" />
        </mxCell>
        <mxCell id="CTJLBTLDGU4M1NpmP4fn-11" style="edgeStyle=orthogonalEdgeStyle;rounded=0;orthogonalLoop=1;jettySize=auto;html=1;exitX=0.5;exitY=0;exitDx=0;exitDy=0;entryX=0.5;entryY=1;entryDx=0;entryDy=0;endArrow=openThin;endFill=0;strokeWidth=1.5;" edge="1" parent="1" source="CTJLBTLDGU4M1NpmP4fn-7" target="CTJLBTLDGU4M1NpmP4fn-10">
          <mxGeometry relative="1" as="geometry" />
        </mxCell>
        <mxCell id="CTJLBTLDGU4M1NpmP4fn-7" value="&lt;span style=&quot;font-size: 14px&quot;&gt;LayerNorm&lt;/span&gt;" style="rounded=1;whiteSpace=wrap;html=1;fillColor=#d0cee2;strokeColor=#56517e;" vertex="1" parent="1">
          <mxGeometry x="297.5" y="360" width="125" height="30" as="geometry" />
        </mxCell>
        <mxCell id="CTJLBTLDGU4M1NpmP4fn-16" style="edgeStyle=orthogonalEdgeStyle;rounded=0;orthogonalLoop=1;jettySize=auto;html=1;exitX=0.5;exitY=0;exitDx=0;exitDy=0;entryX=0.5;entryY=1;entryDx=0;entryDy=0;endArrow=openThin;endFill=0;strokeWidth=1.5;" edge="1" parent="1" source="CTJLBTLDGU4M1NpmP4fn-9" target="CTJLBTLDGU4M1NpmP4fn-15">
          <mxGeometry relative="1" as="geometry" />
        </mxCell>
        <mxCell id="CTJLBTLDGU4M1NpmP4fn-9" value="" style="shape=orEllipse;perimeter=ellipsePerimeter;whiteSpace=wrap;html=1;backgroundOutline=1;fillColor=#f5f5f5;strokeColor=#666666;fontColor=#333333;" vertex="1" parent="1">
          <mxGeometry x="345" y="250" width="30" height="30" as="geometry" />
        </mxCell>
        <mxCell id="CTJLBTLDGU4M1NpmP4fn-13" style="edgeStyle=orthogonalEdgeStyle;rounded=0;orthogonalLoop=1;jettySize=auto;html=1;exitX=0.5;exitY=0;exitDx=0;exitDy=0;entryX=0.5;entryY=1;entryDx=0;entryDy=0;endArrow=openThin;endFill=0;strokeWidth=1.5;" edge="1" parent="1" source="CTJLBTLDGU4M1NpmP4fn-10" target="CTJLBTLDGU4M1NpmP4fn-9">
          <mxGeometry relative="1" as="geometry" />
        </mxCell>
        <mxCell id="CTJLBTLDGU4M1NpmP4fn-42" style="edgeStyle=orthogonalEdgeStyle;rounded=0;orthogonalLoop=1;jettySize=auto;html=1;exitX=1;exitY=0.5;exitDx=0;exitDy=0;entryX=0;entryY=0.5;entryDx=0;entryDy=0;endArrow=none;endFill=0;strokeWidth=1.5;" edge="1" parent="1" source="CTJLBTLDGU4M1NpmP4fn-10" target="CTJLBTLDGU4M1NpmP4fn-41">
          <mxGeometry relative="1" as="geometry" />
        </mxCell>
        <mxCell id="CTJLBTLDGU4M1NpmP4fn-10" value="&lt;span style=&quot;font-size: 14px&quot;&gt;Feed Forward Network&lt;/span&gt;" style="rounded=1;whiteSpace=wrap;html=1;fillColor=#fad9d5;strokeColor=#ae4132;" vertex="1" parent="1">
          <mxGeometry x="265" y="300" width="190" height="30" as="geometry" />
        </mxCell>
        <mxCell id="CTJLBTLDGU4M1NpmP4fn-14" value="" style="edgeStyle=elbowEdgeStyle;elbow=horizontal;endArrow=openThin;html=1;strokeWidth=1.5;endFill=0;entryX=0;entryY=0.5;entryDx=0;entryDy=0;" edge="1" parent="1" target="CTJLBTLDGU4M1NpmP4fn-9">
          <mxGeometry width="50" height="50" relative="1" as="geometry">
            <mxPoint x="360" y="347" as="sourcePoint" />
            <mxPoint x="340" y="280" as="targetPoint" />
            <Array as="points">
              <mxPoint x="230" y="310" />
            </Array>
          </mxGeometry>
        </mxCell>
        <mxCell id="CTJLBTLDGU4M1NpmP4fn-18" style="edgeStyle=orthogonalEdgeStyle;rounded=0;orthogonalLoop=1;jettySize=auto;html=1;exitX=0.5;exitY=0;exitDx=0;exitDy=0;endArrow=openThin;endFill=0;strokeWidth=1.5;" edge="1" parent="1" source="CTJLBTLDGU4M1NpmP4fn-15">
          <mxGeometry relative="1" as="geometry">
            <mxPoint x="360" y="170" as="targetPoint" />
          </mxGeometry>
        </mxCell>
        <mxCell id="CTJLBTLDGU4M1NpmP4fn-15" value="&lt;span style=&quot;font-size: 14px&quot;&gt;LayerNorm&lt;/span&gt;" style="rounded=1;whiteSpace=wrap;html=1;fillColor=#d0cee2;strokeColor=#56517e;" vertex="1" parent="1">
          <mxGeometry x="297.5" y="200" width="125" height="30" as="geometry" />
        </mxCell>
        <mxCell id="CTJLBTLDGU4M1NpmP4fn-19" value="&lt;font style=&quot;font-size: 14px&quot;&gt;$$\boldsymbol x_{t}^0$$&lt;/font&gt;" style="text;html=1;align=center;verticalAlign=middle;resizable=0;points=[];autosize=1;strokeColor=none;" vertex="1" parent="1">
          <mxGeometry x="295" y="500" width="170" height="20" as="geometry" />
        </mxCell>
        <mxCell id="CTJLBTLDGU4M1NpmP4fn-20" value="&lt;span style=&quot;font-size: 14px&quot;&gt;$$\boldsymbol o_{t}^1$$&lt;/span&gt;" style="text;html=1;align=center;verticalAlign=middle;resizable=0;points=[];autosize=1;strokeColor=none;" vertex="1" parent="1">
          <mxGeometry x="295" y="394" width="170" height="20" as="geometry" />
        </mxCell>
        <mxCell id="CTJLBTLDGU4M1NpmP4fn-21" value="&lt;span style=&quot;font-size: 14px&quot;&gt;$$\boldsymbol z_{t}^1$$&lt;/span&gt;" style="text;html=1;align=center;verticalAlign=middle;resizable=0;points=[];autosize=1;strokeColor=none;" vertex="1" parent="1">
          <mxGeometry x="295" y="336" width="170" height="20" as="geometry" />
        </mxCell>
        <mxCell id="CTJLBTLDGU4M1NpmP4fn-28" value="&lt;span style=&quot;font-size: 14px&quot;&gt;$$\boldsymbol s_{t}^1$$&lt;/span&gt;" style="text;html=1;align=center;verticalAlign=middle;resizable=0;points=[];autosize=1;strokeColor=none;" vertex="1" parent="1">
          <mxGeometry x="295" y="234" width="170" height="20" as="geometry" />
        </mxCell>
        <mxCell id="CTJLBTLDGU4M1NpmP4fn-29" value="&lt;span style=&quot;font-size: 14px&quot;&gt;$$\boldsymbol x_{t}^1$$&lt;/span&gt;" style="text;html=1;align=center;verticalAlign=middle;resizable=0;points=[];autosize=1;strokeColor=none;" vertex="1" parent="1">
          <mxGeometry x="295" y="176" width="170" height="20" as="geometry" />
        </mxCell>
        <mxCell id="CTJLBTLDGU4M1NpmP4fn-30" value="&lt;font style=&quot;font-size: 15px&quot;&gt;$$\boldsymbol\Theta=\left \{\boldsymbol \Theta_w,\boldsymbol \Theta_q,\boldsymbol \Theta_v,\boldsymbol \Theta_k,\boldsymbol\Theta_o,\boldsymbol \Theta_1,\boldsymbol \Theta_2\right \}$$&lt;/font&gt;" style="text;html=1;align=center;verticalAlign=middle;resizable=0;points=[];autosize=1;strokeColor=none;" vertex="1" parent="1">
          <mxGeometry x="180" y="180" width="1290" height="20" as="geometry" />
        </mxCell>
        <mxCell id="CTJLBTLDGU4M1NpmP4fn-31" value="&lt;font style=&quot;font-size: 15px&quot;&gt;$$&amp;nbsp; &amp;nbsp; q({\boldsymbol \Theta})=\mathcal{N}({\boldsymbol \Theta}; {\boldsymbol\mu}, {\boldsymbol\sigma})$$&lt;/font&gt;" style="text;html=1;align=center;verticalAlign=middle;resizable=0;points=[];autosize=1;strokeColor=none;" vertex="1" parent="1">
          <mxGeometry x="375" y="300" width="720" height="20" as="geometry" />
        </mxCell>
        <mxCell id="CTJLBTLDGU4M1NpmP4fn-33" value="&lt;font style=&quot;font-size: 15px&quot;&gt;$$ &amp;nbsp; &amp;nbsp; p_{\mathrm r}({\boldsymbol \Theta})=\mathcal{N}({\boldsymbol \Theta}; {\boldsymbol \mu}^{\mathrm r}, {\boldsymbol\sigma}^{\mathrm r})$$&lt;/font&gt;" style="text;html=1;align=center;verticalAlign=middle;resizable=0;points=[];autosize=1;strokeColor=none;" vertex="1" parent="1">
          <mxGeometry x="250" y="435" width="970" height="20" as="geometry" />
        </mxCell>
        <mxCell id="CTJLBTLDGU4M1NpmP4fn-34" value="" style="shape=image;imageAspect=0;aspect=fixed;verticalLabelPosition=bottom;verticalAlign=top;image=data:image/png,/9j/4AAQSkZJRgABAQAAAQABAAD//gAYTUFUTEFCIEhhbmRsZSBHcmFwaGljc//+AB1NQVRMQUIsIFRoZSBNYXRoV29ya3MsIEluYy7/2wBDAAgGBgcGBQgHBwcJCQgKDBQNDAsLDBkSEw8UHRofHh0aHBwgJC4nICIsIxwcKDcpLDAxNDQ0Hyc5PTgyPC4zNDL/2wBDAQkJCQwLDBgNDRgyIRwhMjIyMjIyMjIyMjIyMjIyMjIyMjIyMjIyMjIyMjIyMjIyMjIyMjIyMjIyMjIyMjIyMjL/wAARCANrBI8DASIAAhEBAxEB/8QAHwAAAQUBAQEBAQEAAAAAAAAAAAECAwQFBgcICQoL/8QAtRAAAgEDAwIEAwUFBAQAAAF9AQIDAAQRBRIhMUEGE1FhByJxFDKBkaEII0KxwRVS0fAkM2JyggkKFhcYGRolJicoKSo0NTY3ODk6Q0RFRkdISUpTVFVWV1hZWmNkZWZnaGlqc3R1dnd4eXqDhIWGh4iJipKTlJWWl5iZmqKjpKWmp6ipqrKztLW2t7i5usLDxMXGx8jJytLT1NXW19jZ2uHi4+Tl5ufo6erx8vP09fb3+Pn6/8QAHwEAAwEBAQEBAQEBAQAAAAAAAAECAwQFBgcICQoL/8QAtREAAgECBAQDBAcFBAQAAQJ3AAECAxEEBSExBhJBUQdhcRMiMoEIFEKRobHBCSMzUvAVYnLRChYkNOEl8RcYGRomJygpKjU2Nzg5OkNERUZHSElKU1RVVldYWVpjZGVmZ2hpanN0dXZ3eHl6goOEhYaHiImKkpOUlZaXmJmaoqOkpaanqKmqsrO0tba3uLm6wsPExcbHyMnK0tPU1dbX2Nna4uPk5ebn6Onq8vP09fb3+Pn6/9oADAMBAAIRAxEAPwD3+iiigAooooAKKKKACiiigAooooAKKKKACiiigAooooAKKKKACiiigAooooAKKKKACiiigAooooAKKKKACiiigAooooAKKKKACiiigAooooAKKKKACiiigAooooAKKKKACiiigAooooAKKKKACiiigAooooAKKKKACiiigAooooAKKKKACiiigAooooAKKKKACiiigAooooAKKKKACiiigAooooAKKKKACiiigAooooAKKKKACiiigAooooAKKKKACiiigAooooAKKKKACiiigAooooAKKKKACiiigAooooAKKKKACiiigAooooAKKKKACiiigAooooAKKKKACiiigAooooAKKKKACiiigAooooAKKKKACiiigAooooAKKKKACiiigAooooAKKKKACiiigAooooAKKKKACiiigAooooAKKKKACiiigAooooAKKKKACiiigAooooAKKKKACiiigAooooAKKKKACiiigAooooAKKKKACiiigAooooAKKKKACiiigAooooAKKKKACiiigAooooAKKKKACiiigAooooAKKKKACiiigAooooAKKKKACiiigAooooAKKKKACiiigAooooAKKKKACiiigAooooAKKKKACiiigAooooAKKKKACiiigAooooAKKKKACiiigAooooAKKKKACiiigAooooAKKKKACiiigAooooAKKKKACiiigAooooAKKKKACiiigAooooAKKKKACiiigAooooAKKKKACiiigAooooAKKKKACiiigAooooAKKKKACiiigAooooAKKKKACiiigAooooAKKKKACiiigAooooAKKKKACiiigAooooAKKKKACiiigAooooAKKKKACiiigAooooAKKKKACiiigAooooAKKKKACiiigAooooAKKKKACiiigAooooAKKKKACiiigAooooAKKKKACiiigAooooAKKKKACiiigAooooAKKKKACiiigAooooAKKKKACiiigAooooAKKKKACiiigAooooAKKKKACiiigAooooAKKKKACiiigAooooAKKKKACiiigAooooAKKKKACiiigAooooAKKKKACiiigAooooAKKKKACiiigAooooAKKKKACiiigAooooAKKKKACiiigAooooAKKKKACiiigAooooAKKKKACiiigAooooAKKKKACiiigAooooAKKKKACiiigAooooAKKKKACiiigAooooAKKKKACiiigAooooAKKKKACiiigAooooAKKKKACiiigAooooAKKKKACiiigAooooAKKKKACiiigAooooAKKKKACiiigAooooAKKKKACiiigAooooAKKKKACiiigAooooAKKKKACiiigAoooyM4zzQAUUUUAFFFFABRRRQAUUUUAFFFFABRRRQAUUUUAFFFFABRRRQAUUUUAFFFFABRRRQAUUUUAFFFFABRRRQAUUUUAFFFFABRRRQAUUUUAFFFFABRRRQAUUUUAFFFFABRRRQAUUUUAFFFFABRRRQAUUUUAFFFFABRRRQAUUUUAFFFFABRRRQAUUUUAFFFFABRRRQAUUUUAFFFFABRRRQAUUUUAFFFFABRRRQAUUUUAFFFFABXIeGdAtdQ8KaPe3V5rElxcWMMsr/2xdjc7ICTgSYHJ7V19Yng3/kRvD//AGDbb/0UtAB/wimnf8/Osf8Ag5u//jtH/CKad/z86x/4Obv/AOO1t0UAYn/CKad/z86x/wCDm7/+O0f8Ipp3/PzrH/g5u/8A47W3RQBif8Ipp3/PzrH/AIObv/47R/wimnf8/Osf+Dm7/wDjtbdFAGJ/wimnf8/Osf8Ag5u//jtH/CKad/z86x/4Obv/AOO1t0UAYn/CKad/z86x/wCDm7/+O0f8Ipp3/PzrH/g5u/8A47W3RQBif8Ipp3/PzrH/AIObv/47R/wimnf8/Osf+Dm7/wDjtbdFAGJ/wimnf8/Osf8Ag5u//jtH/CKad/z86x/4Obv/AOO1t0UAYn/CKad/z86x/wCDm7/+O0f8Ipp3/PzrH/g5u/8A47W3RQBif8Ipp3/PzrH/AIObv/47R/wimnf8/Osf+Dm7/wDjtbdFAGJ/wimnf8/Osf8Ag5u//jtH/CKad/z86x/4Obv/AOO1t0UAYn/CKad/z86x/wCDm7/+O0f8Ipp3/PzrH/g5u/8A47W3RQBif8Ipp3/PzrH/AIObv/47R/wimnf8/Osf+Dm7/wDjtbdFAGJ/wimnf8/Osf8Ag5u//jtH/CKad/z86x/4Obv/AOO1t0UAYn/CKad/z86x/wCDm7/+O0f8Ipp3/PzrH/g5u/8A47W3RQBif8Ipp3/PzrH/AIObv/47R/wimnf8/Osf+Dm7/wDjtbdFAGJ/wimnf8/Osf8Ag5u//jtH/CKad/z86x/4Obv/AOO1t0UAYn/CKad/z86x/wCDm7/+O0f8Ipp3/PzrH/g5u/8A47W3RQBif8Ipp3/PzrH/AIObv/47R/wimnf8/Osf+Dm7/wDjtbdFAGJ/wimnf8/Osf8Ag5u//jtH/CKad/z86x/4Obv/AOO1t0UAYn/CKad/z86x/wCDm7/+O0f8Ipp3/PzrH/g5u/8A47W3RQBif8Ipp3/PzrH/AIObv/47R/wimnf8/Osf+Dm7/wDjtbdFAGJ/wimnf8/Osf8Ag5u//jtH/CKad/z86x/4Obv/AOO1t0UAYn/CKad/z86x/wCDm7/+O0f8Ipp3/PzrH/g5u/8A47W3RQBif8Ipp3/PzrH/AIObv/47R/wimnf8/Osf+Dm7/wDjtbdFAGJ/wimnf8/Osf8Ag5u//jtH/CKad/z86x/4Obv/AOO1t1z2r+LbLT8xW5FzcDjCn5V+p/oKxr4inQjz1HZGGIxVHDQ560rIm/4RXTh/y86x/wCDm7/+O1i348M2BZDf6zNIDgpDrF236+bj9arLbeIvE53TuYLRucHKJj2Xq31P51vaf4P0yzAaZDdSj+KT7v8A3z0/PNcCxWKxH+7w5Y95fojy1jcZi/8AdafLH+aX6I455Xv5DHpdvrH1/te9kP6SgCrlj4d8TnBF5fRKf+fjUJX/AELMa9DjijhjEcSKiDoqjAFOp/2fUqa16sn6aIr+yqtXXE15S8l7q+5HEf8ACFajN/x86mpJ6/ef+eKX/hAG/wCgkP8Avz/9lXbUU/7HwfWN/m/8w/sDAfag383/AJnEf8IVqMPNtqahu33k/lmqN94c8TkDN7fSAf8APvqMifyYGvRaKX9k0Y/w3KPo2H9h4eP8KUoekn/wTy2OV7Fgmp2+sY6Z/te9jY/nLg1u2A8NX5CC/wBZhkP8M2s3a/r5uK7N40lQpIiup6qwyDWDqPg/TbwFoENrL6x/dP1X/DFL2OOoa05qa7PR/f8A5i9hmWH1pVFUXaWj+/8AzJB4V04jIudYIP8A1Gbv/wCO0v8Awimnf8/Osf8Ag5u//jtc8bTxD4YO+3c3FoOSFyyge69R9R+dbekeLbLUSIp8W057Mflb6H+hrSjmMJS9nWThLs/0ZrQzanKfsq6dOfZ7P0ezJv8AhFNO/wCfnWP/AAc3f/x2j/hFNO/5+dY/8HN3/wDHa26K9E9UxP8AhFNO/wCfnWP/AAc3f/x2j/hFNO/5+dY/8HN3/wDHa26KAMT/AIRTTv8An51j/wAHN3/8do/4RTTv+fnWP/Bzd/8Ax2tuigDE/wCEU07/AJ+dY/8ABzd//HaP+EU07/n51j/wc3f/AMdrbooAxP8AhFNO/wCfnWP/AAc3f/x2j/hFNO/5+dY/8HN3/wDHa26KAMT/AIRTTv8An51j/wAHN3/8do/4RTTv+fnWP/Bzd/8Ax2tuigDE/wCEU07/AJ+dY/8ABzd//HaP+EU07/n51j/wc3f/AMdrbooAxP8AhFNO/wCfnWP/AAc3f/x2j/hFNO/5+dY/8HN3/wDHa26KAMT/AIRTTv8An51j/wAHN3/8do/4RTTv+fnWP/Bzd/8Ax2tuigDE/wCEU07/AJ+dY/8ABzd//HaP+EU07/n51j/wc3f/AMdrbooAxP8AhFNO/wCfnWP/AAc3f/x2j/hFNO/5+dY/8HN3/wDHa26KAMT/AIRTTv8An51j/wAHN3/8do/4RTTv+fnWP/Bzd/8Ax2tuigDE/wCEU07/AJ+dY/8ABzd//HaP+EU07/n51j/wc3f/AMdrbooAxP8AhFNO/wCfnWP/AAc3f/x2j/hFNO/5+dY/8HN3/wDHa26KAMT/AIRTTv8An51j/wAHN3/8do/4RTTv+fnWP/Bzd/8Ax2tuigDE/wCEU07/AJ+dY/8ABzd//HaP+EU07/n51j/wc3f/AMdrbooAxP8AhFNO/wCfnWP/AAc3f/x2j/hFNO/5+dY/8HN3/wDHa26KAMT/AIRTTv8An51j/wAHN3/8do/4RTTv+fnWP/Bzd/8Ax2tuigDE/wCEU07/AJ+dY/8ABzd//HaP+EU07/n51j/wc3f/AMdrbooAxP8AhFNO/wCfnWP/AAc3f/x2j/hFNO/5+dY/8HN3/wDHa26KAMT/AIRTTv8An51j/wAHN3/8do/4RTTv+fnWP/Bzd/8Ax2tuigDE/wCEU07/AJ+dY/8ABzd//HaP+EU07/n51j/wc3f/AMdrbooAxP8AhFNO/wCfnWP/AAc3f/x2j/hFNO/5+dY/8HN3/wDHa26KAMT/AIRTTv8An51j/wAHN3/8do/4RTTv+fnWP/Bzd/8Ax2tuigDE/wCEU07/AJ+dY/8ABzd//HaP+EU07/n51j/wc3f/AMdrbooAx/Cc0tz4N0OeeV5ZpNPgd5HYszsY1JJJ6knvWxWJ4N/5Ebw//wBg22/9FLW3QAUUUUAFFFFABRRRQAUUUUAFFFFABRRRQAUUUUAFFFFABRRRQAUUUUAFFFFABRRRQAUUUUAFFFFABRRRQAVieDf+RG8P/wDYNtv/AEUtbdYng3/kRvD/AP2Dbb/0UtAG3RRRQAUUUUAFFFFABRRRQAUUUUAFFFFABRRRQAUUUUAFFFFABRRRQAUUUUAFFFFABRRRQAUUUUAFFFFABRRRQAUUUUAFFFFABRRRQAUUUUAFFFFABRRRQAUUUUAFVb/UbXTLcz3UoRew7sfQDvWfrviO20eMxjEt0w+WMH7vu3oK5/TtCvvENwNR1aV1gblV6Fh6Afwr/n3rzsRjWp+xw65p/gvU8rF5i1U+r4WPPU/CPr/kNn1PV/FM72unxmG0zhznHB/vN/QfrW9o/hWy00LJKouLkc72HCn2H9a2be2htIFgt41jjUYCqKlooZelL2td88/PZeiFhsrjGftsS+ep3ey9F/XyCiiivRPWCiiigAooooAKKKKACiiigArA1fwpY6kHkiAt7k871HDH3Fb9FZVqFOvHkqK6MMRhqWIhyVY3RwcGp6x4WmW2v42nteinOR/wFv6GuysdQtdStxPayh0PUd1PoR2qS5tYLyBoLiNZI26qwri9Q0K+8O3J1HSZHaFRll6lR3BHcf5968xqvgNVedP8V/mjyHHE5ZrG9Sl2+1H/ADX9aHdUVi6F4it9Zj2ECK6Ay0ZPX3FbVenRrQrQU6bumexQxFPEU1UpO6YUUUVqbBRRRQAUUUUAFFFFABRRRQAUUUUAFFFFABRRRQAUUUUAFFFFABRRRQAUUUUAFFFFABRRRQAUUUUAFFFFABRRRQAUUUUAFFFFABRRRQAUUUUAFFFFABRRRQBieDf+RG8P/wDYNtv/AEUtbdYng3/kRvD/AP2Dbb/0UtbdABRRRQAUUUUAFFFFABRRRQAUUUUAFFFFABRRRQAUUUUAFFFFABRRRQAUUUUAFFFFABRRRQAUUUUAFFFFABWJ4N/5Ebw//wBg22/9FLW3WJ4N/wCRG8P/APYNtv8A0UtAG3RRRQAUUUUAFFFFABRRRQAUUUUAFFFFABRRRQAUUUUAFFFFABRRRQAUUUUAFFFFABRRRQAUUUUAFFFFABRRRQAUUUUAFFFFABRRRQAUUUUAFFFFABRRRQAVzPiLxOthus7EiS8PBYDIj/xb2qPxL4lNsx07TiWumO13TnZ7D/a/l9ekvhvwytgBeXqh7xuQDz5f+J968qvialeo8Phn/il29PP+vTxcTi6uJqvCYN7fFLpHyXn/AF6V9B8LMZP7Q1cGWdzvET84Pq3qfautoortw2Fp4eHJBer6v1PQwmDpYSnyU16vq/NhRRRXQdQUUUUAFFFFABRRRQAUUUUAFFFFABRRRQAUdaKKAOS1/wALt5h1HScx3CtvaNTjJ9V9DVjw74mF+wsr7Ed4OASMB8fyPtXS1zXiLwyL/N7Y4jvF5IHAk/wPv/8Arryq2FqYebr4Vesej9PM8TEYOrhajxOCX+KPR+a8/wCvJ9LRXL+G/EhumGnaiSl2h2qz8b8dj/tfzrqK7sPiKeIpqcH/AMA9LCYuliqSqU3p+KfZhRRRW50hRRRQAUUUUAFFFFABRRRQAUUUUAFFFFABRRRQAUUUUAFFFFABRRRQAUUUUAFFFFABRRRQAUUUUAFFFFABRRRQAUUUUAFFFFABRRRQAUUUUAFFFFAGJ4N/5Ebw/wD9g22/9FLW3WJ4N/5Ebw//ANg22/8ARS1t0AFFFFABRRRQAUUUUAFFFFABRRRQAUUUUAFFFFABRRRQAUUUUAFFFFABRRRQAUUUUAFFFFABRRRQAUUUUAFYng3/AJEbw/8A9g22/wDRS1t1ieDf+RG8P/8AYNtv/RS0AbdFFFABRRRQAUUUUAFFFFABRRRQAUUUUAFFFFABRRRQAUUUUAFFFFABRRRQAUUUUAFFFFABRRRQAUUUUAFFFFABRRRQAUUUUAFFFFABRRRQAUUUUAFcx4n8RGzH2CxYtePwxXkoD2H+0aseJfEC6Rb+TAQ15IPlH9wf3j/Sqfhfw6YNup34LXL/ADIj9Uz3Of4j+n8vLxVedWp9Vw71+0+y/wA/69PGxuJqV6v1LCvX7Uv5V/m/68pvDXhoacovLwBrxhkA8+X/APX966Wiiu3D4enh6ap01oejhcLSwtJUqSsl+Pmwooorc6AooooAKKKKACiiigAooooAKKKKACiiigAooooAKKKKACiiigDm/E3hwaghvbNdt6nJA48wD+vofw9MM8M+IzegWF6St2nCsf48evvXT1yvifw885OpaepW6T5nVOr47j3/AJ15WJoToVPrWHX+Jd/P1/r18XGYaphqrxmFWv2o/wAy7+v9evVUVgeGvEC6tbeTOwF5GPm7bx6j+tb9d9CvCvTVSD0Z6eGxNPE0lVpu6YUUUVsbhRRRQAUUUUAFFFFABRRRQAUUUUAFFFFABRRRQAUUUUAFFFFABRRRQAUUUUAFFFFABRRRQAUUUUAFFFFABRRRQAUUUUAFFFFABRRRQAUUUUAYng3/AJEbw/8A9g22/wDRS1t1ieDf+RG8P/8AYNtv/RS1t0AFFFFABRRRQAUUUUAFFFFABRRRQAUUUUAFFFFABRRRQAUUUUAFFFFABRRRQAUUUUAFFFFABRRRQAUUUUAFYng3/kRvD/8A2Dbb/wBFLW3WJ4N/5Ebw/wD9g22/9FLQBt0UUUAFFFFABRRRQAUUUUAFFFFABRRRQAUUUUAFFFFABRRRQAUUUUAFFFFABRRRQAUUUUAFFFFABRRRQAUUUUAFFFFABRRRQAUUUUAFFFFABWZrmsRaNYmVsNM+REh/iP8AgKuXt5DYWklzcNtjjGT6n2HvXE6daXHizWHv7wFbOI4Cc4Pog/mT7+9efjcTKFqNHWctvLzZ5eY4ydO2Hoa1J7eS7ss+GtGl1G7Otallizb4lb+M/wB76DtXaUiqqIERQqqMAAYAFLW2EwscNT5Vq+r7s6MDgoYSlyR1b1b6t9wooorqOwKKKKACiiigAooooAKKKKACiiigAooooAKKKKACiiigAooooAKKKKACiiigDi/EujTaddDWdMym1t0ip/Cf72PT1rodD1mLWbISrhZl4ljz90/4GtJlDqVYAqRgg964LUbSfwnrKX1mCbOQ429vdD/T/wCtXj1ovA1fbw/hy+JdvNfr/VvBxEJZbWeJpr91L4l2f8y/X+rd9RVeyvIdQtI7m3bdG4z7g+h96sV68ZKSUo7M9yMozipRd0woooplBRRRQAUUUUAFFFFABRRRQAUUUUAFFFFABRRRQAUUUUAFFFFABRRRQAUUUUAFFFFABRRRQAUUUUAFFFFABRRRQAUUUUAFFFFABRRRQBieDf8AkRvD/wD2Dbb/ANFLW3WJ4N/5Ebw//wBg22/9FLW3QAUUUUAFFFFABRRRQAUUUUAFFFFABRRRQAUUUUAFFFFABRRRQAUUUUAFFFFABRRRQAUUUUAFFFFABRRRQAVieDf+RG8P/wDYNtv/AEUtbdYng3/kRvD/AP2Dbb/0UtAG3RRRQAUUUUAFFFFABRRRQAUUUUAFFFFABRRRQAUUUUAFFFFABRRRQAUUUUAFFFFABRRRQAUUUUAFFFFABRRRQAUUUUAFFFFABRRRQAUhIUEkgAckmlrkfFusuWGj2RLTS4Euzk4PRPqf89a58ViY4ek6kvl5vscmNxcMJRdWfyXd9EUNRuZ/FmtJY2bEWcRzu7e7n+Q/+vXbWdnDYWkdtbrtjjGB6n3PvVDQNGTRrARkKbh+ZXHc+g9hWtXPgcNKF61b45b+Xkc2XYSdO+Ir61J7+S6JegUUUV6B6gUUUUAFFFFABRRRQAUUUUAFFFFABRRRQAUUUUAFFFFABRRRQAUUUUAFFFFABRRRQAVBeWkN9aSW06Bo5Bgj+tT0UpRUk09mTKKknGSumcFp11P4U1t7G7Ymzlb73bHZx/Wu8VgyhlIIIyCO9ZXiDRk1iwKAAXEeTE57H0+hrH8JaxIrNo97lZosiMt146r/AIV5OHbwVb6vP4JfC+3l/keJhZSy/EfVJv8Ady+B9v7v+R11FFFeue6FFFFABRRRQAUUUUAFFFFABRRRQAUUUUAFFFFABRRRQAUUUUAFFFFABRRRQAUUUUAFFFFABRRRQAUUUUAFFFFABRRRQAUUUUAFFFFAGJ4N/wCRG8P/APYNtv8A0UtbdYng3/kRvD//AGDbb/0UtbdABRRRQAUUUUAFFFFABRRRQAUUUUAFFFFABRRRQAUUUUAFFFFABRRRQAUUUUAFFFFABRRRQAUUUUAFFFFABWJ4N/5Ebw//ANg22/8ARS1t1ieDf+RG8P8A/YNtv/RS0AbdFFFABRRRQAUUUUAFFFFABRRRQAUUUUAFFFFABRRRQAUUUUAFFFFABRRRQAUUUUAFFFFABRRRQAUUUUAFFFFABRRRQAUUUUAFFFMmmjt4HmmcJGilmY9hSbSV2JtJXZm6/rCaPpzSjBnf5YlPc+v0FY3hHRnYnWL3LzSkmLdyeerH3P8AnrWfaxS+L/EL3EystlD/AA+i9l+p7/j7V3qqFUKoAAGAB2ryaCeNr/WJfBH4fN9/8jw8MnmGI+tT/hw0gu76y/y/4AtFFFeue6FFFFABRRRQAUUUUAFFFFABRRRQAUUUUAFFFFABRRRQAUUUUAFFFFABRRRQAUUUUAFFFFABRRRQAVyXi3R3DLrFllZosGXb146N9R/KutpGUOpVgCpGCD3rnxWGjiKTpy+Xk+5y43CQxdF0pfJ9n0Zl6BrCaxpyyHAnT5ZV9D6/Q1q1wN1FL4R8QrcwqWspu3+z3X6jt+HvXdQTR3MCTRMGjdQysO4NYYDEyqJ0qvxx0fn5/M5ctxc6sXRrfxIaPz7P5klFFFd56gUUUUAFFFFABRRRQAUUUUAFFFFABRRRQAUUUUAFFFFABRRRQAUUUUAFFFFABRRRQAUUUUAFFFFABRRRQAUUUUAFFFFABRRRQBieDf8AkRvD/wD2Dbb/ANFLW3WJ4N/5Ebw//wBg22/9FLW3QAUUUUAFFFFABRRRQAUUUUAFFFFABRRRQAUUUUAFFFFABRRRQAUUUUAFFFFABRRRQAUUUUAFFFFABRRRQAVieDf+RG8P/wDYNtv/AEUtbdYng3/kRvD/AP2Dbb/0UtAG3RRRQAUUUUAFFFFABRRRQAUUUUAFFFFABRRRQAUUUUAFFFFABRRRQAUUUUAFFFFABRRRQAUUUUAFFFFABRRRQAUUUUAFFFFABXFeKtSl1G+j0Ox+clwJMd27D6Dqf/rVv+IdXGj6a0in/SJPkiHv6/hWV4O0cwwHVLkbp5x+73ckL6/U/wAvrXlY2cq9RYOm99ZPsv8AgniZjUliaqwFJ76yfaPb1ZvaVpsWlafHaxc45dv7zdzV2iivThCMIqMVZI9inTjTgoQVkgoooqiwooooAKKKKACiiigAooooAKKKKACiiigAooooAKKKKACiiigAooooAKKKKACiiigAooooAKKKKACiiigClq2mxarp8lrLgE8o2Put2Ncx4V1KXT72TRL7KEMRHuPRv7v0PUf/AF67SuU8Y6O0sS6pbAieDHmbepUd/qP5fSvMx9KUGsXS+KO/mup42Z0Z05LG0F70N13j1XyOrorJ8Pawur6arsR9ojwsq+/r9D/jWtXfSqxqwVSGzPUoVoV6aq03dMKKKK0NQooooAKKKKACiiigAooooAKKKKACiiigAooooAKKKKACiiigAooooAKKKKACiiigAooooAKKKKACiiigAooooAKKKKAMTwb/AMiN4f8A+wbbf+ilrbrE8G/8iN4f/wCwbbf+ilrboAKKKKACiiigAooooAKKKKACiiigAooooAKKKKACiiigAooooAKKKKACiiigAooooAKKKKACiiigAooooAKxPBv/ACI3h/8A7Btt/wCilrbrE8G/8iN4f/7Btt/6KWgDbooooAKKKKACiiigAooooAKKKKACiiigAooooAKKKKACiiigAooooAKKKKACiiigAooooAKKKKACiiigAooooAKKKKACmu6xRtI7BUUFmY9ABTq5Dxjqjs0ej2uWllI8wL15Pyr+PX8q5sXiY4ek6j+Xmzkx2LjhKDqy+S7voihAsni7xI0rhhZQdvRew+p/x9K70AKAAAAOABWfoelJpGmJbjBkPzSN6sf84rRrLAYaVKDnU+OWr/y+RhlmElQpudXWpPWX+XyCiiiu49IKKKKACiiigAooooAKKKKACiiigAooooAKKKKACiiigAooooAKKKKACiiigAooooAKKKKACiiigAooooAKKKKACkYBlKkZBGCKWigDgZ0k8I+JVmjBNlNk4H90nkfUf4V3kciSxrJGwZHAZSO4NUNb0pNX017c4Eg+aNj/AAt/hWD4O1R1aTR7rKyxEmMN146r+HX868ij/seJ9i/gnrHyfVHhYf8A4T8X9Xf8OprHyfVf5HX0UUV657oUUUUAFFFFABRRRQAUUUUAFFFFABRRRQAUUUUAFFFFABRRRQAUUUUAFFFFABRRRQAUUUUAFFFFABRRRQAUUUUAFFFFAGJ4N/5Ebw//ANg22/8ARS1t1ieDf+RG8P8A/YNtv/RS1t0AFFFFABRRRQAUUUUAFFFFABRRRQAUUUUAFFFFABRRRQAUUUUAFFFFABRRRQAUUUUAFFFFABRRRQAUUUUAFYng3/kRvD//AGDbb/0UtbdYng3/AJEbw/8A9g22/wDRS0AbdFFFABRRRQAUUUUAFFFFABRRRQAUUUUAFFFFABRRRQAUUUUAFFFFABRRRQAUUUUAFFFFABRRRQAUUUUAFFFFABRRRQBS1XUY9K06W6k52jCL/eY9BXM+EdOkvLuXW7wlnZj5ee5PVv6D8fSq+szy+JfEUemWzf6PCxBYdP8Aab+g/wDr129vBHa28cEKhY41CqPYV5EP9sxXP9int5y7/I8Kn/woYz2j/h0tF5y7/Ikooor1z3QooooAKKKKACiiigAooooAKKKKACiiigAooooAKKKKACiiigAooooAKKKKACiiigAooooAKKKKACiiigAooooAKKKKACiiigArjPF2nSWd3FrVn8rKw8zHZuzf0/KuzqOeCO5t5IJV3RyKVYeorlxmGWIpOGz6Pszix+EWLoOns90+z6FbStRj1TTorqPjcMOv91u4q7XCaPPJ4a8QyabdP/o8zABjwP8AZb+h/wDrV3dRgcS69P39JR0a8yMtxbxNH39Jx0kvNf5hRRRXaegFFFFABRRRQAUUUUAFFFFABRRRQAUUUUAFFFFABRRRQAUUUUAFFFFABRRRQAUUUUAFFFFABRRRQAUUUUAFFFFAGJ4N/wCRG8P/APYNtv8A0UtbdYng3/kRvD//AGDbb/0UtbdABRRRQAUUUUAFFFFABRRRQAUUUUAFFFFABRRRQAUUUUAFFFFABRRRQAUUUUAFFFFABRRRQAUUUUAFFFFABWJ4N/5Ebw//ANg22/8ARS1t1ieDf+RG8P8A/YNtv/RS0AbdFFFABRRRQAUUUUAFFFFABRRRQAUUUUAFFFFABRRRQAUUUUAFFFFABRRRQAUUUUAFFFFABRRRQAUUUUAFFFFABWF4p1j+y9MKRti5nyqY/hHdv89zW27rGjO7BVUEknsK4SzR/Ffid7mVSbKDB2npt/hX8eSfxrz8wryjBUaXxz0Xl3fyPKzXEzhBUKP8SpovLu/kja8IaQLDThdSri4uBnkcqnYf1/L0ro6KK6sPQjQpKnDZHbhcNDDUY0YbL+rhRRRWx0BRRRQAUUUUAFFFFABRRRQAUUUUAFFFFABRRRQAUUUUAFFFFABRRRQAUUUUAFFFFABRRRQAUUUUAFFFFABRRRQAUUUUAFFFFABRRRQBzni7SPt+n/aoV/0i2Bbjqy9x+HWpvC2r/wBp6WqSNm4gAR/Ujsa3etcDdo/hTxOtzEv+hzZ+Uf3T95fwPI/CvJxX+yV1il8L0l+jPDxq+pYmOMj8EtJ/o/6/U76imo6yxrIjBkYBlYdCDTq9bc9xO+qCiiigAooooAKKKKACiiigAooooAKKKKACiiigAooooAKKKKACiiigAooooAKKKKACiiigAooooAKKKKACiiigDE8G/wDIjeH/APsG23/opa26xPBv/IjeH/8AsG23/opa26ACiiigAooooAKKKKACiiigAooooAKKKKACiiigAooooAKKKKACiiigAooooAKKKKACiiigAooooAKKKKACsTwb/wAiN4f/AOwbbf8Aopa26xPBv/IjeH/+wbbf+iloA26KKKACiiigAooooAKKKKACiiigAooooAKKKKACiiigAooooAKKKKACiiigAooooAKKKKACiiigAooooAKKKgvLuKxs5bqY4jjXcff2pSkopt7ImUlGLlLRI5rxpqrRwJpluSZZ8GQL129h+J/l71s6DpS6RpccBA85vmlI7sf8Olc14YtZtZ1mfWrwZVG+T039gPZR/Su4ry8DF16ksZPrpHyX/BPGy2LxNWWPn10j5RXX5hRRRXqnthRRRQAUUUUAFFFFABRRRQAUUUUAFFFFABRRRQAUUUUAFFFFABRRRQAUUUUAFFFFABRRRQAUUUUAFFFFABRRRQAUUUUAFFFFABRRRQAUUUUAFZmvaWuraXJAAPNX54j6MP8AHpWnRUVacasHCWzM61KFam6c1o9Dk/BmqtJC+l3BIlg5jDddueR+B/zxXWVw/ia0l0bWYNZswQrtlwOAG7/gR/WuxsruK+sorqE5SVdw9vb8K8/Lqko82FqfFD8V0Z5eVVZw5sHVfvU9vOPR/oT0UUV6Z7AUUUUAFFFFABRRRQAUUUUAFFFFABRRRQAUUUUAFFFFABRRRQAUUUUAFFFFABRRRQAUUUUAFFFFABRRRQBieDf+RG8P/wDYNtv/AEUtbdYng3/kRvD/AP2Dbb/0UtbdABRRRQAUUUUAFFFFABRRRQAUUUUAFFFFABRRRQAUUUUAFFFFABRRRQAUUUUAFFFFABRRRQAUUUUAFFFFABWJ4N/5Ebw//wBg22/9FLW3WJ4N/wCRG8P/APYNtv8A0UtAG3RRRQAUUUUAFFFFABRRRQAUUUUAFFFFABRRRQAUUUUAFFFFABRRRQAUUUUAFFFFABRRRQAUUUUAFFFFABXFeLb6XUNQg0W0+Y7gXx3Y9AfYDk//AFq6fV9RTStNlumwWUYRT/Ex6Cuc8G6c80s2s3WWkkZhGzDqT95v6fnXlY+TrTjhIfa1flH/AIJ4uaTlXnHAU3rLWXlFf5nT6dYx6bYQ2kX3Y1wT6nufzq1RRXpxioRUY7I9iEIwioRVkgoooqigooooAKKKKACiiigAooooAKKKKACiiigAooooAKKKKACiiigAooooAKKKKACiiigAooooAKKKKACiiigAooooAKKKKACiiigAooooAKKKKACiiigCrqNjHqNhNaS/dkXAPoex/A1ynhK+k0/UJtFu/lO47M9mHUfiOf8A9ddrXHeMtPeCSDWLXKyRsBIR2Oflb8+Pyry8whKm44unvHfzj1PGzWnKk446nvDfzj1+7c7GiqOk6imq6bFdJgFhh1H8LDqKvV6UJxnFTjsz1qdSNSCnB3T1CiiiqLCiiigAooooAKKKKACiiigAooooAKKKKACiiigAooooAKKKKACiiigAooooAKKKKACiiigAooooAxPBv/IjeH/+wbbf+ilrbrE8G/8AIjeH/wDsG23/AKKWtugAooooAKKKKACiiigAooooAKKKKACiiigAooooAKKKKACiiigAooooAKKKKACiiigAooooAKKKKACiiigArE8G/wDIjeH/APsG23/opa26xPBv/IjeH/8AsG23/opaANuiiigAooooAKKKKACiiigAooooAKKKKACiiigAooooAKKKKACiiigAooooAKKKKACiiigAooooAKKKy/EGqDSdJkmUjzm+SIf7R7/h1rOrUjSg5y2RlWrQo05VJ7LU5rxBPJr3iGHSLZj5UTbXI6bv4j+A4/Ou0treO1to7eFdscahVHsK5rwXpRgtH1KYEy3HCZ6hM9fxP8hXVVw5dTlJSxNT4p6+i6I83KaU5KWLqr3qmvpHogooor0j1wooooAKKKKACiiigAooooAKKKKACiiigAooooAKKKKACiiigAooooAKKKKACiiigAooooAKKKKACiiigAooooAKKKKACiiigAooooAKKKKACiiigAooooAKiubeO6tpIJRmORSrD2NS0Umk1ZiaUlZ7HDeH530HxDPpNyx8qVsKT03fwn8R/T0rua5XxnpZmtU1GEHzrfhyO6+v4H+ZrV8P6oNV0mOYnMyfJKP9od/x615eBbw9WWElstY+nb5Hi5c3ha08DPZax9H0+Rq0UUV6p7YUUUUAFFFFABRRRQAUUUUAFFFFABRRRQAUUUUAFFFFABRRRQAUUUUAFFFFABRRRQAUUUUAFFFFAGJ4N/5Ebw//ANg22/8ARS1t1ieDf+RG8P8A/YNtv/RS1t0AFFFFABRRRQAUUUUAFFFFABRRRQAUUUUAFFFFABRRRQAUUUUAFFFFABRRRQAUUUUAFFFFABRRRQAUUUUAFYng3/kRvD//AGDbb/0UtbdYng3/AJEbw/8A9g22/wDRS0AbdFFFABRRRQAUUUUAFFFFABRRRQAUUUUAFFFFABRRRQAUUUUAFFFFABRRRQAUUUUAFFFFABRRRQAVweoyN4n8Ux2UTH7LASpI9B95vx6D8K6HxRqv9maQ4RsTz5SP1HqfwH8xVfwdpX2HTPtUi/vrnDcjonYfj1/L0rycZ/tNeOFWy1l6dF8zw8e3jMTDBR+Fe9P06L5nQoixoqIoVVAAA7CnUUV6x7iVgooooAKKKKACiiigAooooAKKKKACiiigAooooAKKKKACiiigAooooAKKKKACiiigAooooAKKKKACiiigAooooAKKKKACiiigAooooAKKKKACiiigAooooAKKKKACiiigBrosiMjqGVgQQe4rhdOkbwx4pkspSfss5ABPofut+HQ/jXeVzfjDSvtum/a4l/f23PHUr3H9a87MaUnBV6fxQ1+XVHk5tQm6ccTS+OnqvNdV9x0lFYnhfVf7T0hA7Zng/dyZ6n0P4j9Qa267KNWNamqkdmehh68K9KNWGzQUUUVqbBRRRQAUUUUAFFFFABRRRQAUUUUAFFFFABRRRQAUUUUAFFFFABRRRQAUUUUAFFFFABRRRQBieDf+RG8P/wDYNtv/AEUtbdYng3/kRvD/AP2Dbb/0UtbdABRRRQAUUUUAFFFFABRRRQAUUUUAFFFFABRRRQAUUUUAFFFFABRRRQAUUUUAFFFFABRRRQAUUUUAFFFFABWJ4N/5Ebw//wBg22/9FLW3WJ4N/wCRG8P/APYNtv8A0UtAG3RRRQAUUUUAFFFFABRRRQAUUUUAFFFFABRRRQAUUUUAFFFFABRRRQAUUUUAFFFFABRRRQAUUVz/AIu1X+z9KMMZxPc5Qey/xH+n41jiK0aFOVSWyMMViIYajKtPZGFIT4r8WBFybKDv2KA8n/gR/T6V3oAAwBgCsDwnpX9naSJZFxPcYdvUL/CP6/jW/XLl1GUabq1Pinq/0Rw5Th5wpOtV+Opq/wBF8kFFFFegeqFFFFABRRRQAUUUUAFFFFABRRRQAUUUUAFFFFABRRRQAUUUUAFFFFABRRRQAUUUUAFFFFABRRRQAUUUUAFFFFABRRRQAUUUUAFFFFABRRRQAUUUUAFFFFABRRRQAUUUUAFBAIwRkGiigDgoyfCviwociyuPXoEJ/wDZT/nmu961g+LNK/tHSjJGuZ7fLrgckdx/n0pvhHVf7Q0oQyHM1vhD7r2P9PwrycL/ALLiJYZ/DLWP6o8PBf7Hi5YN/DL3o/qjoKKKK9Y9wKKKKACiiigAooooAKKKKACiiigAooooAKKKKACiiigAooooAKKKKACiiigAooooAKKKKAMTwb/yI3h//sG23/opa26xPBv/ACI3h/8A7Btt/wCilrboAKKKKACiiigAooooAKKKKACiiigAooooAKKKKACiiigAooooAKKKKACiiigAooooAKKKKACiiigAooooAKxPBv8AyI3h/wD7Btt/6KWtusTwb/yI3h//ALBtt/6KWgDbooooAKKKKACiiigAooooAKKKKACiiigAooooAKKKKACiiigAooooAKKKKACiiigAooooAQkKCSQAOSTXBwA+KvFhlYbrKDsRxsHQfif61teMNV+w6X9ljbE1zleOydz/AE/E1Z8MaX/ZmkJvXE837yT29B+A/rXk4n/asTHDr4Y6y/RHh4v/AG3GRwq+CHvS9ei/U2qKKK9Y9wKKKKACiiigAooooAKKKKACiiigAooooAKKKKACiiigAooooAKKKKACiiigAooooAKKKKACiiigAooooAKKKKACiiigAooooAKKKKACiiigAooooAKKKKACiiigAooooAKKKKACiiigA61wUwPhbxYsoyLOc8+m0nkfgea72sXxPpf9p6Q/lrmeH95HjqfUfiP6V5+Y0JVKftKfxw1X+XzPLzXDSq0VVpfHD3l8t18zZBDAEEEHkEUtc54P1UXuli1kbM9t8vJ5Kdj+HT8BXR11YevGvSjUj1OzC4mOJoxrQ2YUUUVsdAUUUUAFFFFABRRRQAUUUUAFFFFABRRRQAUUUUAFFFFABRRRQAUUUUAFFFFABRRRQBieDf8AkRvD/wD2Dbb/ANFLW3WJ4N/5Ebw//wBg22/9FLW3QAUUUUAFFFFABRRRQAUUUUAFFFFABRRRQAUUUUAFFFFABRRRQAUUUUAFFFFABRRRQAUUUUAFFFFABRRRQAVieDf+RG8P/wDYNtv/AEUtbdYng3/kRvD/AP2Dbb/0UtAG3RRRQAUUUUAFFFFABRRRQAUUUUAFFFFABRRRQAUUUUAFFFFABRRRQAUUUUAFFFFABSMyopZiFUDJJOABS1zPjPVfsmnCyjbE1zw2Oyd/z6fnWGJrxw9KVWXQ5sZiY4WhKtLp/SRkWKt4o8WPdSAm0g5AP90H5R+J5/Ou9rH8NaV/ZWkojrieX95L7E9B+A/XNbFc+XUJU6XPU+KWr/ryOXKsNKjR56vxzfM/n0+QUUUV3nphRRRQAUUUUAFFFFABRRRQAUUUUAFFFFABRRRQAUUUUAFFFFABRRRQAUUUUAFFFFABRRRQAUUUUAFFFFABRRRQAUUUUAFFFFABRRRQAUUUUAFFFFABRRRQAUUUUAFFFFABRRRQAUUUUAFFFFAHB3yt4Y8WJdRgi0nOSB02n7w/A8/lXdqyugdSCrDII7isjxLpX9qaQ6IuZ4v3kfue4/Ef0qj4N1T7Xpxs5GzLb9M9Snb8un5V5OH/ANlxUqD+GesfXqjw8L/sWNlhn8E/ej69UdNRRRXrHuBRRRQAUUUUAFFFFABRRRQAUUUUAFFFFABRRRQAUUUUAFFFFABRRRQAUUUUAFFFFAGJ4N/5Ebw//wBg22/9FLW3WJ4N/wCRG8P/APYNtv8A0UtbdABRRRQAUUUUAFFFFABRRRQAUUUUAFFFFABRRRQAUUUUAFFFFABRRRQAUUUUAFFFFABRRRQAUUUUAFFFFABWJ4N/5Ebw/wD9g22/9FLW3WJ4N/5Ebw//ANg22/8ARS0AbdFFFABRRRQAUUUUAFFFFABRRRQAUUUUAFFFFABRRRQAUUUUAFFFFABRRRQAUUUUANd1jRndgqqCST2FcLpaN4l8VyX0oJtoCGAPoPuL/X8DWr401T7Lp62MTfvbn72OyDr+fT860fDul/2VpEcTDE0n7yX/AHj2/AYFeTX/ANqxcaP2Yav16I8PE/7bjo4f7FP3pevRfqa1FFFese4FFFFABRRRQAUUUUAFFFFABRRRQAUUUUAFFFFABRRRQAUUUUAFFFFABRRRQAUUUUAFFFFABRRRQAUUUUAFFFFABRRRQAUUUUAFFFFABRRRQAUUUUAFFFFABRRRQAUUUUAFFFFABRRRQAUUUUAFFFFABXB6mjeGvFUd9ED9mnJZgPQ/eH9fyrvKyfEWljVNJkjUZmj+eP6jt+NcGYUJVaXND4o6r5HmZrhpVqHNT+OHvR9V/maiOsiK6MGVgCCO4p1cx4M1T7TYNYyt++tvug9Sn/1jx+VdPXRhq8cRSjVj1OrB4mOKoRrR6/n1QUUUVudIUUUUAFFFFABRRRQAUUUUAFFFFABRRRQAUUUUAFFFFABRRRQAUUUUAFFFFAGJ4N/5Ebw//wBg22/9FLW3WJ4N/wCRG8P/APYNtv8A0UtbdABRRRQAUUUUAFFFFABRRRQAUUUUAFFFFABRRRQAUUUUAFFFFABRRRQAUUUUAFFFFABRRRQAUUUUAFFFFABWJ4N/5Ebw/wD9g22/9FLW3WJ4N/5Ebw//ANg22/8ARS0AbdFFFABRRRQAUUUUAFFFFABRRRQAUUUUAFFFFABRRRQAUUUUAFFFFABRRRQAU13WKNpHIVFBZiewFOrl/GmqG3sUsIj+9uPvY6hP/rn+RrnxWIjh6Uqsuhy4zFRwtCVaXT8+hmaTG/iTxTLqEqn7NAwYA+33B/Wu7rL8P6YNK0iKFhiVvnl/3j2/Dp+FalY5fh3SpXn8UtX6s58rwsqFDmqfHP3per/yCiiiu49IKKKKACiiigAooooAKKKKACiiigAooooAKKKKACiiigAooooAKKKKACiiigAooooAKKKKACiiigAooooAKKKKACiiigAooooAKKKKACiiigAooooAKKKKACiiigAooooAKKKKACiiigAooooAKKKKACiiigDhNVjfw34oi1CJT9mmYlgO4P3h/Wu5R1ljWRGDIwDKw6EGs3xBpg1XSJYVGZV+eL/eHb8en41l+C9UNxYvYSsfNt/u56lP/rH+YryaP+y4t0fsz1Xr1R4eH/2LHSw/2KnvR9eq/U6iiiivWPcCiiigAooooAKKKKACiiigAooooAKKKKACiiigAooooAKKKKACiiigAooooAxPBv8AyI3h/wD7Btt/6KWtusTwb/yI3h//ALBtt/6KWtugAooooAKKKKACiiigAooooAKKKKACiiigAooooAKKKKACiiigAooooAKKKKACiiigAooooAKKKKACiiigArE8G/8AIjeH/wDsG23/AKKWtusTwb/yI3h//sG23/opaANuiiigAooooAKKKKACiiigAooooAKKKKACiiigAooooAKKKKACiiigAooooAbJIkUbSSMFRAWYnsBXDaPG/iPxTLqMyn7PAQyg/wDjg/r+FaXjTUzb2KWER/e3HLY6hB/if5GtXw/pg0rSIoWGJW+eX/ePb8On4V5Nb/asWqP2Yav16I8TEf7bjo0F8FP3pevRfqalFFFese2FFFFABRRRQAUUUUAFFFFABRRRQAUUUUAFFFFABRRRQAUUUUAFFFFABRRRQAUUUUAFFFFABRRRQAUUUUAFFFFABRRRQAUUUUAFFFFABRRRQAUUUUAFFFFABRRRQAUUUUAFFFFABRRRQAUUUUAFFFFABRRRQAUUUUAFcJrEb+HPFMWowqfs85LMB/4+P6/jXd1l+INMGq6RLCozKvzxf7w7fj0/GuHMMPKrRvD4o6r1R5uaYWVehen8cfej6r/M0o5EljWSNgyOAykdwadXLeC9TNxYvYSn97b8rnqUP+B/mK6mtsLiI4ijGqup0YPFRxVCNaPX8+oUUUV0HUFFFFABRRRQAUUUUAFFFFABRRRQAUUUUAFFFFABRRRQAUUUUAFFFFAGJ4N/5Ebw/wD9g22/9FLW3WJ4N/5Ebw//ANg22/8ARS1t0AFFFFABRRRQAUUUUAFFFFABRRRQAUUUUAFFFFABRRRQAUUUUAFFFFABRRRQAUUUUAFFFFABRRRQAUUUUAFYng3/AJEbw/8A9g22/wDRS1t1ieDf+RG8P/8AYNtv/RS0AbdFFFABRRRQAUUUUAFFFFABRRRQAUUUUAFFFFABRRRQAUUUUAFFFFABTZJEijaSRgqICzE9gKdXLeNNTNvYpYRH97cctjqEH+J/ka58ViI4ejKq+hy4zFRwtCVaXT8+hm6PG/iPxTLqMyn7PAQyg/8Ajg/r+Fd3WX4f0waVpEULDErfPL/vHt+HT8K1Kxy/DypUbz+KWr9Wc+V4WVChep8cvel6v/IKKKK7j0gooooAKKKKACiiigAooooAKKKKACiiigAooooAKKKKACiiigAooooAKKKKACiiigAooooAKKKKACiiigAooooAKKKKACiiigAooooAKKKKACiiigAooooAKKKKACiiigAooooAKKKKACiiigAooooAKKKKACiiigAooooA4TWI38OeKYtRhU/Z5yWYD/x8f1/Gu5jkSWNZI2DI4DKR3BrN8QaYNV0iWFRmVfni/wB4dvx6fjWV4L1M3Fi9hKf3tvyuepQ/4H+YryaP+y4t0fsz1Xr1R4mH/wBix0qH2KnvR9eq/U6miiivWPbCiiigAooooAKKKKACiiigAooooAKKKKACiiigAooooAKKKKACiiigDE8G/wDIjeH/APsG23/opa26xPBv/IjeH/8AsG23/opa26ACiiigAooooAKKKKACiiigAooooAKKKKACiiigAooooAKKKKACiiigAooooAKKKKACiiigAooooAKKKKACsTwb/wAiN4f/AOwbbf8Aopa26xPBv/IjeH/+wbbf+iloA26KKKACiiigAooooAKKKKACiiigAooooAKKKKACiiigAooooAKKKKAGySJFG0kjBUQFmJ7AVw+jRv4i8UTalMp+zwncoP8A46P61peNNTMFimnxE+bc/eA6hP8A65/ka1dA0waVpMUBA81vnlP+0f8ADpXlVv8AasWqX2Yav16I8TEf7Zjo0PsU/el69F+pp0UUV6p7YUUUUAFFFFABRRRQAUUUUAFFFFABRRRQAUUUUAFFFFABRRRQAUUUUAFFFFABRRRQAUUUUAFFFFABRRRQAUUUUAFFFFABRRRQAUUUUAFFFFABRRRQAUUUUAFFFFABRRRQAUUUUAFFFFABRRRQAUUUUAFFFFABRRRQAUUUUAFFFFABXC6zG3h3xRDqUKn7POSzKP8Ax8frn8fau6rM1/TBqukSwAfvV+eL/eH+PI/GuHMMO61K8PijqvVHnZphZV6F6fxx96Pqv8zRjkSWNZI2DI4DKR3Bp1ct4L1M3Fi9hKf3tvyuepQ/4H+Yrqa2wuIjiKMaq6m+DxUcVQjWj1/PqFFFFdB1BRRRQAUUUUAFFFFABRRRQAUUUUAFFFFABRRRQAUUUUAFFFFAGJ4N/wCRG8P/APYNtv8A0UtbdYng3/kRvD//AGDbb/0UtbdABRRRQAUUUUAFFFFABRRRQAUUUUAFFFFABRRRQAUUUUAFFFFABRRRQAUUUUAFFFFABRRRQAUUUUAFFFFABWJ4N/5Ebw//ANg22/8ARS1t1ieDf+RG8P8A/YNtv/RS0AbdFFFABRRRQAUUUUAFFFFABRRRQAUUUUAFFFFABRRRQAUUUUAFNlkSGJ5ZGCoilmY9gOpp1cr411Mw2cenQk+bccuB12A9PxP8jXPisQsPRlVfT8+hy43FRwtCVaXT8X0M7RY38ReJ5tTnU+RC25VPb+4v4da7uszQNMGlaTFAQPNb55T/ALR/w6Vp1jl+HdGjefxS1fqznyvCyoUL1PjlrL1f+QUUUV3HpBRRRQAUUUUAFFFFABRRRQAUUUUAFFFFABRRRQAUUUUAFFFFABRRRQAUUUUAFFFFABRRRQAUUUUAFFFFABRRRQAUUUUAFFFFABRRRQAUUUUAFFFFABRRRQAUUUUAFFFFABRRRQAUUUUAFFFFABRRRQAUUUUAFFFFABRRRQAUUUUAFFFFAHCa3G/h7xRDqcK/uZmLkD1/jH45z+PtXcxSJNEksbbkdQyn1B6Vna/pg1XSJYAP3q/PF/vD/HkfjWR4K1IzWcmnSkiW35QHrtJ5H4H+deTR/wBlxbpfZnqvXqv68jw6H+xY6VD7FT3o+Uuq/ryOqooor1j3AooooAKKKKACiiigAooooAKKKKACiiigAooooAKKKKACiiigDE8G/wDIjeH/APsG23/opa26xPBv/IjeH/8AsG23/opa26ACiiigAooooAKKKKACiiigAooooAKKKKACiiigAooooAKKKKACiiigAooooAKKKKACiiigAooooAKKKKACsTwb/wAiN4f/AOwbbf8Aopa26xPBv/IjeH/+wbbf+iloA26KKKACiiigAooooAKKKKACiiigAooooAKKKKACiiigAooooAZLKkMLyyMFjRSzMewHJNcRokb+IfE82qTqfJhbcqnsf4B+GM/Ue9X/ABtqZhtI9OiJ824+ZwOu0Hgfif5GtjQdMGlaTFbkDzT88p/2j/h0/CvJq/7Vi1S+zT1fr0R4df8A23HRofYp6vzl0Xy/zNOiiivWPcCiiigAooooAKKKKACiiigAooooAKKKKACiiigAooooAKKKKACiiigAooooAKKKKACiiigAooooAKKKKACiiigAooooAKKKKACiiigAooooAKKKKACiiigAooooAKKKKACiiigAooooAKKKKACiiigAooooAKKKKACiiigAooooAKKKKACiiigArhdbifw94nh1OFf3MzbmA9f4x+Oc/j7V3VZmvaYNV0mW3AHmj54j/tD/AB6fjXDmGHdajeHxR1Xqjzs0wsq9C9P446x9V/maEUqTwpLG25HUMp9QafXKeCtTMtpJp0pIkg5QHrtzyPwP866utsLiFiKMai6/mb4LFRxVCNaPX8+oUUUV0HUFFFFABRRRQAUUUUAFFFFABRRRQAUUUUAFFFFABRRRQBieDf8AkRvD/wD2Dbb/ANFLW3WJ4N/5Ebw//wBg22/9FLW3QAUUUUAFFFFABRRRQAUUUUAFFFFABRRRQAUUUUAFFFFABRRRQAUUUUAFFFFABRRRQAUUUUAFFFFABRRRQAVieDf+RG8P/wDYNtv/AEUtbdYng3/kRvD/AP2Dbb/0UtAG3RRRQAUUUUAFFFFABRRRQAUUUUAFFFFABRRRQAUUUUAFMmlSCF5pGCxopZiewFPrkvGuptHBHpkBJkmw0gHXbngfif5VzYvELD0ZVH0/PocmOxUcLQlWfTbzfQo6FE/iDxNNqk6nyYW3gHsf4B+GM/h713dZ2h6YulaVFb4Hm43Skd2PX8un4Vo1ll+HdGj7/wAUtX6sxyvCyw9D958ctZer/wAgoooruPRCiiigAooooAKKKKACiiigAooooAKKKKACiiigAooooAKKKKACiiigAooooAKKKKACiiigAooooAKKKKACiiigAooooAKKKKACiiigAooooAKKKKACiiigAooooAKKKKACiiigAooooAKKKKACiiigAooooAKKKKACiiigAooooAKKKKACiiigAooooA4TXYn8P+JodTgXEMzbiB0z/EPx6/jXcQypPCk0bbkdQyn2NUdc01dV0qW3wPMxujJ7MOn+H41ieCtTaSCXTJ8iWD5kB67c8j8D/OvJpf7Li3S+zU1Xr1R4dH/Ysc6P2Kuq8pdV8/8AI6yiiivWPcCiiigAooooAKKKKACiiigAooooAKKKKACiiigAooooAxPBv/IjeH/+wbbf+ilrbrE8G/8AIjeH/wDsG23/AKKWtugAooooAKKKKACiiigAooooAKKKKACiiigAooooAKKKKACiiigAooooAKKKKACiiigAooooAKKKKACiiigArE8G/wDIjeH/APsG23/opa26xPBv/IjeH/8AsG23/opaANuiiigAooooAKKKKACiiigAooooAKKKKACiiigAooooAjnmjt4JJpW2xxqWY+gFcT4ehk17xHPq1wv7uJtyg9N38I/Ac/gKu+NNSby4dKgyZZiGcL1xngfif5Vu6Lpq6VpcNqMbwN0hHdj1/wAPwryan+1YxU/s09X69F8jw6v+249UvsUtX5y6L5f5mhRRRXrHuBRRRQAUUUUAFFFFABRRRQAUUUUAFFFFABRRRQAUUUUAFFFFABRRRQAUUUUAFFFFABRRRQAUUUUAFFFFABRRRQAUUUUAFFFFABRRRQAUUUUAFFFFABRRRQAUUUUAFFFFABRRRQAUUUUAFFFFABRRRQAUUUUAFFFFABRRRQAUUUUAFFFFABRRRQAUUUUAFFFFABXC+IIH0HxFBqtuuIpW3MB0z/EPxH9a7qs/WtNXVdLltuN5G6Mnsw6VxY/DutR9z4lqvVHnZnhXiKD5PjjrH1RcgmjuII5om3RyKGU+oNSVyXgvUmMc2lXBIlhJZA3XGeR+B/n7V1taYTELEUVUXXf16m2BxSxVCNVdd/J9QooorpOsKKKKACiiigAooooAKKKKACiiigAooooAKKKKAMTwb/yI3h//ALBtt/6KWtusTwb/AMiN4f8A+wbbf+ilrboAKKKKACiiigAooooAKKKKACiiigAooooAKKKKACiiigAooooAKKKKACiiigAooooAKKKKACiiigAooooAKxPBv/IjeH/+wbbf+ilrbrE8G/8AIjeH/wDsG23/AKKWgDbooooAKKKKACiiigAooooAKKKKACiiigAooooAKiuJ47W3knmbbHGpZj7Cpa4/xpqLP5OkW+WklIaQL35+VfxPP4CubGYhYei6nXp69Djx+LWFw8qr36eb6Ffw3BJrfiC41i5X5I2yoPTd2H4D+ldxVHSNOXS9MhtVwWUZcjux6mr1Z4DDuhRSl8T1fqzPLMK8NQSn8UtZerCiiiu09AKKKKACiiigAooooAKKKKACiiigAooooAKKKKACiiigAooooAKKKKACiiigAooooAKKKKACiiigAooooAKKKKACiiigAooooAKKKKACiiigAooooAKKKKACiiigAooooAKKKKACiiigAooooAKKKKACiiigAooooAKKKKACiiigAooooAKKKKACiiigAooooAKKKKAOH8SQSaJr9vrFsvySNlgOm7uPxH9a7O3njureOeFt0cihlPsaravpyappk1q2AzDKMf4WHQ1zvgvUXTztJuMrJES0YbqOfmX8+fzryYf7LjHD7NTVeUuv3nh0/wDYse6f2Kuq8pdV8zsKKKK9Y9wKKKKACiiigAooooAKKKKACiiigAooooAKKKKAMTwb/wAiN4f/AOwbbf8Aopa26xPBv/IjeH/+wbbf+ilrboAKKKKACiiigAooooAKKKKACiiigAooooAKKKKACiiigAooooAKKKKACiiigAooooAKKKKACiiigAooooAKxPBv/IjeH/8AsG23/opa26xPBv8AyI3h/wD7Btt/6KWgDbooooAKKKKACiiigAooooAKKKKACiiigAooooAgvLqOys5bmU4SNSx9/auO8LWsmr6zcazdDIRvl9N5/wAB/MVN4xv5Lm5g0a1yzuwMgHcn7o/r+VdPplgmm6dDaJg7F+Y/3m7n868mX+14zl+xT/GX/APDl/t2PUfsUt/OX/ALdFFFese4FFFFABRRRQAUUUUAFFFFABRRRQAUUUUAFFFFABRRRQAUUUUAFFFFABRRRQAUUUUAFFFFABRRRQAUUUUAFFFFABRRRQAUUUUAFFFFABRRRQAUUUUAFFFFABRRRQAUUUUAFFFFABRRRQAUUUUAFFFFABRRRQAUUUUAFFFFABRRRQAUUUUAFFFFABRRRQAUUUUAFFFFABRRRQAVw/ii1k0jWYNZtRgO3zDsHH+I/rXcVT1SwTU9OmtJON4+U+h7GuPHYb29Fxj8S1XqjgzLCPFUHGPxLWL80S2d1He2cVzEcpIoYe3tU9cb4OvpLa5uNGufldGLRg9iPvD+v512VVg8R9YoqfXr69SsvxaxWHjU67Pya3Ciiiuo7QooooAKKKKACiiigAooooAKKKKACiiigDE8G/8AIjeH/wDsG23/AKKWtusTwb/yI3h//sG23/opa26ACiiigAooooAKKKKACiiigAooooAKKKKACiiigAooooAKKKKACiiigAooooAKKKKACiiigAooooAKKKKACsTwb/yI3h//ALBtt/6KWtusTwb/AMiN4f8A+wbbf+iloA26KKKACiiigAooooAKKKKACiiigAooooAKrX97Fp9jNdzH5I1zj1PYfieKs1xPi28k1HU7fRbQ7juG8A8Fz0B+g5/H2rkxuJ+r0XNb7L1Zw5ji/qtBzWsnol3b2F8I2cuoajca1d/M24hD6sep/AcV2tVrCyi0+xhtIR8ka4z6nufxPNWaMFhvq9FQe+79WGXYT6rh1B6yerfdvcKKKK6zuCiiigAooooAKKKKACiiigAooooAKKKKACiiigAooooAKKKKACiiigAooooAKKKKACiiigAooooAKKKKACiiigAooooAKKKKACiiigAooooAKKKKACiiigAooooAKKKKACiiigAooooAKKKKACiiigAooooAKKKKACiiigAooooAKKKKACiiigAooooAKKKKACiiigAooooAKKKKAOK8XWcmn6jb61afK24ByOzDofxHH4e9dZYXseoWMV1F92Rc49D3FF/ZR6hYzWso+SRcZ9D2P51yfhK8k0/U7jRbo4JY7M9mHX8xz+FeT/umM/uVPwl/wTw/9xx/9yr+Ev8Ag/mdrRRRXrHuBRRRQAUUUUAFFFFABRRRQAUUUUAFFFFAGJ4N/wCRG8P/APYNtv8A0UtbdYng3/kRvD//AGDbb/0UtbdABRRRQAUUUUAFFFFABRRRQAUUUUAFFFFABRRRQAUUUUAFFFFABRRRQAUUUUAFFFFABRRRQAUUUUAFFFFABWJ4N/5Ebw//ANg22/8ARS1t1ieDf+RG8P8A/YNtv/RS0AbdFFFABRRRQAUUUUAFFFFABRRRQAUUUUAU9V1CPS9Nmu3wdg+VT/E3YVzXg3T3nmn1m5+Z5GIjY9yfvN/T86r+JLiTW9eg0e1bKRthj23dyfoP612lrbRWdrHbwrtjjUKoryYf7Xi3P7FPRecv+AeHD/bse5/YpaLzl1+4looor1j3AooooAKKKKACiiigAooooAKKKKACiiigAooooAKKKKACiiigAooooAKKKKACiiigAooooAKKKKACiiigAooooAKKKKACiiigAooooAKKKKACiiigAooooAKKKKACiiigAooooAKKKKACiiigAooooAKKKKACiiigAooooAKKKKACiiigAooooAKKKKACiiigAooooAKKKKACiiigAooooAK47xlp7wSwaxbfK8bBZCB0IPyt/T8q7Gobq2jvLWW3mXMcilWFcuMw6xFF0+vT16HHj8IsVQlS69H2a2IdK1CPVNOiuo+Nw+Zf7rdxVyuG8N3Muia9No903ySNhSeBu7H8R/Su5qcDiXXo3l8S0fqjPLcW8TQTnpJaSXmgooorsPQCiiigAooooAKKKKACiiigAooooAxPBv8AyI3h/wD7Btt/6KWtusTwb/yI3h//ALBtt/6KWtugAooooAKKKKACiiigAooooAKKKKACiiigAooooAKKKKACiiigAooooAKKKKACiiigAooooAKKKKACiiigArE8G/8AIjeH/wDsG23/AKKWtusTwb/yI3h//sG23/opaANuiiigAooooAKKKKACiiigAooooAKzdd1RdJ0qW4BHmn5Yge7H/Dr+FaVcJqsj+JvE8enwsfs0BKlh7feb+g/CuHH4iVGlaHxS0Xq/8jzc0xUqFG1P45aR9X/kX/BemMkEuqT5Ms+QhPXbnk/if5V1lNijSGJIo1CoihVUdgOgp1bYTDrD0VTXT8+pvgsLHC0I0Y9N/N9WFFFFdB1hRRRQAUUUUAFFFFABRRRQAUUUUAFFFFABRRRQAUUUUAFFFFABRRRQAUUUUAFFFFABRRRQAUUUUAFFFFABRRRQAUUUUAFFFFABRRRQAUUUUAFFFFABRRRQAUUUUAFFFFABRRRQAUUUUAFFFFABRRRQAUUUUAFFFFABRRRQAUUUUAFFFFABRRRQAUUUUAFFFFABRRRQAUUUUAFFFFABRRRQAUUUUAcn400xngj1SDIlgIDkddueD+B/n7VtaFqg1bSo5yR5o+SUejD/AB61fliSaJ4pFDI6lWU9wa4bSpH8M+J5LCdsW05ADHpz91v6H8a8mt/smLVb7E9H5Pozw6/+w41V18FTSXlLo/68zvKKKK9Y9wKKKKACiiigAooooAKKKKACiiigDE8G/wDIjeH/APsG23/opa26xPBv/IjeH/8AsG23/opa26ACiiigAooooAKKKKACiiigAooooAKKKKACiiigAooooAKKKKACiiigAooooAKKKKACiiigAooooAKKKKACsTwb/wAiN4f/AOwbbf8Aopa26xPBv/IjeH/+wbbf+iloA26KKKACiiigAooooAKKKKACiikJCgkkADkk0AY3ifVf7L0lvLbFxN8kfqPU/gP6VV8HaT9h003cq4nueQD/AAp2/Pr+VYoDeLPFRPJsoPy2A/zY/p9K74AAYAwBXk4b/asS8S/hjpH9WeHg/wDbcXLFv4Ie7H9X/X6BRRRXrHuBRRRQAUUUUAFFFFABRRRQAUUUUAFFFFABRRRQAUUUUAFFFFABRRRQAUUUUAFFFFABRRRQAUUUUAFFFFABRRRQAUUUUAFFFFABRRRQAUUUUAFFFFABRRRQAUUUUAFFFFABRRRQAUUUUAFFFFABRRRQAUUUUAFFFFABRRRQAUUUUAFFFFABRRRQAUUUUAFFFFABRRRQAUUUUAFFFFABRRRQAUUUUAFFFFABXN+MNJ+26eLuJf39tzwOWTuPw6/nXSUEAjBGQawxFCNek6ctmc+Lw0MTRlRns/6uYvhjVv7U0pfMbNxD8knv6H8R/I1tVwJ3eE/FORkWU/5bCf8A2U/55rvQQwBBBB5BFc2X15TpunU+OGj/AEfzOPKsTOpSdGr8cNH+j+YtFFFegeoFFFFABRRRQAUUUUAFFFFAGJ4N/wCRG8P/APYNtv8A0UtbdYng3/kRvD//AGDbb/0UtbdABRRRQAUUUUAFFFFABRRRQAUUUUAFFFFABRRRQAUUUUAFFFFABRRRQAUUUUAFFFFABRRRQAUUUUAFFFFABWJ4N/5Ebw//ANg22/8ARS1t1ieDf+RG8P8A/YNtv/RS0AbdFFFABRRRQAUUUUAFFFFABXM+MtW+xaeLOJsTXIwSP4U7/n0/OuinnjtoJJ5WCxxqWYnsBXEaLDL4j8Ry6ncp+4hYEKemf4V/Dqf/AK9ebmNWXKsPT+KenourPIzWvPljhaPx1NPRdWdF4Z0n+ytKUSLi4m+eX1HoPw/xrZoorto0o0aapw2R6OHoQoUo0obIKKKK1NgooooAKKKKACiiigAooooAKKKKACiiigAooooAKKKKACiiigAooooAKKKKACiiigAooooAKKKKACiiigAooooAKKKKACiiigAooooAKKKKACiiigAooooAKKKKACiiigAooooAKKKKACiiigAooooAKKKKACiiigAooooAKKKKACiiigAooooAKKKKACiiigAooooAKKKKACiiigAooooAKKKKACiiigAooooAxvE2k/2ppLhFzcRfPH7+o/EfriqXg7VvtlgbKVv39sMDPUp2/Lp+VdNXCa1DJ4c8SRanbKfs8xyyjpn+Jfx6/wD6q8nGp4atHFx22l6dH8jw8wTwmIjjo7fDP06P5Hd0VHBPHcwRzxMGjkUMpHcGpK9VNNXR7aaaugooopjCiiigAooooAKKKKAMTwb/AMiN4f8A+wbbf+ilrbrE8G/8iN4f/wCwbbf+ilrboAKKKKACiiigAooooAKKKKACiiigAooooAKKKKACiiigAooooAKKKKACiiigAooooAKKKKACiiigAooooAKxPBv/ACI3h/8A7Btt/wCilrbrE8G/8iN4f/7Btt/6KWgDbooooAKKKKACiiigAooqpqd/HpmnzXcnRBwP7x7CpnNQi5S2RE5xpxc5OyRzPjLUnlki0a1y0kjKZAvU5+6v9fyrotH01NK0yK1XBYDLsP4mPU/59K5rwjp8t9eza3eEsxYiMkdWPU/QdB/9au0rzcBCVacsXPeWi8o/8E8jLISrzlj6i1lpFdo/8H+twooor1D2gooooAKKKKACiiigAooooAKKKKACiiigAooooAKKKKACiiigAooooAKKKKACiiigAooooAKKKKACiiigAooooAKKKKACiiigAooooAKKKKACiiigAooooAKKKKACiiigAooooAKKKKACiiigAooooAKKKKACiiigAooooAKKKKACiiigAooooAKKKKACiiigAooooAKKKKACiiigAooooAKKKKACiiigAooooAKKKKACqOsaamq6ZLatgMRlG/usOhq9RUThGpFwlsyKlONWDhNXT0OP8Hak8MkujXWVkjJMYPb+8v8AX867CuL8XWEtlfQ63afKwYeYR2YdD+PSup0zUI9T0+G7jx84+Zc/dbuK87L5ypylhKm8dvOPT7jycrqSoylgar1ht5x6fdsW6KKK9Q9kKKKKACiiigAooooAxPBv/IjeH/8AsG23/opa26xPBv8AyI3h/wD7Btt/6KWtugAooooAKKKKACiiigAooooAKKKKACiiigAooooAKKKKACiiigAooooAKKKKACiiigAooooAKKKKACiiigArE8G/8iN4f/7Btt/6KWtusTwb/wAiN4f/AOwbbf8AopaANuiiigAooooAKKKKACuF8QXMmv69DpFo37qJsM3Ubu5/AcfnXQ+JdX/snS2ZD/pEuUi9vU/h/PFUfB2kG0szfzr+/uB8ueoT/wCv1/KvJxreJqrCR23l6dvmeJmEni68cBDbefp0XzOhtLWKytYraFcRxrtUVNRRXqpKKstj2oxUUox2QUUUUxhRRRQAUUUUAFFFFABRRRQAUUUUAFFFFABRRRQAUUUUAFFFFABRRRQAUUUUAFFFFABRRRQAUUUUAFFFFABRRRQAUUUUAFFFFABRRRQAUUUUAFFFFABRRRQAUUUUAFFFFABRRRQAUUUUAFFFFABRRRQAUUUUAFFFFABRRRQAUUUUAFFFFABRRRQAUUUUAFFFFABRRRQAUUUUAFFFFABRRRQAUUUUAFFFFABRRRQAUUUUAFFFFAEN1bRXlrLbTLujkUqwri9AuZfD+vzaTdt+6lYBWPTd/CR9R/Su6rmPGWkfa7IX0K/v7cfNjqU/+t1/OvNzGlJJYml8UPxXVHkZrQmlHF0V79PX1XVHT0VjeG9X/tbTFZzm4iwkvv6H8f8AGtmu6jVjWpqpDZno0K8K9KNWGzCiiitDYKKKKACiiigDE8G/8iN4f/7Btt/6KWtusTwb/wAiN4f/AOwbbf8Aopa26ACiiigAooooAKKKKACiiigAooooAKKKKACiiigAooooAKKKKACiiigAooooAKKKKACiiigAooooAKKKKACsTwb/AMiN4f8A+wbbf+ilrbrE8G/8iN4f/wCwbbf+iloA26KKKACiiigApHdY0Z3YKqjJJ6AUtcn4y1ZkiTSrbLTT48wLyQueF+pP6fWufFYiOHpOpLp+LOXG4qOFoSqy6beb6IzYlbxd4nZ23Cxg7f7APA+pP+eK74AAYAwBWXoGlLpGlpAQPOb55WHdvT8OlalYYDDypQc6nxy1f+XyObLMLKjTdSr/ABJ6y/y+QUUUV3nphRRRQAUUUUAFFFFABRRRQAUUUUAFFFFABRRRQAUUUUAFFFFABRRRQAUUUUAFFFFABRRRQAUUUUAFFFFABRRRQAUUUUAFFFFABRRRQAUUUUAFFFFABRRRQAUUUUAFFFFABRRRQAUUUUAFFFFABRRRQAUUUUAFFFFABRRRQAUUUUAFFFFABRRRQAUUUUAFFFFABRRRQAUUUUAFFFFABRRRQAUUUUAFFFFABRRRQAUUUUAFFFFABRRRQAUEAjBGQaKKAOBlV/CXidZFU/Yp+w/uHqPqD/T1rvEdZEV0YMrAEEdxWbr+krq+mPCMCZPniP8Aten49Kx/Buqs8T6VckrNBnyw3Bxnlfw/z0ryKH+x4l0H8E9Y+T6o8LDf7Bi3hn/DnrHyfVf5HWUUUV657oUUUUAFFFFAGJ4N/wCRG8P/APYNtv8A0UtbdYng3/kRvD//AGDbb/0UtbdABRRRQAUUUUAFFFFABRRRQAUUUUAFFFFABRRRQAUUUUAFFFFABRRRQAUUUUAFFFFABRRRQAUUUUAFFFFABWJ4N/5Ebw//ANg22/8ARS1t1ieDf+RG8P8A/YNtv/RS0AbdFFFABRRRQBV1K/i0ywlu5eVQcLn7x7CuT8LWEuqajNrd6N2HPl56F/X6Dt/9aotbuZfEevxaVaN/o8TYLDkZ/ib6DoP/AK9dra20Vnax20C7Y412qK8iP+24nm/5d09vOX/APCh/woYzn/5d0np5y7/L+tyaiiivXPdCiiigAooooAKKKKACiiigAooooAKKKKACiiigAooooAKKKKACiiigAooooAKKKKACiiigAooooAKKKKACiiigAooooAKKKKACiiigAooooAKKKKACiiigAooooAKKKKACiiigAooooAKKKKACiiigAooooAKKKKACiiigAooooAKKKKACiiigAooooAKKKKACiiigAooooAKKKKACiiigAooooAKKKKACiiigAooooAKKKKACiiigAooooAKKKKACuJ8U2EumajFrVl8uXBkx2b1Pse//ANeu2qG6tory1ltpl3RyKVYVyYzDLEUnHZ7p9mcWYYNYqi4LSS1T7NbEWm38Wp2EV1CeHHI7qe4NW64TRLqTw5r0ul3bYglbAc8DP8LfQ9D/APWru6WBxLr0/e0ktGvMjLcY8TR9/ScdJLzX+YUUUV2HoBRRRQBieDf+RG8P/wDYNtv/AEUtbdYng3/kRvD/AP2Dbb/0UtbdABRRRQAUUUUAFFFFABRRRQAUUUUAFFFFABRRRQAUUUUAFFFFABRRRQAUUUUAFFFFABRRRQAUUUUAFFFFABWJ4N/5Ebw//wBg22/9FLW3WJ4N/wCRG8P/APYNtv8A0UtAG3RRRQAVgeK9Z/szTvJhYC5nBVfVV7t/Qf8A1q2bq5is7WS4mbbHGu5jXE6PbS+Jtfk1O7XNtEwwp6cfdX+p/wDr152YV5JKhS+Of4Lqzyc0xM0o4Wh/Enp6Lqza8J6L/Zth9pmXFzcAEg9VXsP6n/61dFRRXXh6EKFNU4bI7sLhoYajGjT2QUUUVsdAUUUUAFFFFABRRRQAUUUUAFFFFABRRRQAUUUUAFFFFABRRRQAUUUUAFFFFABRRRQAUUUUAFFFFABRRRQAUUUUAFFFFABRRRQAUUUUAFFFFABRRRQAUUUUAFFFFABRRRQAUUUUAFFFFABRRRQAUUUUAFFFFABRRRQAUUUUAFFFFABRRRQAUUUUAFFFFABRRRQAUUUUAFFFFABRRRQAUUUUAFFFFABRRRQAUUUUAFFFFABRRRQAUUUUAFFFFABRRRQAUUUUAc94s0b+0bD7TCubm3BIx1Ze4/rS+FNZ/tLTvJlbNzbgK2Tyy9j/AEP/ANeugrg9YtZfDOvR6naL/o0rHKjgAnqv0PUf/WrycWnhayxcfhekv0fyPDx0XgsQsdD4XpNeXR/I7yiobW5ivLWO4gbdHIMqamr1U1JXWx7cZKSUlswooopjMTwb/wAiN4f/AOwbbf8Aopa26xPBv/IjeH/+wbbf+ilrboAKKKKACiiigAooooAKKKKACiiigAooooAKKKKACiiigAooooAKKKKACiiigAooooAKKKKACiiigAooooAKxPBv/IjeH/8AsG23/opa26xPBv8AyI3h/wD7Btt/6KWgDboorD8T61/ZOn7Ym/0qbKx/7Pq34fzrKtWhRpupPZGOIrww9KVWo9EYniW/m1jVItFsTuVXw5B4Le/sv+eldbp1hFplhFaQ/dQct3Y9yaw/CGi/YrT7dcL/AKTOMrnqqf4nr+VdNXFgKM5N4qr8UvwXRHnZZQnJyxlde/PZdo9F/mFFFFekeuFFFFABRRRQAUUUUAFFFFABRRRQAUUUUAFFFFABRRRQAUUUUAFFFFABRRRQAUUUUAFFFFABRRRQAUUUUAFFFFABRRRQAUUUUAFFFFABRRRQAUUUUAFFFFABRRRQAUUUUAFFFFABRRRQAUUUUAFFFFABRRRQAUUUUAFFFFABRRRQAUUUUAFFFFABRRRQAUUUUAFFFFABRRRQAUUUUAFFFFABRRRQAUUUUAFFFFABRRRQAUUUUAFFFFABRRRQAUUUUAFFFFABRRRQAVV1Gwi1KxltZh8rjg/3T2NWqKmcVOLjLZkzhGcXCSumcR4Zv5dH1SXRb07VL4QnoG/wNdvXM+L9FN5ai/t1P2iAfNjqydfzHWrfhnWhq2nhZWH2qEYkH94dmry8HJ4aq8JUem8X3Xb5HjZfOWErPAVXpvB9129UbdFFFese2Yng3/kRvD//AGDbb/0UtbdYng3/AJEbw/8A9g22/wDRS1t0AFFFFABRRRQAUUUUAFFFFABRRRQAUUUUAFFFFABRRRQAUUUUAFFFFABRRRQAUUUUAFFFFABRRRQAUUUUAFYng3/kRvD/AP2Dbb/0UtbdYng3/kRvD/8A2Dbb/wBFLQBq3VzFZ2slzO22ONdzGuJ0q2l8Ua9JqN2v+ixMMIen+yn9T/8AXp/iC/m17Vo9HsDmJXwzDozDqfoP8fauv06wi02xitYR8qDk45Y9ya8d/wC3Yjl/5dwf3y/yR4Mv+FLFcv8Ay6pvX+9L/Jf1uWqKKK9g94KKKKACiiigAooooAKKKKACiiigAooooAKKKKACiiigAooooAKKKKACiiigAooooAKKKKACiiigAooooAKKKKACiiigAooooAKKKKACiiigAooooAKKKKACiiigAooooAKKKKACiiigAooooAKKKKACiiigAooooAKKKKACiiigAooooAKKKKACiiigAooooAKKKKACiiigAooooAKKKKACiiigAooooAKKKKACiiigAooooAKKKKACiiigAooooAKKKKACiiigAooooAKKKKADrXB6tbTeF9dTUbNf9FlblBwOeqn+Y/8ArV3lVdQsIdSspLWcfI44I6qexFceNwrr0/d0ktU/M8/McG8TS9x2nHWL8/8AgklrcxXlrHcQNujkGVNTVw3h6/m0HVpdHvztid/lY9A3Yj2PH+c13NPBYpYind6SWjXZlZfjFiqXM1aS0kuzMTwb/wAiN4f/AOwbbf8Aopa26xPBv/IjeH/+wbbf+ilrbrrO4KKKKACiiigAooooAKKKKACiiigAooooAKKKKACiiigAooooAKKKKACiiigAooooAKKKKACiiigAooooAK4K31z+zfh54ftbdv8AS5tMt8Y/gXy15+vpXcXMrw20kkcTSuqkrGvVj6VwfgnQvtCW15MTJa2saRW+853hFCqfoAB+P0rz8dVqaYej8UuvZdWeVmVaq+XC0Pin17Lq/wCv8jofCuh/2XZefOmLuYfNnqi9l/x/+tXQUUV1UKEKFNU4bI7sNhoYalGlT2QUUUVsbhRRRQAUUUUAFFFFABRRRQAUUUUAFFFFABRRRQAUUUUAFFFFABRRRQAUUUUAFFFFABRRRQAUUUUAFFFFABRRRQAUUUUAFFFFABRRRQAUUUUAFFFFABRRRQAUUUUAFFFFABRRRQAUUUUAFFFFABRRRQAUUUUAFFFFABRRRQAUUUUAFFFFABRRRQAUUUUAFFFFABRRRQAUUUUAFFFFABRRRQAUUUUAFFFFABRRRQAUUUUAFFFFABRRRQAUUUUAFFFFABRRRQAUUUUAFFFFABRRRQAUUUUAc94q0P8AtOz+0QL/AKXAMrjq69x/hTfCmuf2jZ/ZLhv9KgGMnq69j9fWujrifEWmT6TqsWsacpwzjeqjox+nZs4//XXk4uEsNV+t01ptJeXf1R4mOpywlb69RV1tNd139V/XU2/Bv/IjeH/+wbbf+ilrbrI8KRrF4P0WJHEiJYQKrjowEYAI9j1rXr1U7q6Pai1JXQUUUUxhRRRQAUUUUAFFFFABRRRQAUUUUAFFFFABRRRQAUUUUAFFFFABRRRQAUUUUAFFFFABRRRQAUUUUAFYng3/AJEbw/8A9g22/wDRS1t1ieDf+RG8P/8AYNtv/RS0AbdFFFABRRRQAUUUUAFFFFABRRRQAUUUUAFFFFABRRRQAUUUUAFFFFABRRRQAUUUUAFFFFABRRRQAUUUUAFFFFABRRRQAUUUUAFFFFABRRRQAUUUUAFFFFABRRRQAUUUUAFFFFABRRRQAUUUUAFFFFABRRRQAUUUUAFFFFABRRRQAUUUUAFFFFABRRRQAUUUUAFFFFABRRRQAUUUUAFFFFABRRRQAUUUUAFFFFABRRRQAUUUUAFFFFABRRRQAUUUUAFFFFABRRRQAUUUUAFFFFABRRRQAUUUUAFFFFABRRRQBieDf+RG8P8A/YNtv/RS1t1ieDf+RG8P/wDYNtv/AEUtbdABRRRQAUUUUAFFFFABRRRQAUUUUAFFFFABRRRQAUUUUAFFFFABRRRQAUUUUAFFFFABRRRQAUUUUAFFFFABWJ4N/wCRG8P/APYNtv8A0UtbdYng3/kRvD//AGDbb/0UtAG3RRRQAUUUUAFFFFABRRRQAUUUUAFFFFABRRRQAUUUUAFFFFABRRRQAUUUUAFFFFABRRRQAUUUUAFFFFABRRRQAUUUUAFFFFABRRRQAUUUUAFFFFABRRRQAUUUUAFFFFABRRRQAUUUUAFFFFABRRRQAUUUUAFFFFABRRRQAUUUUAFFFFABRRRQAUUUUAFFFFABRRRQAUUUUAFFFFABRRRQAUUUUAFFFFABRRRQAUUUUAFFFFABRRRQAUUUUAFFFFABRRRQAUUUUAFFFFABRRRQAUUUUAFFFFABRRRQAUUUUAYng3/kRvD/AP2Dbb/0UtbdYng3/kRvD/8A2Dbb/wBFLW3QAUUUUAFFFFABRRRQAUUUUAFFFFABRRRQAUUUUAFFFFABRRRQAUUUUAFFFFABRRRQAUUUUAFFFFABRRRQAVieDf8AkRvD/wD2Dbb/ANFLW3XNaZo3iPStKs9Og1rSmhtIEgRn0qQsVVQoJxcDnAoA6WisT7L4p/6DGj/+CqX/AOSKPsvin/oMaP8A+CqX/wCSKANuisT7L4p/6DGj/wDgql/+SKPsvin/AKDGj/8Agql/+SKANuisT7L4p/6DGj/+CqX/AOSKPsvin/oMaP8A+CqX/wCSKANuisT7L4p/6DGj/wDgql/+SKPsvin/AKDGj/8Agql/+SKANuisT7L4p/6DGj/+CqX/AOSKPsvin/oMaP8A+CqX/wCSKANuisT7L4p/6DGj/wDgql/+SKPsvin/AKDGj/8Agql/+SKANuisT7L4p/6DGj/+CqX/AOSKPsvin/oMaP8A+CqX/wCSKANuisT7L4p/6DGj/wDgql/+SKPsvin/AKDGj/8Agql/+SKANuisT7L4p/6DGj/+CqX/AOSKPsvin/oMaP8A+CqX/wCSKANuisT7L4p/6DGj/wDgql/+SKPsvin/AKDGj/8Agql/+SKANuisT7L4p/6DGj/+CqX/AOSKPsvin/oMaP8A+CqX/wCSKANuisT7L4p/6DGj/wDgql/+SKPsvin/AKDGj/8Agql/+SKANuisT7L4p/6DGj/+CqX/AOSKPsvin/oMaP8A+CqX/wCSKANuisT7L4p/6DGj/wDgql/+SKPsvin/AKDGj/8Agql/+SKANuisT7L4p/6DGj/+CqX/AOSKPsvin/oMaP8A+CqX/wCSKANuisT7L4p/6DGj/wDgql/+SKPsvin/AKDGj/8Agql/+SKANuisT7L4p/6DGj/+CqX/AOSKPsvin/oMaP8A+CqX/wCSKANuisT7L4p/6DGj/wDgql/+SKPsvin/AKDGj/8Agql/+SKANuisT7L4p/6DGj/+CqX/AOSKPsvin/oMaP8A+CqX/wCSKANuisT7L4p/6DGj/wDgql/+SKPsvin/AKDGj/8Agql/+SKANuisT7L4p/6DGj/+CqX/AOSKPsvin/oMaP8A+CqX/wCSKANuisT7L4p/6DGj/wDgql/+SKPsvin/AKDGj/8Agql/+SKANuisT7L4p/6DGj/+CqX/AOSKPsvin/oMaP8A+CqX/wCSKANuisT7L4p/6DGj/wDgql/+SKPsvin/AKDGj/8Agql/+SKANuisT7L4p/6DGj/+CqX/AOSKPsvin/oMaP8A+CqX/wCSKANuisT7L4p/6DGj/wDgql/+SKPsvin/AKDGj/8Agql/+SKANuisT7L4p/6DGj/+CqX/AOSKPsvin/oMaP8A+CqX/wCSKANuisT7L4p/6DGj/wDgql/+SKPsvin/AKDGj/8Agql/+SKANuisT7L4p/6DGj/+CqX/AOSKPsvin/oMaP8A+CqX/wCSKANuisT7L4p/6DGj/wDgql/+SKPsvin/AKDGj/8Agql/+SKANuisT7L4p/6DGj/+CqX/AOSKPsvin/oMaP8A+CqX/wCSKANuisT7L4p/6DGj/wDgql/+SKPsvin/AKDGj/8Agql/+SKANuisT7L4p/6DGj/+CqX/AOSKPsvin/oMaP8A+CqX/wCSKANuisT7L4p/6DGj/wDgql/+SKPsvin/AKDGj/8Agql/+SKANuisT7L4p/6DGj/+CqX/AOSKPsvin/oMaP8A+CqX/wCSKANuisT7L4p/6DGj/wDgql/+SKPsvin/AKDGj/8Agql/+SKANuisT7L4p/6DGj/+CqX/AOSKPsvin/oMaP8A+CqX/wCSKANuisT7L4p/6DGj/wDgql/+SKPsvin/AKDGj/8Agql/+SKANuisT7L4p/6DGj/+CqX/AOSKPsvin/oMaP8A+CqX/wCSKANuisT7L4p/6DGj/wDgql/+SKPsvin/AKDGj/8Agql/+SKANuisT7L4p/6DGj/+CqX/AOSKPsvin/oMaP8A+CqX/wCSKANuisT7L4p/6DGj/wDgql/+SKPsvin/AKDGj/8Agql/+SKANuisT7L4p/6DGj/+CqX/AOSKPsvin/oMaP8A+CqX/wCSKANuisT7L4p/6DGj/wDgql/+SKPsvin/AKDGj/8Agql/+SKANuisT7L4p/6DGj/+CqX/AOSKPsvin/oMaP8A+CqX/wCSKANuisT7L4p/6DGj/wDgql/+SKPsvin/AKDGj/8Agql/+SKANuisT7L4p/6DGj/+CqX/AOSKPsvin/oMaP8A+CqX/wCSKANuisT7L4p/6DGj/wDgql/+SKPsvin/AKDGj/8Agql/+SKANuisT7L4p/6DGj/+CqX/AOSKPsvin/oMaP8A+CqX/wCSKANuisT7L4p/6DGj/wDgql/+SKPsvin/AKDGj/8Agql/+SKANuisT7L4p/6DGj/+CqX/AOSKPsvin/oMaP8A+CqX/wCSKANuisT7L4p/6DGj/wDgql/+SKPsvin/AKDGj/8Agql/+SKANuisT7L4p/6DGj/+CqX/AOSKPsvin/oMaP8A+CqX/wCSKANuisT7L4p/6DGj/wDgql/+SKPsvin/AKDGj/8Agql/+SKANuisT7L4p/6DGj/+CqX/AOSKPsvin/oMaP8A+CqX/wCSKANuisT7L4p/6DGj/wDgql/+SKPsvin/AKDGj/8Agql/+SKADwb/AMiN4f8A+wbbf+ilrbqjo2n/ANkaHp+m+b5v2O2jt/M27d+xQucZOM46Zq9QAUUUUAFFFFABRRRQAUUUUAFFFFABRRRQAUUUUAFFFFABRRRQAUUUUAFFFFABRRRQAUUUUAFFFFABRRRQAUUUUAFFFFABRRRQAUUUUAFFFFABRRRQAUUUUAFFFFABRRRQAUUUUAFFFFABRRRQAUUUUAFFFFABRRRQAUUUUAFFFFABRRRQAUUUUAFFFFABRRRQAUUUUAFFFFABRRRQAUUUUAFFFFABRRRQAUUUUAFFFFABRRRQAUUUUAFFFFABRRRQAUUUUAFFFFABRRRQAUUUUAFFFFABRRRQAUUUUAFFFFABRRRQAUUUUAFFFFABRRRQAUUUUAFFFFABRRRQAUUUUAFFFFABRRRQAUUUUAFFFFABRRRQAUUUUAFFFFABRRRQAUUUUAFFFFABRRRQAUUUUAFFFFABRRRQAUUUUAFFFFABRRRQAUUUUAFFFFABRRRQAUUUUAFFFFABRRRQAUUUUAFFFFABRRRQAUUUUAFFFFABRRRQAUUUUAFFFFABRRRQAUUUUAFFFFABRRRQAUUUUAFFFFABRRRQAUUUUAFFFFABRRRQAUUUUAFFFFABRRRQAUUUUAFFFFABRRRQAUUUUAFFFFABRRRQAUUUUAFFFFABRRRQAUUUUAFFFFABRRRQAUUUUAFFFFABRRRQAUUUUAFFFFABRRRQAUUUUAFFFFABRRRQAUUUUAFFFFABRRRQAUUUUAFFFFABRRRQAUUUUAFFFFABRRRQAUUUUAFFFFABRRRQAUUUUAFFFFABRRRQAUUUUAFFFFABRRRQAUUUUAFFFFABRRRQAUUUUAFFFFABRRRQAUUUUAFFFFABRRRQAUUUUAFFFFABRRRQAUUUUAFFFFABRRRQAUUUUAFFFFABRRRQAUUUUAFFFFABRRRQAUUUUAFFFFABRRRQAUUUUAFFFFABRRRQAUUUUAFFFFABRRRQAUUUUAFFFFABRRRQAUUUUAFFFFABRRRQAUUUUAFFFFABRRRQAUUUUAFFFFABRRRQAUUUUAFFFFABRRRQAUUUUAFFFFABRRRQAUUUUAFFFFABRRRQAUUUUAFFFFABRRRQAUUUUAFFFFABRRRQAUUUUAFFFFABRRRQAUUUUAFFFFABRRRQAUUUUAFFFFABRRRQAUUUUAFFFFABRRRQAUUUUAFFFFABRRRQAUUUUAFFFFABRRRQAUUUUAFFFFABRRRQAUUUUAFFFFABRRRQAUUUUAFFFFABRRRQAUUUUAFFFFABRRRQAUUUUAFFFFABRRRQAUUUUAFFFFABRRRQAUUUUAFFFFABRRRQAUUUUAFFFFABRRRQAUUUUAFFFFABRRRQAUUUUAFFFFABRRRQAUUUUAFFFFABRRRQAUUUUAFFFFABRRRQAUUUUAFFFFABRRRQAUUUUAFFFFABRRRQAUUUUAFFFFABRRRQAUUUUAFFFFABRRRQAUUUUAFFFFABRRRQAUUUUAFFFFABRRRQAUUUUAFFFFABRRRQAUUUUAFFFFABRRRQAUUUUAFFFFABRRRQAUUUUAFFFFABRRRQAUUUUAFFFFABRRRQAUUUUAFFFFABRRRQAUUUUAFFFFABRRRQAUUUUAFFFFABRRRQAUUUUAFFFFABRRRQAUUUUAFFFFABRRRQAUUUUAFFFFABRRRQAUUUUAFFFFABRRRQAUUUUAFFFFABRRRQAUUUUAFFFFABRRRQAUUUUAFFFFABRRRQAUUUUAFFFFABRRRQAUUUUAFFFFABRRRQAUUUUAFFFFABRRRQAUUUUAFFFFABRRRQAUUUUAFFFFABRRRQAUUUUAFFFFABRRRQAUUUUAFFFFABRRRQAUUUUAFFFFABRRRQAUUUUAFFFFABRRRQAUUUUAFFFFABRRRQAUUUUAFFFFABRRRQAUUUUAFFFFABRRRQAUUUUAFFFFABRRRQAUUUUAFFFFABRRRQAUUUUAFFFFABRRRQAUUUUAFFFFABRRRQAUUUUAFFFFABRRRQAUUUUAFFFFABRRRQAUUUUAFFFFABRRRQAUUUUAFFFFABRRRQAUUUUAFFFFABRRRQAUUUUAFFFFABRRRQAUUUUAFFFFABRRRQAUUUUAFFFFABRRRQAUUUUAFFFFABRRRQAUUUUAFFFFABRRRQAUUUUAFFFFABRRRQAUUUUAFFFFABRRRQAUUUUAFFFFABRRRQAUUUUAFFFFABRRRQAUUUUAFFFFABRRRQAUUUUAFFFFABRRRQAUUUUAFFFFABRRRQAUUUUAFFFFABRRRQAUUUUAFFFFABRRRQAUUUUAFFFFABRRRQAUUUUAFFFFABRRRQAUUUUAFFFFABRRRQAUUUUAFFFFABRRRQAUUUUAFFFFABRRRQAUUUUAFFFFABRRRQB//Z;" vertex="1" parent="1">
          <mxGeometry x="840" y="224" width="194.67" height="146" as="geometry" />
        </mxCell>
        <mxCell id="CTJLBTLDGU4M1NpmP4fn-35" value="" style="shape=image;imageAspect=0;aspect=fixed;verticalLabelPosition=bottom;verticalAlign=top;image=data:image/png,/9j/4AAQSkZJRgABAQAAAQABAAD//gAYTUFUTEFCIEhhbmRsZSBHcmFwaGljc//+AB1NQVRMQUIsIFRoZSBNYXRoV29ya3MsIEluYy7/2wBDAAgGBgcGBQgHBwcJCQgKDBQNDAsLDBkSEw8UHRofHh0aHBwgJC4nICIsIxwcKDcpLDAxNDQ0Hyc5PTgyPC4zNDL/2wBDAQkJCQwLDBgNDRgyIRwhMjIyMjIyMjIyMjIyMjIyMjIyMjIyMjIyMjIyMjIyMjIyMjIyMjIyMjIyMjIyMjIyMjL/wAARCANrBI8DASIAAhEBAxEB/8QAHwAAAQUBAQEBAQEAAAAAAAAAAAECAwQFBgcICQoL/8QAtRAAAgEDAwIEAwUFBAQAAAF9AQIDAAQRBRIhMUEGE1FhByJxFDKBkaEII0KxwRVS0fAkM2JyggkKFhcYGRolJicoKSo0NTY3ODk6Q0RFRkdISUpTVFVWV1hZWmNkZWZnaGlqc3R1dnd4eXqDhIWGh4iJipKTlJWWl5iZmqKjpKWmp6ipqrKztLW2t7i5usLDxMXGx8jJytLT1NXW19jZ2uHi4+Tl5ufo6erx8vP09fb3+Pn6/8QAHwEAAwEBAQEBAQEBAQAAAAAAAAECAwQFBgcICQoL/8QAtREAAgECBAQDBAcFBAQAAQJ3AAECAxEEBSExBhJBUQdhcRMiMoEIFEKRobHBCSMzUvAVYnLRChYkNOEl8RcYGRomJygpKjU2Nzg5OkNERUZHSElKU1RVVldYWVpjZGVmZ2hpanN0dXZ3eHl6goOEhYaHiImKkpOUlZaXmJmaoqOkpaanqKmqsrO0tba3uLm6wsPExcbHyMnK0tPU1dbX2Nna4uPk5ebn6Onq8vP09fb3+Pn6/9oADAMBAAIRAxEAPwD3+iiigAooooAKKKKACiiigAooooAKKKKACiiigAooooAKKKKACiiigAooooAKKKKACiiigAooooAKKKKACiiigAooooAKKKKACiiigAooooAKKKKACiiigAooooAKKKKACiiigAooooAKKKKACiiigAooooAKKKKACiiigAooooAKKKKACiiigAooooAKKKKACiiigAooooAKKKKACiiigAooooAKKKKACiiigAooooAKKKKACiiigAooooAKKKKACiiigAooooAKKKKACiiigAooooAKKKKACiiigAooooAKKKKACiiigAooooAKKKKACiiigAooooAKKKKACiiigAooooAKKKKACiiigAooooAKKKKACiiigAooooAKKKKACiiigAooooAKKKKACiiigAooooAKKKKACiiigAooooAKKKKACiiigAooooAKKKKACiiigAooooAKKKKACiiigAooooAKKKKACiiigAooooAKKKKACiiigAooooAKKKKACiiigAooooAKKKKACiiigAooooAKKKKACiiigAooooAKKKKACiiigAooooAKKKKACiiigAooooAKKKKACiiigAooooAKKKKACiiigAooooAKKKKACiiigAooooAKKKKACiiigAooooAKKKKACiiigAooooAKKKKACiiigAooooAKKKKACiiigAooooAKKKKACiiigAooooAKKKKACiiigAooooAKKKKACiiigAooooAKKKKACiiigAooooAKKKKACiiigAooooAKKKKACiiigAooooAKKKKACiiigAooooAKKKKACiiigAooooAKKKKACiiigAooooAKKKKACiiigAooooAKKKKACiiigAooooAKKKKACiiigAooooAKKKKACiiigAooooAKKKKACiiigAooooAKKKKACiiigAooooAKKKKACiiigAooooAKKKKACiiigAooooAKKKKACiiigAooooAKKKKACiiigAooooAKKKKACiiigAooooAKKKKACiiigAooooAKKKKACiiigAooooAKKKKACiiigAooooAKKKKACiiigAooooAKKKKACiiigAooooAKKKKACiiigAooooAKKKKACiiigAooooAKKKKACiiigAooooAKKKKACiiigAooooAKKKKACiiigAooooAKKKKACiiigAooooAKKKKACiiigAooooAKKKKACiiigAooooAKKKKACiiigAooooAKKKKACiiigAooooAKKKKACiiigAooooAKKKKACiiigAooooAKKKKACiiigAooooAKKKKACiiigAooooAKKKKACiiigAooooAKKKKACiiigAooooAKKKKACiiigAoooyM4zz6UAFFFFABRRRQAUUUUAFFFFABRRRQAUUUUAFFFFABRRRQAUUUUAFFFFABRRRQAUUUUAFFFFABRRRQAUUUUAFFFFABRRRQAUUUUAFFFFABRRRQAUUUUAFFFFABRRRQAUUUUAFFFFABRRRQAUUUUAFFFFABRRRQAUUUUAFFFFABRRRQAUUUUAFFFFABRRRQAUUUUAFFFFABRRRQAUUUUAFFFFABRRRQAUUUUAFFFFABRRRQAVyHhnQLXUPCmj3t1eaxJcXFjDLK/9sXY3OyAk4EmBye1dfWJ4N/5Ebw//wBg22/9FLQAf8Ipp3/PzrH/AIObv/47R/wimnf8/Osf+Dm7/wDjtbdFAGJ/wimnf8/Osf8Ag5u//jtH/CKad/z86x/4Obv/AOO1t0UAYn/CKad/z86x/wCDm7/+O0f8Ipp3/PzrH/g5u/8A47W3RQBif8Ipp3/PzrH/AIObv/47R/wimnf8/Osf+Dm7/wDjtbdFAGJ/wimnf8/Osf8Ag5u//jtH/CKad/z86x/4Obv/AOO1t0UAYn/CKad/z86x/wCDm7/+O0f8Ipp3/PzrH/g5u/8A47W3RQBif8Ipp3/PzrH/AIObv/47R/wimnf8/Osf+Dm7/wDjtbdFAGJ/wimnf8/Osf8Ag5u//jtH/CKad/z86x/4Obv/AOO1t0UAYn/CKad/z86x/wCDm7/+O0f8Ipp3/PzrH/g5u/8A47W3RQBif8Ipp3/PzrH/AIObv/47R/wimnf8/Osf+Dm7/wDjtbdFAGJ/wimnf8/Osf8Ag5u//jtH/CKad/z86x/4Obv/AOO1t0UAYn/CKad/z86x/wCDm7/+O0f8Ipp3/PzrH/g5u/8A47W3RQBif8Ipp3/PzrH/AIObv/47R/wimnf8/Osf+Dm7/wDjtbdFAGJ/wimnf8/Osf8Ag5u//jtH/CKad/z86x/4Obv/AOO1t0UAYn/CKad/z86x/wCDm7/+O0f8Ipp3/PzrH/g5u/8A47W3RQBif8Ipp3/PzrH/AIObv/47R/wimnf8/Osf+Dm7/wDjtbdFAGJ/wimnf8/Osf8Ag5u//jtH/CKad/z86x/4Obv/AOO1t0UAYn/CKad/z86x/wCDm7/+O0f8Ipp3/PzrH/g5u/8A47W3RQBif8Ipp3/PzrH/AIObv/47R/wimnf8/Osf+Dm7/wDjtbdFAGJ/wimnf8/Osf8Ag5u//jtH/CKad/z86x/4Obv/AOO1t0UAYn/CKad/z86x/wCDm7/+O0f8Ipp3/PzrH/g5u/8A47W3RQBif8Ipp3/PzrH/AIObv/47R/wimnf8/Osf+Dm7/wDjtbdFAGJ/wimnf8/Osf8Ag5u//jtH/CKad/z86x/4Obv/AOO1t0UAYn/CKad/z86x/wCDm7/+O0f8Ipp3/PzrH/g5u/8A47W3RQBif8Ipp3/PzrH/AIObv/47R/wimnf8/Osf+Dm7/wDjtbdFAGJ/wimnf8/Osf8Ag5u//jtH/CKad/z86x/4Obv/AOO1a1zXtL8N6XJqWr3kdraR8F36k9goHLH2HNeBat498afFnVJdD8G2s1jpY4llDbGK5+9JJ/AP9leTyPmoA7Xxh418C+EJGtpNR1rUL9SQbaz1q6cof9tvOwvPbr7V5quv/ETx1OB4U0/WLG13ZEsepXTAj0aWWTZ+QBr03wZ8CfD3h9YrvWQNX1AAEiVf3CNx0T+Lvy3X0FeqRxpFGscaKiIAqqowAB0AFAHzxH8GfiNrkYbXfFe1WyDHNezXDD8Pu/rUn/DNN1jf/wAJVH5mc/8AHkev1319C0UAfO0vwX+ImiJnQfFYZV5CRXk1uxOOw6frWNJrvxE8CT58WWGsXtkHw0z6ldKv/AZYpNg/EGvqKmyRRzRNFKivGwwysMgj0IoA8l8IeOfAnix0tv7R1nTb9sAW95rV0oc+iP5uG+nBPpXoP/CKad/z86x/4Obv/wCO1wXjL4D+H9f8y60YjR7484jXMDn3T+H6j8jXFaL4+8Z/CnVotF8a21zeaWxxHKx8x1UcZicnDDp8pPHtQB7l/wAIpp3/AD86x/4Obv8A+O0f8Ipp3/PzrH/g5u//AI7VvRNc03xFpUOp6VdJc2kv3XXsR1BHYj0rQoAxP+EU07/n51j/AMHN3/8AHaP+EU07/n51j/wc3f8A8drbooAxP+EU07/n51j/AMHN3/8AHaP+EU07/n51j/wc3f8A8drbooAxP+EU07/n51j/AMHN3/8AHaP+EU07/n51j/wc3f8A8drbooAxP+EU07/n51j/AMHN3/8AHaP+EU07/n51j/wc3f8A8drbooAxP+EU07/n51j/AMHN3/8AHaP+EU07/n51j/wc3f8A8drbooAxP+EU07/n51j/AMHN3/8AHaP+EU07/n51j/wc3f8A8drbooAxP+EU07/n51j/AMHN3/8AHaP+EU07/n51j/wc3f8A8drbooAxP+EU07/n51j/AMHN3/8AHaP+EU07/n51j/wc3f8A8drbooAxP+EU07/n51j/AMHN3/8AHaP+EU07/n51j/wc3f8A8drbooAxP+EU07/n51j/AMHN3/8AHaP+EU07/n51j/wc3f8A8drbooAxP+EU07/n51j/AMHN3/8AHaP+EU07/n51j/wc3f8A8drbooAxP+EU07/n51j/AMHN3/8AHaP+EU07/n51j/wc3f8A8drbooAxP+EU07/n51j/AMHN3/8AHaP+EU07/n51j/wc3f8A8drbooAxP+EU07/n51j/AMHN3/8AHaP+EU07/n51j/wc3f8A8drbooAxP+EU07/n51j/AMHN3/8AHaP+EU07/n51j/wc3f8A8drbooAxP+EU07/n51j/AMHN3/8AHaP+EU07/n51j/wc3f8A8drbooAxP+EU07/n51j/AMHN3/8AHaP+EU07/n51j/wc3f8A8drbooAxP+EU07/n51j/AMHN3/8AHaP+EU07/n51j/wc3f8A8drbooAxP+EU07/n51j/AMHN3/8AHaP+EU07/n51j/wc3f8A8drbooAxP+EU07/n51j/AMHN3/8AHaP+EU07/n51j/wc3f8A8drbooAxP+EU07/n51j/AMHN3/8AHaP+EU07/n51j/wc3f8A8drbooAxP+EU07/n51j/AMHN3/8AHaP+EU07/n51j/wc3f8A8drbooAxP+EU07/n51j/AMHN3/8AHaP+EU07/n51j/wc3f8A8drbooAxP+EU07/n51j/AMHN3/8AHaP+EU07/n51j/wc3f8A8drbooAxP+EU07/n51j/AMHN3/8AHaP+EU07/n51j/wc3f8A8drbooAx/Cc0tz4N0OeeV5ZpNPgd5HYszsY1JJJ6knvWxWJ4N/5Ebw//ANg22/8ARS1t0AFFFFABRRRQAUUUUAFFFFABRRRQAUUUUAFFFFABRRRQAUUUUAFFFFABRRRQAUUUUAFFFFABRRRQAUUUUAFYng3/AJEbw/8A9g22/wDRS1t1ieDf+RG8P/8AYNtv/RS0AbdFFFABRRRQAUUUUAFFFFABRRRQAUUUUAFFFFABRRRQAUUUUAFFFFABRRRQAUUUUAFFFFABRRRQAUUUUAFFFFABRRRQAUUUUAFFFFABRRRQAUUUUAFFFFABRRRQAUUUUAFc74z8aaT4H0VtQ1SXLNlYLdP9ZO/oo9PU9B+QL/GHi7TfBXh+bVtRfIX5YYVOGmk7Kv8AU9hk14T4V8K658Z/FD+KPFDyR6LG+1EXKiQA/wCqi9FHduuc98kADdJ0LxT8c/EJ1nWZpLHw/C5WMLnYoH8EQPVv7zn+gWvoXQtA0zw1pUWmaRaR21rHyFXqx7sx6kn1NXLS0t7C0htLSGOC3hQJHFGuFRR0AFTUAFFFFABRRRQAUUUUAFZmveH9L8TaXJp2r2cd1bPztbqp9VI5B9xWnRQB8z6voXij4F67/a+iXD3mhXDhJPMX5WGchJQOjY4DjHfp0r3fwd4y0rxtoialpcvIws8DH54Hx91h/I9DW3d2ltf2ktrdwRz28qlZIpVDK4PYg9a+dPFfhfWvgt4nTxR4XkeTQ5n2SQuSwjyf9VJ6qf4W6joecFgD6Rorn/B/jDS/Guhx6npkn+zNAx+eF+6sP5HvXQUAFFFFABRRRQAUUUUAFFFFABRRRQAUUUUAFFFFABRRRQAUUUUAFFFFABRRRQAUUUUAFFFFABRRRQAUUUUAFFFFABRRRQAUUUUAFFFFABRRRQAUUUUAFFFFABRRRQAUUUUAYng3/kRvD/8A2Dbb/wBFLW3WJ4N/5Ebw/wD9g22/9FLW3QAUUUUAFFFFABRRRQAUUUUAFFFFABRRRQAUUUUAFFFFABRRRQAUUUUAFFFFABRRRQAUUUUAFFFFABRRRQAVieDf+RG8P/8AYNtv/RS1t1ieDf8AkRvD/wD2Dbb/ANFLQBt0UUUAFFFFABRRRQAUUUUAFFFFABRRRQAUUUUAFFFFABRRRQAUUUUAFFFFABRRRQAUUUUAFFFFABRRRQAUUUUAFFFFABRRRQAUUUUAFFFFABRRRQAUUUUAFFFFABVDW9asPD2jXWq6lOIbS2Te7HqfQD1JOAB3Jq8zKilmICgZJJ4Ar5t8Y65qfxl8fQ+FvD0rDRLV8tMASjY4adh3AzhR3yOhbgAi0uw1f48+O31PURJZ+HrH5dikkIuc+Wp6GRurN2H/AAEV9I2VlbadZQ2dnBHBbQoEjijGFVR0AFUfDfh7T/Cug2uj6bFst4Fxk/ekb+J29STz/wDWrVoAKKKKACiiigAooooAKKKKACiiigAqC9srbUrGeyvYEntp0McsTjIZT1BqeigD5o1ax1j4E+O49S0wSz+HL59pRjkOnUxsezgZKnv7/MK+idG1iy1/SLbVNOmE1rcIHRh+oPoQeCPUVD4h8P6f4n0O50nUoRJbTrjoMoezKexHY14D4N1zUvg349n8Ka+7No11KCs2MIN3CzKPQ4AYdsd8UAfSVFIrK6hlIKkZBB4IpaACiiigAooooAKKKKACiiigAooooAKKKKACiiigAooooAKKKKACiiigAooooAKKKKACiiigAooooAKKKKACiiigAooooAKKKKACiiigAooooAKKKKACiiigAooooAxPBv8AyI3h/wD7Btt/6KWtusTwb/yI3h//ALBtt/6KWtugAooooAKKKKACiiigAooooAKKKKACiiigAooooAKKKKACiiigAooooAKKKKACiiigAooooAKKKKACiiigArE8G/8AIjeH/wDsG23/AKKWtusTwb/yI3h//sG23/opaANuiiigAooooAKKKKACiiigAooooAKKKKACiiigAooooAKKKKACiiigAooooAKKKKACiiigAooooAKKKKACiiigAooooAKKKKACiiigAooooAKKKKACiiigAoormPH3jK18D+FbjVZtr3B/d2kLZ/eykHAOOwwSfYHvigDzz45ePpbWFfBeiO76lfbVu/KyWWNvuxjH8T5GR/dP+1XY/C7wBB4E8NJHKitq10BJey5Bw3ZAf7q5/E5Pfjz/AOCPgu41bUbj4geIFM1xcSu1n5mPmck75cfXIX8Tjoa95oAKKKKACiiigAooooAKKKKACiiigAooooAKKKKACuG+KPgGHx34ZaKMKmqWgaSzlPrjlD7NgfQgGu5ooA8V+B3jqedJfBWuM0eo2G5bXzT87Kud0Z90x+WfSvaq8G+N3g660jU7b4g+H90NxBIhvPL/AIGBGyXH5K34epr1PwF4xtfHHhW31WDak/8Aq7qEf8spR1H0PUexFAHTUUUUAFFFFABRRRQAUUUUAFFFFABRRRQAUUUUAFFFFABRRRQAUUUUAFFFFABRRRQAUUUUAFFFFABRRRQAUUUUAFFFFABRRRQAUUUUAFFFFABRRRQAUUUUAFFFFAGJ4N/5Ebw//wBg22/9FLW3WJ4N/wCRG8P/APYNtv8A0UtbdABRRRQAUUUUAFFFFABRRRQAUUUUAFFFFABRRRQAUUUUAFFFFABRRRQAUUUUAFFFFABRRRQAUUUUAFFFFABWJ4N/5Ebw/wD9g22/9FLW3WJ4N/5Ebw//ANg22/8ARS0AbdFFFABRRRQAUUUUAFFFFABRRRQAUUUUAFFFFABRRRQAUUUUAFFFFABRRRQAUUUUAFFFFABRRRQAUUUUAFFFFABRRRQAUUUUAFFFFABRRRQAUUUUAFFFFACMyopZiAoGSSeAK+adUuLr44fFaPTrSR08P6fuw/YRAje/+85AA9sehrt/jv45bRdDTw1p0h/tHU0/fbPvRwE4I+rnK/QN7V0vwn8DDwR4RSK4Rf7UvcT3jAcqcfLHnuFBP4lvWgDtbS0t7CzhtLWFIbeBBHFGgwEUDAA/CpqKKACiiigAooooAKKKKACiiigAooooAKKKKACiiigAooooAhu7S3v7Oa0uoUmt50McsbjIdSMEH8K+b9Lmuvgh8VpLC7dz4e1E/fbJBhJOx+P4kPB9s9MivpauD+LHgZfG3hGSO3jB1WzzNZt3Y/xJ9GH6gUAd2rK6hlIKkZBB4Ipa8f8AgR44bWdDfw1qMh/tDTFAh3k5eDoBz3U8fQj0NewUAFFFFABRRRQAUUUUAFFFFABRRRQAUUUUAFFFFABRRRQAUUUUAFFFFABRRRQAUUUUAFFFFABRRRQAUUUUAFFFFABRRRQAUUUUAFFFFABRRRQAUUUUAFFFFAGJ4N/5Ebw//wBg22/9FLW3WJ4N/wCRG8P/APYNtv8A0UtbdABRRRQAUUUUAFFFFABRRRQAUUUUAFFFFABRRRQAUUUUAFFFFABRRRQAUUUUAFFFFABRRRQAUUUUAFFFFABWJ4N/5Ebw/wD9g22/9FLW3WJ4N/5Ebw//ANg22/8ARS0AbdFFFABRRRQAUUUUAFFFFABRRRQAUUUUAFFFFABRRRQAUUUUAFFFFABRRRQAUUUUAFFFFABRRRQAUUUUAFFFFABRRRQAUUUUAFFFFABRRRQAUUUUAFUNb1i00DRbzVr59ltaxGRz3OOgHuTgD3NX68B+OPiW68Q+INP+H+iDzZWmRrkKfvSt9xD7AHce3I6bTQBT+FmkXfxH+I1/461yLdbWs26FDynnADYg9RGuD9dp7mvoqsXwl4btfCXhix0a0A228Y8xwOZJDyzn6nP4YHatqgAooooAKKKKACiiigAooooAKKKKACiiigAooooAKKKKACiiigAooooA+dPijpF18N/iPp/jnRV2213OWlQDCiX+ND7OpJ+u70Fe+aJrFpr+i2erWL77a6iEiHuM9QfcHIPuKq+K/Dlr4s8NXujXfCXEZCPjJjcfdYfQ4NeNfA/xLd+H/EF/8P8AWyY5Umc2yufuSLneg9iBuH4+tAHv1FFFABRRRQAUUUUAFFFFABRRRQAUUUUAFFFFABRRRQAUUUUAFFFFABRRRQAUUUUAFFFFABRRRQAUUUUAFFFFABRRRQAUUUUAFFFFABRRRQAUUUUAFFFFAGJ4N/5Ebw//ANg22/8ARS1t1ieDf+RG8P8A/YNtv/RS1t0AFFFFABRRRQAUUUUAFFFFABRRRQAUUUUAFFFFABRRRQAUUUUAFFFFABRRRQAUUUUAFFFFABRRRQAUUUUAFYng3/kRvD//AGDbb/0UtbdYng3/AJEbw/8A9g22/wDRS0AbdFFFABRRRQAUUUUAFFFFABRRRQAUUUUAFFFFABRRRQAUUUUAFFFFABRRRQAUUUUAFFFFABRRRQAUUUUAFFFFABRRRQAUUUUAFFFFABRRRQAUUUUAYXjLxPbeD/Ct9rVzg+QmIoyf9ZIeFX8T19Bk9q8i+A3hmfVdS1Dx7rG6a5mleO1eQcl2/wBZIPz2j6sKofFvV7zx98RtN8BaRJmC3nCykcr5xHzsR3EaZ9/v173o2k2uhaNZ6VZJstrSJYox3IA6n3PU+5oAvUUUUAFFFFABRRRQAUUUUAFFFFABRRRQAUUUUAFFFFABRRRQAUUUUAFFFFABXg3x28M3Ok6lp/j3RsxXEEqJcui/ccH93IfxG05/2RXvNUdZ0m113RrzSr1N9tdxNFIO4BHUe46j3FAFDwb4ntvF/hWx1q2wvnpiWMEHy5Bwy/n09iD3rdr52+EmrXngL4iah4E1h8RXExWFifl80D5WHoHXH47RX0TQAUUUUAFFFFABRRRQAUUUUAFFFFABRRRQAUUUUAFFFFABRRRQAUUUUAFFFFABRRRQAUUUUAFFFFABRRRQAUUUUAFFFFABRRRQAUUUUAFFFFABRRRQBieDf+RG8P8A/YNtv/RS1t1ieDf+RG8P/wDYNtv/AEUtbdABRRRQAUUUUAFFFFABRRRQAUUUUAFFFFABRRRQAUUUUAFFFFABRRRQAUUUUAFFFFABRRRQAUUUUAFFFFABWJ4N/wCRG8P/APYNtv8A0UtbdYng3/kRvD//AGDbb/0UtAG3RRRQAUUUUAFFFFABRRRQAUUUUAFFFFABRRRQAUUUUAFFFFABRRRQAUUUUAFFFFABRRRQAUUUUAFFFFABRRRQAUUUUAFFFFABRRRQAUUUUAFc1498VReDfB19rDbTMi+XbI38crcKP6n2Brpa+d/ilfXPxE+KWm+B9MkP2a0l2TOvIEhGZGP+4ox9c+tAGx8APCk3kX3jTUw73d8zRW7ydSm7Mkn/AAJhjP8Asn1r3Cq2n2Ftpem22n2cYjtraJYokHZVGBVmgAooooAKKKKACiiigAooooAKKKKACiiigAooooAKKKKACiiigAooooAKKKKACiiigDw/4/eFJvIsvGemh0u7FljuHj6hd2Uf8GOM+/tXpfgHxXF4z8G2OrqVE7L5dyi/wTLwwx2B6j2YVuahYW2qabc6feRiS2uYmilQ91YYNeAfC2/ufh18UtS8D6pKRa3kuyB24BkAzGw9N6nH12jtQB9EUUUUAFFFFABRRRQAUUUUAFFFFABRRRQAUUUUAFFFFABRRRQAUUUUAFFFFABRRRQAUUUUAFFFFABRRRQAUUUUAFFFFABRRRQAUUUUAFFFFABRRRQBieDf+RG8P/8AYNtv/RS1t1ieDf8AkRvD/wD2Dbb/ANFLW3QAUUUUAFFFFABRRRQAUUUUAFFFFABRRRQAUUUUAFFFFABRRRQAUUUUAFFFFABRRRQAUUUUAFFFFABRRRQAVieDf+RG8P8A/YNtv/RS1t1ieDf+RG8P/wDYNtv/AEUtAG3RRRQAUUUUAFFFFABRRRQAUUUUAFFFFABRRRQAUUUUAFFFFABRRRQAUUUUAFFFFABRRRQAUUUUAFFFFABRRRQAUUUUAFFFFABRRRQAUUUUAc3498UxeDvBt/q7EecieXbKf45W4UfnyfYGvM/2fPC8otL/AMY3+XuL92ht3bqVDZkf8XGP+An1rG+MGpXPjn4k6V4F0qXKW8qpKw+ZRM4yzHHUInX0+YV79pem2uj6VaabZR+Xa2sSwxLnOFUYGT3PvQBbooooAKKKKACiiigAooooAKKKKACiiigAooooAKKKKACiiigAooooAKKKKACiiigAooooAK8Q/aB8LzNaWHi/TwyXVgyxzyR8MF3ZRsj+63f39q9vqpqum22saTd6beJvtrqJopF9QRigDG8B+KYvGPg6w1hComdNlwg/glXhh+fI9iK6Svnb4Qalc+BfiRqvgbVJMJcSlIi3AMqjKsBnjemP/Ha+iaACiiigAooooAKKKKACiiigAooooAKKKKACiiigAooooAKKKKACiiigAooooAKKKKACiiigAooooAKKKKACiiigAooooAKKKKACiiigAooooAxPBv8AyI3h/wD7Btt/6KWtusTwb/yI3h//ALBtt/6KWtugAooooAKKKKACiiigAooooAKKKKACiiigAooooAKKKKACiiigAooooAKKKKACiiigAooooAKKKKACiiigArE8G/8AIjeH/wDsG23/AKKWtusTwb/yI3h//sG23/opaANuiiigAooooAKKKKACiiigAooooAKKKKACiiigAooooAKKKKACiiigAooooAKKKKACiiigAooooAKKKKACiiigAooooAKKKKACiiigArE8X+JLfwl4Vv8AWrjBFvGTGhP+skPCL+JI/DJrbr5++OetXXiPxZpHgLSm3SeajTLnAM0nCBvZVO4+ze1AFr4AeG5r251Txvqm6W6uZHigkkHLMTulk+pPGf8Aer3es7QNFtvDugWOj2Y/cWkKxKT1bHVj7k5J+taNABRRRQAUUUUAFFFFABRRRQAUUUUAFFFFABRRRQAUUUUAFFFFABRRRQAUUUUAFFFFABRRRQAUUUUAeEfH7w5PY3OmeONLLRXNtIkNxJGSCpBzE/Hocrn3WvXPCPiODxZ4V0/W7cBRcxZdB/BIOHX8GBFWtf0a38Q6BfaRdjMN3C0be2eh+oOD+FeH/AvWbrw54s1jwJqRw3mu8Q54mj4fHsyqD/wH3oA+gaKKKACiiigAooooAKKKKACiiigAooooAKKKKACiiigAooooAKKKKACiiigAooooAKKKKACiiigAooooAKKKKACiiigAooooAKKKKACiiigDE8G/8iN4f/7Btt/6KWtusTwb/wAiN4f/AOwbbf8Aopa26ACiiigAooooAKKKKACiiigAooooAKKKKACiiigAooooAKKKKACiiigAooooAKKKKACiiigAooooAKKKKACsTwb/AMiN4f8A+wbbf+ilrbrE8G/8iN4f/wCwbbf+iloA26KKKACiiigAooooAKKKKACiiigAooooAKKKKACiiigAooooAKKKKACiiigAooooAKKKKACiiigAooooAKKKKACiiigAooooAKKKKAM/XdYtvD+hX2r3jYgtIWlbnG7HRR7k4A9zXh3wP0e58UeL9Y8eaqu+RZXWE4485+WI/wB1SAP96r/7QXiSSWLTfBmnEyXV5Is08aHkjOI0/Fucf7K+tepeCPDcfhLwdpuipgvBFmZh/FIx3OfzJx7YoA6CiiigAooooAKKKKACiiigAooooAKKKKACiiigAooooAKKKKACiiigAooooAKKKKACiiigAooooAKKKKACvn7446Nc+GfF+kePNKVVfzUWbjjzk5Un2ZRtP+7719A1geNfDUXi7whqOiyYDzx5hc9ElHKH6ZAz7ZoAv6HrFr4g0Oy1aybdb3cSyp6jPUH3ByD7itCvDP2e/EkkcOp+Dr8GO5s3aeFHBDAZ2yKfo2Dj/aNe50AFFFFABRRRQAUUUUAFFFFABRRRQAUUUUAFFFFABRRRQAUUUUAFFFFABRRRQAUUUUAFFFFABRRRQAUUUUAFFFFABRRRQAUUUUAFFFFAGJ4N/wCRG8P/APYNtv8A0UtbdYng3/kRvD//AGDbb/0UtbdABRRRQAUUUUAFFFFABRRRQAUUUUAFFFFABRRRQAUUUUAFFFFABRRRQAUUUUAFFFFABRRRQAUUUUAFFFFABWJ4N/5Ebw//ANg22/8ARS1t1ieDf+RG8P8A/YNtv/RS0AbdFFFABRRRQAUUUUAFFFFABRRRQAUUUUAFFFFABRRRQAUUUUAFFFFABRRRQAUUUUAFFFFABRRRQAUUUUAFFFFABRRRQAUUUUAFRXNzDZ2s11cyLFBCjSSSN0VQMkn6AVLXknx/8U/2P4Lj0aCTF1qr7GAPIhXlj+J2j3BPpQBxvwztrj4jfGDUfGd7Ews7KQzRo5ztYjbCnvtUZ47qPWvo2uI+E/hU+EvAFjazx7L65H2q6BGCHfop/wB1do+oNdvQAUUUUAFFFFABRRRQAUUUUAFFFFABRRRQAUUUUAFFFFABRRRQAUUUUAFFFFABRRRQAUUUUAFFFFABRRRQAUUUUAfOfxMtpvhz8YNN8YWUbfZL1/OkUHAZx8sq/ipB+pPpX0PbXMN5aw3VtIssEyLJHIvRlIyCPqDXHfFfwr/wlvgK+tYo995bD7VagLli6g/KP94ZH41zXwB8VnWfBz6NcSFrrSmCLuPJhbJX8sEewxQB63RRRQAUUUUAFFFFABRRRQAUUUUAFFFFABRRRQAUUUUAFFFFABRRRQAUUUUAFFFFABRRRQAUUUUAFFFFABRRRQAUUUUAFFFFABRRRQBieDf+RG8P/wDYNtv/AEUtbdYng3/kRvD/AP2Dbb/0UtbdABRRRQAUUUUAFFFFABRRRQAUUUUAFFFFABRRRQAUUUUAFFFFABRRRQAUUUUAFFFFABRRRQAUUUUAFFFFABWJ4N/5Ebw//wBg22/9FLW3WJ4N/wCRG8P/APYNtv8A0UtAG3RRRQAUUUUAFFFFABRRRQAUUUUAFFFFABRRRQAUUUUAFFFFABRRRQAUUUUAFFFFABRRRQAUUUUAFFFFABRRRQAUUUUAFFFFABXzdbg/FX9oBpuZdG0x8gg5Uwwn5fweTnHox9K9W+Lvin/hFvh9fSxSbL28H2S2wedzfeb8F3HPrj1rD+Afhb+xPBB1aePF3qz+aMjkQrwg/H5m+jCgD1eiiigAooooAKKKKACiiigAooooAKKKKACiiigAooooAKKKKACiiigAooooAKKKKACiiigAooooAKKKKACiiigAooooAK+bbj/i1Hx+Eo2waNqbZPXasEp5+m1xn6KPWvpKvKfj14V/tzwR/asEW670ljLlRkmE4Dj6Dhv+AmgD1aiuF+Efik+Kvh/ZTzSF7y0/0S5LHksoGGP1Uqc+ua7qgAooooAKKKKACiiigAooooAKKKKACiiigAooooAKKKKACiiigAooooAKKKKACiiigAooooAKKKKACiiigAooooAKKKKACiiigDE8G/8AIjeH/wDsG23/AKKWtusTwb/yI3h//sG23/opa26ACiiigAooooAKKKKACiiigAooooAKKKKACiiigAooooAKKKKACiiigAooooAKKKKACiiigAooooAKKKKACsTwb/yI3h//ALBtt/6KWtusTwb/AMiN4f8A+wbbf+iloA26KKKACiiigAooooAKKKKACiiigAooooAKKKKACiiigAooooAKKKKACiiigAooooAKKKKACiiigAooooAKKKKACiiigAoorE8X+IofCnhTUdam2n7NETGjfxyHhF/FiKAPD/iVNL8R/jJpng+zdzZ2LCKd0P3Sfmmf0yqgLz3X3r6HggitbeK3gjWOGJAiIowFUDAA/CvD/wBnvw5NKNV8Zahl7i8doIJGPLDdulf8W2jP+y3rXulABRRRQAUUUUAFFFFABRRRQAUUUUAFFFFABRRRQAUUUUAFFFFABRRRQAUUUUAFFFFABRRRQAUUUUAFFFFABRRRQAUUUUAFR3FvFd20ttOgeKVDG6sMhlIwQfwqSigD5y+G9xJ8OfjPqfhK8bZZ30nkxFm4J5aBvclW2/Vvavo2vCv2hPDs0I0rxhYApNaSCCd0zuXndG2e2GBH1YV6z4O8RReK/CWm61ERm5hBlUDG2QcOPwYH8KANyiiigAooooAKKKKACiiigAooooAKKKKACiiigAooooAKKKKACiiigAooooAKKKKACiiigAooooAKKKKACiiigAooooAKKKKAMTwb/wAiN4f/AOwbbf8Aopa26xPBv/IjeH/+wbbf+ilrboAKKKKACiiigAooooAKKKKACiiigAooooAKKKKACiiigAooooAKKKKACiiigAooooAKKKKACiiigAooooAKxPBv/IjeH/8AsG23/opa26xPBv8AyI3h/wD7Btt/6KWgDbooooAKKKKACiiigAooooAKKKKACiiigAooooAKKKKACiiigAooooAKKKKACiiigAooooAKKKKACiiigAooooAKKKKACvA/j/r0+qaro/gjTTvmllSaZF/ikc7Ik/UnHute63t5Bp9hcXt1II7e3iaWVz0VFGSfyFfPnwktZ/HvxW1fxrqKZS1bzI1PQO4Kxr77UU/ktAHuvhrQ7fw14a07RrYKI7SBYyVGN7dWb6sxJPua1aKKACiiigAooooAKKKKACiiigAooooAKKKKACiiigAooooAKKKKACiiigAooooAKKKKACiiigAooooAKKKKACiiigAooooAKKKKAMvxJocHiTw5qGj3JxHdwtHvxnYxHDD3Bwfwrxj4Ba3NpOraz4I1P93cRyNNCh7OvyyLnv0Uj2Br3uvnf4tWtx4D+Kuk+NrBX8q5dXmCnAZ0wrpn/aTH60AfRFFQWV3DqFhb3tu2+C4iWWNvVWGQfyNT0AFFFFABRRRQAUUUUAFFFFABRRRQAUUUUAFFFFABRRRQAUUUUAFFFFABRRRQAUUUUAFFFFABRRRQAUUUUAFFFFABRRRQBieDf+RG8P8A/YNtv/RS1t1ieDf+RG8P/wDYNtv/AEUtbdABRRRQAUUUUAFFFFABRRRQAUUUUAFFFFABRRRQAUUUUAFFFFABRRRQAUUUUAFFFFABRRRQAUUUUAFFFFABWJ4N/wCRG8P/APYNtv8A0UtbdYng3/kRvD//AGDbb/0UtAG3RRRQAUUUUAFFFFABRRRQAUUUUAFFFFABRRRQAUUUUAFFFFABRRRQAUUUUAFFFFABRRRQAUUUUAFFFFABRRRQAUUUUAeRftA+KDpHg2LRbeUrc6rJtcKeRCvLe4ydo9xurqvhX4XHhPwBp9nJHsu7hftV0CMESOAcH3UYX8K8jz/wtT9oIMhaXR9LcEH+ExQn+TyH8m9q+j6ACiiigAooooAKKKKACiiigAooooAKKKKACiiigAooooAKKKKACiiigAooooAKKKKACiiigAooooAKKKKACiiigAooooAKKKKACiiigAri/ir4WHizwBqFpHEZLy3X7VahepkQHgfUFl/Gu0ooA8i/Z/8AFJ1fwdLos8m640pwqZPJickr+RBH0wK9dr5wI/4VX+0CDgQ6RqhwDnCiKU8/QLIPyFfR9ABRRRQAUUUUAFFFFABRRRQAUUUUAFFFFABRRRQAUUUUAFFFFABRRRQAUUUUAFFFFABRRRQAUUUUAFFFFABRRRQAUUUUAYng3/kRvD//AGDbb/0UtbdYng3/AJEbw/8A9g22/wDRS1t0AFFFFABRRRQAUUUUAFFFFABRRRQAUUUUAFFFFABRRRQAUUUUAFFFFABRRRQAUUUUAFFFFABRRRQAUUUUAFYng3/kRvD/AP2Dbb/0UtbdYng3/kRvD/8A2Dbb/wBFLQBt0UUUAFFFFABRRRQAUUUUAFFFFABRRRQAUUUUAFFFFABRRRQAUUUUAFFFFABRRRQAUUUUAFFFFABRRRQAUUUUAFcX8VfFB8J/D/ULyJit3cD7LbEHBEjgjcPdQGb/AIDXaV87fF29uPHHxU0jwRYsTFbSKkpU9HcBnb/gKY+nzUAdZ+z/AOFf7H8HS63OhFzqzhl3DlYUJC/mSx9xtr12oLKzg0+wt7K1jEdvbxLFEg6KijAH5Cp6ACiiigAooooAKKKKACiiigAooooAKKKKACiiigAooooAKKKKACiiigAooooAKKKKACiiigAooooAKKKKACiiigAooooAKKKKACiiigAooooA8j+P/hU6x4Oj1q3j3XWlPucjqYW4b8jtP0BrqPhX4pHizwDp907Zu7dfs1yM870GN3/AhhvxPpXW31lb6jYXFjdxiW2uI2ilQ9GVhgj8jXz98IrqfwN8VNY8E3zfu7lisbMQMugLIf8AgSE8euKAPoiiiigAooooAKKKKACiiigAooooAKKKKACiiigAooooAKKKKACiiigAooooAKKKKACiiigAooooAKKKKACiiigAooooAxPBv/IjeH/+wbbf+ilrbrE8G/8AIjeH/wDsG23/AKKWtugAooooAKKKKACiiigAooooAKKKKACiiigAooooAKKKKACiiigAooooAKKKKACiiigAooooAKKKKACiiigArE8G/wDIjeH/APsG23/opa26xPBv/IjeH/8AsG23/opaANuiiigAooooAKKKKACiiigAooooAKKKKACiiigAooooAKKKKACiiigAooooAKKKKACiiigAooooAKKKKACiiigDN8Q61b+HfD1/rF1zFZwtKVzjcQOFz6k4H414p8AdEuNW1nWfG2pgyTSSNFDI38UjndK36qP+BH0q3+0N4jka10zwhZBnubyRbiZV6lQSsa/i2T/wEV6p4K8OR+E/B+maKgG63hHmsP4pD8zn/von8KAN6iiigAooooAKKKKACiiigAooooAKKKKACiiigAooooAKKKKACiiigAooooAKKKKACiiigAooooAKKKKACiiigAooooAKKKKACiiigAooooAKKKKACvAvj5os+j67ovjfTV8uWOVYppF6iVDujY/gGGf9kCvfawfGnh2PxV4Q1LRnC77iE+UzdFkHKH8GAoAteHNbg8R+G9P1i2KmO7gWTCnO1v4l/A5H4VqV4b+z14kdbXU/CF9+7ubOQzwI33sE4kX/AIC2D/wI17lQAUUUUAFFFFABRRRQAUUUUAFFFFABRRRQAUUUUAFFFFABRRRQAUUUUAFFFFABRRRQAUUUUAFFFFABRRRQAUUUUAYng3/kRvD/AP2Dbb/0UtbdYng3/kRvD/8A2Dbb/wBFLW3QAUUUUAFFFFABRRRQAUUUUAFFFFABRRRQAUUUUAFFFFABRRRQAUUUUAFFFFABRRRQAUUUUAFFFFABRRRQAVieDf8AkRvD/wD2Dbb/ANFLW3WJ4N/5Ebw//wBg22/9FLQBt0UUUAFFFFABRRRQAUUUUAFFFFABRRRQAUUUUAFFFFABRRRQAUUUUAFFFFABRRRQAUUUUAFFFFABRRRQAUjusaM7sFRRlmY4AHqaWvM/jl4p/wCEe8ATWcMm281VvsqAHBEeMyN9MfL/AMDFAHnvgOI/Ez446h4ouI2awsHFxED0BX5YFx2Py7/qp9a+jq86+CvhY+G/h9bSzxbL3Uj9rmz1Cn7g/wC+cHHYsa9FoAKKKKACiiigAooooAKKKKACiiigAooooAKKKKACiiigAooooAKKKKACiiigAooooAKKKKACiiigAooooAKKKKACiiigAooooAKKKKACiiigAooooAKKKKAPnHx5C3wy+N2n+J7VAthqD+dIijHX5Z1+pzu+re1fRkUiTRJLE4eN1DKynIIPQ1558a/DB8R/D26lhjDXemn7XEe+1Qd4H/AcnHcqKh+B3ik+IfAENpPKHvNLYWrjv5eP3ZP4fL/wA0Ael0UUUAFFFFABRRRQAUUUUAFFFFABRRRQAUUUUAFFFFABRRRQAUUUUAFFFFABRRRQAUUUUAFFFFABRRRQAUUUUAYng3/kRvD/AP2Dbb/0UtbdYng3/kRvD/8A2Dbb/wBFLW3QAUUUUAFFFFABRRRQAUUUUAFFFFABRRRQAUUUUAFFFFABRRRQAUUUUAFFFFABRRRQAUUUUAFFFFABRRRQAVieDf8AkRvD/wD2Dbb/ANFLW3WJ4N/5Ebw//wBg22/9FLQBt0UUUAFFFFABRRRQAUUUUAFFFFABRRRQAUUUUAFFFFABRRRQAUUUUAFFFFABRRRQAUUUUAFFFFABRRRQAV84eLG/4Wj8eLPQojv0vTm8mUg8FEO6Y59SfkB9lr2vx74nXwh4L1HWMr58cey3Vv4pW4XjvgnJHoDXm37PHhhrfR77xVdAtcag5ggduT5at85z/tOOf9ygD2xVVFCqAFAwABwBS0UUAFFFFABRRRQAUUUUAFFFFABRRRQAUUUUAFFFFABRRRQAUUUUAFFFFABRRRQAUUUUAFFFFABRRRQAUUUUAFFFFABRRRQAUUUUAFFFFABRRRQAUUUUAFFFFACMqupVgCpGCCOCK+cvChb4X/Hi60KdhFpepP5UZOQux/mhI+jfJn/er6OrxL9ofw002kaf4ptAEn0+QQzMowSjEbDn/Zbj/gdAHttFc14B8Tp4v8F6dq+4Gd49lyAMbZl4fjtk8j2IrpaACiiigAooooAKKKKACiiigAooooAKKKKACiiigAooooAKKKKACiiigAooooAKKKKACiiigAooooAKKKKAMTwb/wAiN4f/AOwbbf8Aopa26xPBv/IjeH/+wbbf+ilrboAKKKKACiiigAooooAKKKKACiiigAooooAKKKKACiiigAooooAKKKKACiiigAooooAKKKKACiiigAooooAKxPBv/IjeH/8AsG23/opa26xPBv8AyI3h/wD7Btt/6KWgDbooooAKKKKACiiigAooooAKKKKACiiigAooooAKKKKACiiigAooooAKKKKACiiigAooooAKKKKACiiqup6jbaRpd1qN7J5dtaxNLK3oqjJ/GgDwn466rceI/F2ieBdNYPJ5qPKOwmk+VAfTapJz6PXuWi6TbaFollpVmu23tIViT3wOp9z1Pua8H+CmnXXi74g6x451Jc+U7+Xnp50nYeypkf8AAhX0NQAUUUUAFFFFABRRRQAUUUUAFFFFABRRRQAUUUUAFFFFABRRRQAUUUUAFFFFABRRRQAUUUUAFFFFABRRRQAUUUUAFFFFABRRRQAUUUUAFFFFABRRRQAUUUUAFFFFABVHWtJt9d0S90q7GYLuFoXx1AYYyPcdR9KvUUAfP3wL1a58O+L9a8Dai+G8x3hU5H72Ph8D/aUA/Ra+ga+fPjVp1z4R8faL4601WUyyKJmXp5qAYB/3kyPopr3nTNRt9X0q01K0bdbXUKzRk9drDIz780AWqKKKACiiigAooooAKKKKACiiigAooooAKKKKACiiigAooooAKKKKACiiigAooooAKKKKACiiigAooooAxPBv/IjeH/8AsG23/opa26xPBv8AyI3h/wD7Btt/6KWtugAooooAKKKKACiiigAooooAKKKKACiiigAooooAKKKKACiiigAooooAKKKKACiiigAooooAKKKKACiiigArE8G/8iN4f/7Btt/6KWtusTwb/wAiN4f/AOwbbf8AopaANuiiigAooooAKKKKACiiigAooooAKKKKACiiigAooooAKKKKACiiigAooooAKKKKACiiigAooooAK8Y/aF8T/YvDlp4btXb7VqUgklVevkqeB/wJ8f8AfJr2ckAEk4A6k1836Ap+K3x5n1hwzaRpjiWMHkeXGcRD/gTfOR7tQB7N8OPC48IeBdO0t1xc7POuT6yvyw/DhfoorqqKKACiiigAooooAKKKKACiiigAooooAKKKKACiiigAooooAKKKKACiiigAooooAKKKKACiiigAooooAKKKKACiiigAooooAKKKKACiiigAooooAKKKKACiiigAooooAKKKKAOU+I/hj/hLvAuo6YibrkJ51t/11TlR+P3fxrhP2evE/wBt8N3fhu5dhdabIXiVzz5TnoB/stnP+8K9mr5v15P+FVfHqDV1XZpGpOZG5OBHIcS/98t82PTbQB9IUUisrqGUgqRkEHgiloAKKKKACiiigAooooAKKKKACiiigAooooAKKKKACiiigAooooAKKKKACiiigAooooAKKKKACiiigDE8G/8AIjeH/wDsG23/AKKWtusTwb/yI3h//sG23/opa26ACiiigAooooAKKKKACiiigAooooAKKKKACiiigAooooAKKKKACiiigAooooAKKKKACiiigAooooAKKKKACsTwb/yI3h//ALBtt/6KWtusTwb/AMiN4f8A+wbbf+iloA26KKKACiiigAooooAKKKKACiiigAooooAKKKKACiiigAooooAKKKKACiiigAooooAKKKKACiiigDzz4z+Kv+EZ+H10kLgXmpZs4eeQGB3sPoueexIqn8C/Co8P+A49QmTF5q5Fy5PURY/dj8iW/wCB1wHjqaT4nfG+x8LQMzadp0hgkK9Fx807Z7H5dn1UetfRcMUcEMcMKKkUahURRgKBwAKAH0UUUAFFFFABRRRQAUUUUAFFFFABRRRQAUUUUAFFFFABRRRQAUUUUAFFFFABRRRQAUUUUAFFFFABRRRQAUUUUAFFFFABRRRQAUUUUAFFFFABRRRQAUUUUAFFFFABRRRQAUUUUAFeX/HXwquv+A5NRhRftmkk3CtjkxYxIufphv8AgNeoU2WNJonilQPG6lWVhkEHqDQB5/8ABnxWPE/gC1SZ83unYtJx6hR8jfiuOfUGvQq+cvAcsvwy+Nl94VnaT+ztRcQxFu+fmhf3PJX6sfSvo2gAooooAKKKKACiiigAooooAKKKKACiiigAooooAKKKKACiiigAooooAKKKKACiiigAooooAKKKKAMTwb/yI3h//sG23/opa26xPBv/ACI3h/8A7Btt/wCilrboAKKKKACiiigAooooAKKKKACiiigAooooAKKKKACiiigAooooAKKKKACiiigAooooAKKKKACiiigAooooAKxPBv8AyI3h/wD7Btt/6KWtusTwb/yI3h//ALBtt/6KWgDbooooAKKKKACiiigAooooAKKKKACiiigAooooAKKKKACiiigAooooAKKKKACiiigAooooAK53x14mj8I+DdR1hmUSxR7bdWP3pW4QY78nJ9ga6Kvn3446vdeJvGmj+A9MYsRLG0yjp50nC59lQ7voxoA0/wBnrw1Kun6h4uvlZri/doYJHOSyBsu2fd+P+AGvb6o6LpNtoWiWWlWa7be0hWJPfA6n3PU+5q9QAUUUUAFFFFABRRRQAUUUUAFFFFABRRRQAUUUUAFFFFABRRRQAUUUUAFFFFABRRRQAUUUUAFFFFABRRRQAUUUUAFFFFABRRRQAUUUUAFFFFABRRRQAUUUUAFFFFABRRRQAUUUUAFFFFAHiP7QvhlpNN0/xZZjZc2DiGeReDsLfIc/7Ln/AMer0vwL4oj8YeDrDWF2iaRNtwi/wSrww/PkexFamt6Tba9od7pN4ube7haJ+ORkdR7g8j3FeG/A3Vrrw14x1jwJqRYMZHeEHoJY+GwP9pQD/wAB96APoGiiigAooooAKKKKACiiigAooooAKKKKACiiigAooooAKKKKACiiigAooooAKKKKACiiigAooooAxPBv/IjeH/8AsG23/opa26xPBv8AyI3h/wD7Btt/6KWtugAooooAKKKKACiiigAooooAKKKKACiiigAooooAKKKKACiiigAooooAKKKKACiiigAooooAKKKKACiiigArE8G/8iN4f/7Btt/6KWtusTwb/wAiN4f/AOwbbf8AopaANuiiigAooooAKKKKACiiigAooooAKKKKACiiigAooooAKKKKACiiigAooooAKKKKACiiigChrerW2g6He6teNi3tIWlfnk4HQe5PA9zXhnwP0m48U+M9Z8eaou5kldYSRx5z8tj/AHUIH0celaX7QnidxZWHg+xLPc3zrNcInJKBsImPdxnH+yK9O8C+GI/CHg7T9HUL5sUe64df45W5Y+/PA9gKAOiooooAKKKKACiiigAooooAKKKKACiiigAooooAKKKKACiiigAooooAKKKKACiiigAooooAKKKKACiiigAooooAKKKKACiiigAooooAKKKKACiiigAooooAKKKKACiiigAooooAKKKKACiiigAr59+OOk3Hhfxjo3jvSgscrSqsvHBmj5Un13IMH2X3r6CrnvHPhmPxf4O1HRnA8yaPdAx42yryh+mQM+xNAGloer22v6HZatZtm3u4VlTPUZHQ+4OQfpV+vEP2fPE8ps9Q8H6gxS5sHaW3RzyEJxIn/AW5/wCBn0r2+gAooooAKKKKACiiigAooooAKKKKACiiigAooooAKKKKACiiigAooooAKKKKACiiigAooooAxPBv/IjeH/8AsG23/opa26xPBv8AyI3h/wD7Btt/6KWtugAooooAKKKKACiiigAooooAKKKKACiiigAooooAKKKKACiiigAooooAKKKKACiiigAooooAKKKKACiiigArE8G/8iN4f/7Btt/6KWtusTwb/wAiN4f/AOwbbf8AopaANuiiigAooooAKKKKACiiigAooooAKKKKACiiigAooooAKKKKACiiigAooooAKKKKACo7i4itLaW5nkEcMKGSR26KoGST+FSV5L8fvFf9i+DU0W3kxd6sxRsdVhXBc/iSq+4LelAHGfDy2l+Jnxl1DxfeIfsNhIJoUYcAj5YF+oC7jjuue9fRtcN8JfCX/CI+ArO3ni2X93/pV3nqHbop9NqhRj1B9a7mgAooooAKKKKACiiigAooooAKKKKACiiigAooooAKKKKACiiigAooooAKKKKACiiigAooooAKKKKACiiigAooooAKKKKACiiigAooooAKKKKACiiigAooooAKKKKACiiigAooooAKKKKACiiigAooooA+cviHbS/DP4y6f4ts42XT79/OlWNQAT92ZPqQd31b2r6JgniureK4gkWSGVA6OpyGUjII/CuL+LPhQ+LfAV7bQR7761H2m2AGSXXqo92XI+prnPgD4rOs+Dn0a4kLXWlMEXceTC2Sv5YI9higD1uiiigAooooAKKKKACiiigAooooAKKKKACiiigAooooAKKKKACiiigAooooAKKKKACiiigDE8G/8iN4f/7Btt/6KWtusTwb/wAiN4f/AOwbbf8Aopa26ACiiigAooooAKKKKACiiigAooooAKKKKACiiigAooooAKKKKACiiigAooooAKKKKACiiigAooooAKKKKACsTwb/AMiN4f8A+wbbf+ilrbrE8G/8iN4f/wCwbbf+iloA26KKKACiiigAooooAKKKKACiiigAooooAKKKKACiiigAooooAKKKKACiiigAooooACQASTgDqTXzdpm74t/Hd71wZNF0w7l/umKM/IPT53Ocehb0r0v41eLR4Y8BXFvBJtv9UzawgdQpH7xvwU4z2LCofgf4R/4RvwNHezptvtW23MmRgrHg+Wv5Et/wM0AemUUUUAFFFFABRRRQAUUUUAFFFFABRRRQAUUUUAFFFFABRRRQAUUUUAFFFFABRRRQAUUUUAFFFFABRRRQAUUUUAFFFFABRRRQAUUUUAFFFFABRRRQAUUUUAFFFFABRRRQAUUUUAFFFFABRRRQAUUUUAFFFFABXzdqIPwi+Osd7ErR6JqZywC/KIpD86j/AHHw2B2AHevpGvM/jh4R/wCEk8DSXtvFuv8ASs3MeAMtHj94v5Dd9VFAHpasrqGUgqRkEHgilrzn4K+LR4n8BwQTS77/AEzFtOCeSv8Ayzb6FePqpr0agAooooAKKKKACiiigAooooAKKKKACiiigAooooAKKKKACiiigAooooAKKKKACiiigDE8G/8AIjeH/wDsG23/AKKWtusTwb/yI3h//sG23/opa26ACiiigAooooAKKKKACiiigAooooAKKKKACiiigAooooAKKKKACiiigAooooAKKKKACiiigAooooAKKKKACsTwb/yI3h//ALBtt/6KWtusTwb/AMiN4f8A+wbbf+iloA26KKKACiiigAooooAKKKKACiiigAooooAKKKKACiiigAooooAKKKKACiiigAoorhvi14v/AOEQ8CXc8Mm3ULz/AEW0weQzDlx/urk59dvrQB5Nq7t8XPjrDpseZNF01ir+nkxn943/AAN8KD7rX0iqqihVACgYAA4AryX4B+EDofhF9buo9t3qxDpkcrAudn/fWS3uCvpXrdABRRRQAUUUUAFFFFABRRRQAUUUUAFFFFABRRRQAUUUUAFFFFABRRRQAUUUUAFFFFABRRRQAUUUUAFFFFABRRRQAUUUUAFFFFABRRRQAUUUUAFFFFABRRRQAUUUUAFFFFABRRRQAUUUUAFFFFABRRRQAUUUUAFIyq6lWAKkYII4IpaKAPm3R5W+Efxzm02QmPRtSIQDPyiKQ/u2/wCAtlcntu9a+kq8l+PfhJta8IprdqhN5pBMjbephON/5EBvoDXQfCXxcPF3gW1llkBvrPFtcjPJKj5Wx15GOfXPpQB3VFFFABRRRQAUUUUAFFFFABRRRQAUUUUAFFFFABRRRQAUUUUAFFFFABRRRQAUUUUAYng3/kRvD/8A2Dbb/wBFLW3WJ4N/5Ebw/wD9g22/9FLW3QAUUUUAFFFFABRRRQAUUUUAFFFFABRRRQAUUUUAFFFFABRRRQAUUUUAFFFFABRRRQAUUUUAFFFFABRRRQAVieDf+RG8P/8AYNtv/RS1t1ieDf8AkRvD/wD2Dbb/ANFLQBt0UUUAFFFFABRRRQAUUUUAFFFFABRRRQAUUUUAFFFFABRRRQAUUUUAFFFFABXzh4xnf4sfGqz8OWrltK01mikdeRhSDM/4kBAfZfWvW/in4vHg3wPd3kUm2/uP9HsxnkSMD83/AAEZb6gDvXKfAHwgdI8MS+IbuPF5qv8Aqy3VYAeP++jk+4C0AeuQwx20EcEKBIo1CIi9FUDAAp9FFABRRRQAUUUUAFFFFABRRRQAUUUUAFFFFABRRRQAUUUUAFFFFABRRRQAUUUUAFFFFABRRRQAUUUUAFFFFABRRRQAUUUUAFFFFABRRRQAUUUUAFFFFABRRRQAUUUUAFFFFABRRRQAUUUUAFFFFABRRRQAUUUUAFFFFADJoYrmCSCeNZIpFKOjjIZSMEEemK+c/B08nwn+NF54aunZdJ1JxFG7njaxJhcn1BJQn3b0r6PryD4/eEDq/hiLxDaR5vNK/wBYV6tATz/3ycH2BagD1+iuL+Fvi/8A4TLwNaXsz7r63/0a7z1MigfN/wACBDfUkdq7SgAooooAKKKKACiiigAooooAKKKKACiiigAooooAKKKKACiiigAooooAKKKKAMTwb/yI3h//ALBtt/6KWtusTwb/AMiN4f8A+wbbf+ilrboAKKKKACiiigAooooAKKKKACiiigAooooAKKKKACiiigAooooAKKKKACiiigAooooAKKKKACiiigAooooAKxPBv/IjeH/+wbbf+ilrbrE8G/8AIjeH/wDsG23/AKKWgDbooooAKKKKACiiigAooooAKKKKACiiigAooooAKKKKACiiigAooooAKKK4r4p+MB4N8EXd3FIF1C4H2ezGed7D73/ARk/UAd6APJvGVzN8WPjLaeGbORjpOnOY5HQ8YU5mf06jYD7D1r6KggitbeK3gjWOGJAiIowFUDAA/CvJPgD4QOkeGJfEN3Hi81X/AFZbqsAPH/fRyfcBa9foAKKKKACiiigAooooAKKKKACiiigAooooAKKKKACiiigAooooAKKKKACiiigAooooAKKKKACiiigAooooAKKKKACiiigAooooAKKKKACiiigAooooAKKKKACiiigAooooAKKKKACiiigAooooAKKKKACiiigAooooAKKKKACo54Irq3lt541khlQo6MMhlIwQfwqSigD5w8GXEvwn+M134Zu5CNJ1J1jjd+hDEmF8+xJQ9uT6V9H15B8ffB7ax4Yi8QWcZN7pWTLtHLQHr/3yfm9hurqvhZ4wHjLwRaXcsgbULcfZ7wZ53qPvf8CGD9SR2oA7WiiigAooooAKKKKACiiigAooooAKKKKACiiigAooooAKKKKACiiigAooooAxPBv/ACI3h/8A7Btt/wCilrbrE8G/8iN4f/7Btt/6KWtugAooooAKKKKACiiigAooooAKKKKACiiigAooooAKKKKACiiigAooooAKKKKACiiigAooooAKKKKACiiigArE8G/8iN4f/wCwbbf+ilrbrE8G/wDIjeH/APsG23/opaANuiiigAooooAKKKKACiiigAooooAKKKKACiiigAooooAKKKKACiiigAr5s8UTy/F/40W2hWkhbRtNZoy69NikGaT/AIEwCA+yV6l8YfGQ8I+CJ1gl2alqANva4PK5Hzv/AMBB/Misv4FeCz4d8InV7uPbqGrbZMMMGOEfcX8clj9V9KAPUoYY7aCOCFAkUahEReiqBgAU+iigAooooAKKKKACiiigAooooAKKKKACiiigAooooAKKKKACiiigAooooAKKKKACiiigAooooAKKKKACiiigAooooAKKKKACiiigAooooAKKKKACiiigAooooAKKKKACiiigAooooAKKKKACiiigAooooAKKKKACiiigAooooAKKKKAGTQxXMEkE8ayRSKUdHGQykYII9MV84eGLiT4QfGa60G6kcaNqBCI7k4MbHMUnplTlSf8Aer6Sryr46eC/+Ei8Jf2vaRbtQ0oNJ8oJLw/xj8MbvwPrQB6rRXn3wd8Zjxd4JhW4k3ajp2La5yeWwPkf8QPzDV6DQAUUUUAFFFFABRRRQAUUUUAFFFFABRRRQAUUUUAFFFFABRRRQAUUUUAYng3/AJEbw/8A9g22/wDRS1t1ieDf+RG8P/8AYNtv/RS1t0AFFFFABRRRQAUUUUAFFFFABRRRQAUUUUAFFFFABRRRQAUUUUAFFFFABRRRQAUUUUAFFFFABRRRQAUUUUAFYng3/kRvD/8A2Dbb/wBFLW3WJ4N/5Ebw/wD9g22/9FLQBt0UUUAFFFFABRRRQAUUUUAFFFFABRRRQAUUUUAFFFFABRRRQAUjMqKWYgKBkkngClryj46+Nx4d8K/2LZy41HVVKEqcGOD+Nv8AgX3R9W9KAOBZn+NXxoVQJD4e04fh5KHr9ZG/HB/2a+lFVUUKoAUDAAHAFef/AAf8Ff8ACHeDIjcxbNU1DE91kcrx8if8BB/Nmr0GgAooooAKKKKACiiigAooooAKKKKACiiigAooooAKKKKACiiigAooooAKKKKACiiigAooooAKKKKACiiigAooooAKKKKACiiigAooooAKKKKACiiigAooooAKKKKACiiigAooooAKKKKACiiigAooooAKKKKACiiigAooooAKKKKACiiigApGVXUqwBUjBBHBFLRQB81q0nwW+M7g708PaieODt8lj+PMbfjgf7VfSasrqGUgqRkEHgiuA+L/AIJHjHwbMbaPdqdgDPa4HL4+8n4gce4FY/wJ8bDxB4VGiXcmdQ0pQi5PMkHRT/wH7v5UAesUUUUAFFFFABRRRQAUUUUAFFFFABRRRQAUUUUAFFFFABRRRQAUUUUAYng3/kRvD/8A2Dbb/wBFLW3WJ4N/5Ebw/wD9g22/9FLW3QAUUUUAFFFFABRRRQAUUUUAFFFFABRRRQAUUUUAFFFFABRRRQAUUUUAFFFFABRRRQAUUUUAFFFFABRRRQAVieDf+RG8P/8AYNtv/RS1t1ieDf8AkRvD/wD2Dbb/ANFLQBt0UUUAFFFFABRRRQAUUUUAFFFFABRRRQAUUUUAFFFFABRRRQBXv7620vT7m/vJRFbW0bSyueiqoyTXzx4Isrj4t/Fq78VanC/9k6e6vHG/QbT+5i98Y3N2POfvVtfHfxdc3dzaeA9F3S3V06NdLH95ix/dxfiSGP8AwH3r1HwJ4St/BfhK00iEKZVHmXMqj/WTEDc36AD2AoA6SiiigAooooAKKKKACiiigAooooAKKKKACiiigAooooAKKKKACiiigAooooAKKKKACiiigAooooAKKKKACiiigAooooAKKKKACiiigAooooAKKKKACiiigAooooAKKKKACiiigAooooAKKKKACiiigAooooAKKKKACiiigAooooAKKKKACiiigAooooAK+b/G9ldfCb4tWnivTomOl38jPIinCnJ/exH89wz36fdr6QrmvHnhK38aeE7vSJdqzMPMtpSP9XKPun6dj7E0Abmn39tqmm22oWcgktrmJZYnHdWGRVmvC/gR4tuLK4uvAWsgxXdq8jWqv1GDmSP8Dlh/wL2r3SgAooooAKKKKACiiigAooooAKKKKACiiigAooooAKKKKACiiigDE8G/8iN4f/7Btt/6KWtusTwb/wAiN4f/AOwbbf8Aopa26ACiiigAooooAKKKKACiiigAooooAKKKKACiiigAooooAKKKKACiiigAooooAKKKKACiiigAooooAKKKKACsTwb/AMiN4f8A+wbbf+ilrbrE8G/8iN4f/wCwbbf+iloA26KKKACiiigAooooAKKKKACiiigAooooAKKKKACiiigArB8ZeKbTwd4XvNZu8N5S7YYs4Msh+6o+p6+gBPat6vm7xzqd38XvidaeFdFmzpNk5DTKPl4/1svuB91fXt96gDV+B/hi51/W774g64xmnkmdbUuPvSH78n0AO0duvoK98qrpmm2uj6ZbadYxCK1to1iiQdlAx+J9+9WqACiiigAooooAKKKKACiiigAooooAKKKKACiiigAooooAKKKKACiiigAooooAKKKKACiiigAooooAKKKKACiiigAooooAKKKKACiiigAooooAKKKKACiiigAooooAKKKKACiiigAooooAKKKKACiiigAooooAKKKKACiiigAooooAKKKKACiiigAooooAKKKKAPAvjj4WutC1uy+IGiAxSxyILpkH3JBwkh9jwp/D1r1/wb4ptPGXhe01m0+XzV2zRZyYpB95f8PYitPVNNtNY0u502+iEtrcxmOVD3Br558D6nefCH4m3XhXWZf+JTfSALO3yrzkRzDPQH7rdhz120AfSNFFFABRRRQAUUUUAFFFFABRRRQAUUUUAFFFFABRRRQAUUUUAYng3/kRvD//AGDbb/0UtbdYng3/AJEbw/8A9g22/wDRS1t0AFFFFABRRRQAUUUUAFFFFABRRRQAUUUUAFFFFABRRRQAUUUUAFFFFABRRRQAUUUUAFFFFABRRRQAUUUUAFYng3/kRvD/AP2Dbb/0UtbdYng3/kRvD/8A2Dbb/wBFLQBt0UUUAFFFFABRRRQAUUUUAFFFFABRRRQAUUUUAFFFZ2va5ZeG9Du9X1GTy7W1jLse7Hso9ycAe5oA4D41+Pv+ET8Nf2ZYTbNX1JSqFesMXRn9ieg98kdKf8F/AX/CI+F/t99CF1fUgJJc9YouqR+3XJ9zg/dFef8Aw60S++KfxDu/G2vRk6faTBoojyjOOUiH+ygwT6nGfvGvo2gAooooAKKKKACiiigAooooAKKKKACiiigAooooAKKKKACiiigAooooAKKKKACiiigAooooAKKKKACiiigAooooAKKKKACiiigAooooAKKKKACiiigAooooAKKKKACiiigAooooAKKKKACiiigAooooAKKKKACiiigAooooAKKKKACiiigAooooAKKKKACiiigAooooAK8y+M/gH/hLvDP2+xi3avpwLxBRkzR/xR/XuPcY716bRQB5d8FfH/8AwlfhwaXfzbtX05ArFjlpohgK/uR0P4HvXqNfOXxE0W8+FnxFs/GmhR40+6lJkiH3Vc/fjPoGGSPfPoK980HW7LxHodpq+nyb7a6jDrnqvqp9wcg+4oA0aKKKACiiigAooooAKKKKACiiigAooooAKKKKACiiigDE8G/8iN4f/wCwbbf+ilrbrE8G/wDIjeH/APsG23/opa26ACiiigAooooAKKKKACiiigAooooAKKKKACiiigAooooAKKKKACiiigAooooAKKKKACiiigAooooAKKKKACsTwb/yI3h//sG23/opa26xPBv/ACI3h/8A7Btt/wCiloA26KKKACiiigAooooAKKKKACiiigAooooAKKKKACvnP4meIL34m+PbPwN4ek3WVvNiWUco8o+85I/hQZHuc9eK7b40/EU+FtGGiaXNjWb9MbkPNvEeC31bkD8T2GbHwa+HY8HaB/aOoRY1rUEBlDDmCPqI+eh6FvfA7UAd14d0Cx8MaBaaPp0ey3tk2gnq56sx9yck/WtSiigAooooAKKKKACiiigAooooAKKKKACiiigAooooAKKKKACiiigAooooAKKKKACiiigAooooAKKKKACiiigAooooAKKKKACiiigAooooAKKKKACiiigAooooAKKKKACiiigAooooAKKKKACiiigAooooAKKKKACiiigAooooAKKKKACiiigAooooAKKKKACiiigAooooAKKKKAMvxHoFl4o0C70fUE3W9ym0kdUPUMPcHBrwf4a+IL34YeO7vwR4hYpY3M4EUrZCrIeEkHba4xn04z0NfRleY/GX4enxfoA1LTox/bOnqXjCjBmTqUz68ZX3470AenUV5V8FviJ/wlOiDRdSlP8AbGnoF3P1niHAb/eHAP4Hua9VoAKKKKACiiigAooooAKKKKACiiigAooooAKKKKAMTwb/AMiN4f8A+wbbf+ilrbrE8G/8iN4f/wCwbbf+ilrboAKKKKACiiigAooooAKKKKACiiigAooooAKKKKACiiigAooooAKKKKACiiigAooooAKKKKACiiigAooooAKxPBv/ACI3h/8A7Btt/wCilrbrE8G/8iN4f/7Btt/6KWgDbooooAKKKKACiiigAooooAKKKKACiiigArA8ZeLLDwX4buNXv2B2DbDDnDTSH7qD+voAT2rYvby206ynvbyZIbaBDJLI5wFUDJJr5unl1L48/EZYITNbeG9P5zgZjjP8RGceY5GB6D12nIBp/CbwrfePPFdz4/8AE4M0SzlrZHGVklB7AnhI+AB645+U19C1XsbG20ywt7GyhWG1t41iijXoqgYAqxQAUUUUAFFFFABRRRQAUUUUAFFFFABRRRQAUUUUAFFFFABRRRQAUUUUAFFFFABRRRQAUUUUAFFFFABRRRQAUUUUAFFFFABRRRQAUUUUAFFFFABRRRQAUUUUAFFFFABRRRQAUUUUAFFFFABRRRQAUUUUAFFFFABRRRQAUUUUAFFFFABRRRQAUUUUAFFFFABRRRQAUUUUAFFFFABRRRQAUUUUAfPXxW8J3/gXxVB8QfDP7qIzB7lEHEUrHBJx/A+cEepPrXsvgzxbY+NPDVtrFl8pcbZoScmGQfeU/wBD3BBrYv7C21TT7ixvYVmtriMxyxsMhlIwa+boX1H4D/EkxSNLceHdQPXH34gevoZEz+Oe26gD6ZoqGzu7e/s4by0lWa3mQSRyKeGUjINTUAFFFFABRRRQAUUUUAFFFFABRRRQAUUUUAYng3/kRvD/AP2Dbb/0UtbdYng3/kRvD/8A2Dbb/wBFLW3QAUUUUAFFFFABRRRQAUUUUAFFFFABRRRQAUUUUAFFFFABRRRQAUUUUAFFFFABRRRQAUUUUAFFFFABRRRQAVieDf8AkRvD/wD2Dbb/ANFLW3WJ4N/5Ebw//wBg22/9FLQBt0UUUAFFFFABRRRQAUUUUAFFFFABRRXinxj+Jk1ux8G+GXkl1W5IiupIV3NGGGPKTH8ZyM46DjqeADC+J3jG++IvieDwH4TPnWvnbZ5VYFJ3GDnI/wCWaYJz3IzjgZ9m8E+D7HwT4ag0myG5x89xORzNKRyx9uwHYAVzvwo+GsPgXR/tN4qvrl2g+0yA5ES9RGp9Bxk9z7AV6JQAUUUUAFFFFABRRRQAUUUUAFFFFABRRRQAUUUUAFFFFABRRRQAUUUUAFFFFABRRRQAUUUUAFFFFABRRRQAUUUUAFFFFABRRRQAUUUUAFFFFABRRRQAUUUUAFFFFABRRRQAUUUUAFFFFABRRRQAUUUUAFFFFABRRRQAUUUUAFFFFABRRRQAUUUUAFFFFABRRRQAUUUUAFFFFABRRRQAUUUUAFFFFABXOeN/Bth448OS6Ve/I/37ecKC0MnZh7eo7iujooA+dvhf4yv/AIfeJp/AnitvJtjNsgkc5WCQ9MN/zzbg+gJzxk19E1538V/hvB440Q3NpGqa3aKTbyAAeav/ADzY+h7Hsfqa5n4OfEmWd/8AhDPErPDqtqTFbSTk7pNvBjbP8Yxx6jjqOQD2qiiigAooooAKKKKACiiigAooooAKKKKAMTwb/wAiN4f/AOwbbf8Aopa26xPBv/IjeH/+wbbf+ilrboAKKKKACiiigAooooAKKKKACiiigAooooAKKKKACiiigAooooAKKKKACiiigAooooAKKKKACiiigAooooAKxPBv/IjeH/8AsG23/opa26xPBv8AyI3h/wD7Btt/6KWgDbooooAKKKKACiiigAooooAKKK88+KPxPtPAmmG2tWjn1y4TMEB5EY/56P7eg7n2yQAUfi58UYvCFg+kaTMsniC4XAwN32VT/G3+0R90fieMA0Pg/wDC+XRAfFHiSMya3dZeKOfLPbhuSzZ/5aNnnuBx1JFZvwn+F9xc3a+NfF4knv528+2gn5OTz5smf4vQduvXGPcqACiiigAooooAKKKKACiiigAooooAKKKKACiiigAooooAKKKKACiiigAooooAKKKKACiiigAooooAKKKKACiiigAooooAKKKKACiiigAooooAKKKKACiiigAooooAKKKKACiiigAooooAKKKKACiiigAooooAKKKKACiiigAooooAKKKKACiiigAooooAKKKKACiiigAooooAKKKKACiiigAooooAKKKKACiiigArx74xfDBtaRvFOgRuut24DyxRDm4VejD/AGwAMeoGPSvYaKAPLfhH8Uk8Y2f9kas6x67bJyTwLlB1YD+8O4/Ed8epV4b8WvhpeWuof8Jv4QEkF/A3nXUNvwxI581B6/3gOvXrnPWfC34oW3jjTltL1o4NchX97EOBMB/Gn9R2+lAHo1FFFABRRRQAUUUUAFFFFABRRRQBieDf+RG8P/8AYNtv/RS1t1ieDf8AkRvD/wD2Dbb/ANFLW3QAUUUUAFFFFABRRRQAUUUUAFFFFABRRRQAUUUUAFFFFABRRRQAUUUUAFFFFABRRRQAUUUUAFFFFABRRRQAVieDf+RG8P8A/YNtv/RS1t1ieDf+RG8P/wDYNtv/AEUtAG3RRRQAUUUUAFFFFABRRXlnxR+L1r4QSTR9HK3OvOuDgbktc9C3q2DkL+J4wCAX/id8UrHwLYtaWpjudcmT9zb5ysQP8cnoPQdT7DmuK+GHwwvNc1H/AITbxt5lxPcP59vbXAyZD2kkHp02r0xjtgVP8MPhNc3F7/wl3jZJJ9QmfzobS4+YgnnzJQerei9u/PA9yoAKKKKACiiigAooooAKKKKACiiigAooooAKKKKACiiigAooooAKKKKACiiigAooooAKKKKACiiigAooooAKKKKACiiigAooooAKKKKACiiigAooooAKKKKACiiigAooooAKKKKACiiigAooooAKKKKACiiigAooooAKKKKACiiigAooooAKKKKACiiigAooooAKKKKACiiigAooooAKKKKACiiigAooooAKKKKACiiigAooooAK8J+KHwvu9Kvz408Fq8FzC3nXNrBwQRyZIwP1X8RXu1FAHnHwu+Kdn45shZXhS31yBMyRdBMB/Gn9R2+lej14b8S/hLd2uoHxf4I329/C/nzWkB2sWHV4vfqSvfnHPB3/AIXfF628XRJpWtNFaa6nyj+FLr3X0b1X8R6AA9TooooAKKKKACiiigAooooAxPBv/IjeH/8AsG23/opa26xPBv8AyI3h/wD7Btt/6KWtugAooooAKKKKACiiigAooooAKKKKACiiigAooooAKKKKACiiigAooooAKKKKACiiigAooooAKKKKACiiigArE8G/8iN4f/7Btt/6KWtusTwb/wAiN4f/AOwbbf8AopaANuiiigAooooAKCQASTgDqTVDWtb03w9pc2pardx2tpEMtI56n0A6knsBya+fvEXjvxR8XtVfw14PtJrbSmGJnZtpkT+9Kw+4n+yM5984oA6D4jfGaRrpvDPgjfdahK3kvewDfhjxtiAzub/a7ds9Rp/DD4Ox+HZY9f8AEuLrXSxkSJm3pbsf4if4n756A9Oea6H4d/C3SfAdqJxi81eRcTXjr93/AGYx/Cv6nv2A7ygAooooAKKKKACiiigAooooAKKKKACiiigAooooAKKKKACiiigAooooAKKKKACiiigAooooAKKKKACiiigAooooAKKKKACiiigAooooAKKKKACiiigAooooAKKKKACiiigAooooAKKKKACiiigAooooAKKKKACiiigAooooAKKKKACiiigAooooAKKKKACiiigAooooAKKKKACiiigAooooAKKKKACiiigAooooAKKKKACiiigAooooAKKKKACvIfif8HU8QO2u+GtlprSHzHiU7FuCOcgj7r579++OtevUUAeH/Dr4yzLdL4b8c5tL+ImNb24Hl5PZZQQAp/2uM8Z5yT7gCCAQcg9CK4T4h/C7SPHlsZmAtNXjUiK8ReW44WQfxL09x2758r8O+PfE3wj1b/hGvGFrLdaWpxDIh3FFz96JjjemP4TyOOnIIB9H0VR0jWdO17TYtQ0u7jurSUZWSM/oR1B9jzV6gAooooAKKKKAMTwb/wAiN4f/AOwbbf8Aopa26xPBv/IjeH/+wbbf+ilrboAKKKKACiiigAooooAKKKKACiiigAooooAKKKKACiiigAooooAKKKKACiiigAooooAKKKKACiiigAooooAKxPBv/IjeH/8AsG23/opa26xPBv8AyI3h/wD7Btt/6KWgDboorG8SeK9E8Jaeb3Wb+K2TBKITmSU+iL1Y8jp074FAGzXnnj34vaD4KWS1iZdR1cHH2SF+Iz/00bkL9OT04xzXm+s/FPxj8R799E8C6dc2ds2BJMmPOKnjLP8AdiX6HPH3ucV1/gP4GaVoLJqPiNo9W1M/N5bDMETfQ/fPu3Ht3oA4jSfBvjX4x6lHrXim7lsdHBzEuwrleuIYz2PHznr/ALWK9+8PeG9J8K6THpuj2iW9unXHLSN/eZurH3P8q1aKACiiigAooooAKKKKACiiigAooooAKKKKACiiigAooooAKKKKACiiigAooooAKKKKACiiigAooooAKKKKACiiigAooooAKKKKACiiigAooooAKKKKACiiigAooooAKKKKACiiigAooooAKKKKACiiigAooooAKKKKACiiigAooooAKKKKACiiigAooooAKKKKACiiigAooooAKKKKACiiigAooooAKKKKACiiigAooooAKKKKACiiigAooooAKKKKACiiigArK8Q+G9J8U6VJp2sWiXEDdM/eRv7ynqD71q0UAfNureDPGfwc1OXW/C93Je6NndMu3dhAeFmQdeD94dOfu16f4B+Luh+NY47SVl0/V8ANbSsAJG/6Zt/F9Ov1r0MgEEEZB6g15H4++Bul+ITLqPh9o9M1VmLsnIglPuB9w57jjrxQB65RXzrovxT8YfDvVF0Xx5Y3N1agbUlYAzAA/eV+kg57nPTkdK9w8N+LdD8W2Au9G1CK5XGXjBxJGfRlPI/l6ZoA2qKKKAMTwb/yI3h//sG23/opa26xPBv/ACI3h/8A7Btt/wCilrboAKKKKACiiigAooooAKKKKACiiigAooooAKKKKACiiigAooooAKKKKACiiigAooooAKKKKACiiigAooooAK47S/EujeGPhxoF5rOowWcX9m2+3zG+Zz5S8Ko5Y+wFdbcRGe2lhEjxGRCokjOGXIxkH1FfPvg34Fz+ILSx1rxXrMstvNBG8FvA5ZzFtyis7fdGMfKAeO4oAm8Q/HbV9dvTpHgPSZ2lkyq3DxeZM3XlIxkD1y2fcCpPD/wN1fxBe/2z8QNWuHnk5NtHLvkI64aQ5CgE/dXPsRXs+g+GtG8MWIs9G06Czi43bF+Zz6sx5Y+5NatAGfo2h6X4e09LDSLGGztk6JEuMn1J6sfc5NaFFFABRRRQAUUUUAFFFFABRRRQAUUUUAFFFFABRRRQAUUUUAFFFFABRRRQAUUUUAFFFFABRRRQAUUUUAFFFFABRRRQAUUUUAFFFFABRRRQAUUUUAFFFFABRRRQAUUUUAFFFFABRRRQAUUUUAFFFFABRRRQAUUUUAFFFFABRRRQAUUUUAFFFFABRRRQAUUUUAFFFFABRRRQAUUUUAFFFFABRRRQAUUUUAFFFFABRRRQAUUUUAFFFFABRRRQAUUUUAFFFFABRRRQAUUUUAFFFFABRRRQBR1fRtO17TpLDVLOG6tpBgpKoOPceh9xzXiGv/A3WfD18dY8A6tMksfzLbSS7JB14V+jemGx9TXvtFAHgmgfHTVdBvf7G8faPPFPF8rXMcWyQdeWjPDD3XHHY17NofiXRfEtr9p0bUre8jxk+W3zL/vKeR+IpNe8M6L4nsjaazp0F5Fg7TIvzJnurDlT7g143q/wBv8ATNUXUfBevy2rBxtjlcpJGCedsi4zgdiB06mgD1/wb/yI3h//ALBtt/6KWtusPwWMeBfDwyTjTLbk/wDXJa3KACiiigAooooAKKKKACiiigAooooAKKKKACiiigAooooAKKKKACiiigAooooAKKKKACiiigAooooAKKKKACsTwb/yI3h//sG23/opa26xPBv/ACI3h/8A7Btt/wCiloA26KKKACiiigAooooAKKKKACiiigAooooAKKKKACiiigAooooAKKKKACiiigAooooAKKKKACiiigAooooAKKKKACiiigAooooAKKKKACiiigAooooAKKKKACiiigAooooAKKKKACiiigAooooAKKKKACiiigAooooAKKKKACiiigAooooAKKKKACiiigAooooAKKKKACiiigAooooAKKKKACiiigAooooAKKKKACiiigAooooAKKKKACiiigAooooAKKKKACiiigAooooAKKKKACiiigAooooAKKKKACiiigDE8G/8iN4f/wCwbbf+ilrbrE8G/wDIjeH/APsG23/opa26ACiiigAooooAKKKKACiiigAooooAKKKKACiiigAooooAKKKKACiiigAooooAKKKKACiiigAooooAKKKKACsTwb/yI3h//sG23/opa265rTNG8R6VpVnp0GtaU0NpAkCM+lSFiqqFBOLgc4FAHS0VifZfFP8A0GNH/wDBVL/8kUfZfFP/AEGNH/8ABVL/APJFAG3RWJ9l8U/9BjR//BVL/wDJFH2XxT/0GNH/APBVL/8AJFAG3RWJ9l8U/wDQY0f/AMFUv/yRR9l8U/8AQY0f/wAFUv8A8kUAbdFYn2XxT/0GNH/8FUv/AMkUfZfFP/QY0f8A8FUv/wAkUAbdFYn2XxT/ANBjR/8AwVS//JFH2XxT/wBBjR//AAVS/wDyRQBt0VifZfFP/QY0f/wVS/8AyRR9l8U/9BjR/wDwVS//ACRQBt0VifZfFP8A0GNH/wDBVL/8kUfZfFP/AEGNH/8ABVL/APJFAG3RWJ9l8U/9BjR//BVL/wDJFH2XxT/0GNH/APBVL/8AJFAG3RWJ9l8U/wDQY0f/AMFUv/yRR9l8U/8AQY0f/wAFUv8A8kUAbdFYn2XxT/0GNH/8FUv/AMkUfZfFP/QY0f8A8FUv/wAkUAbdFYn2XxT/ANBjR/8AwVS//JFH2XxT/wBBjR//AAVS/wDyRQBt0VifZfFP/QY0f/wVS/8AyRR9l8U/9BjR/wDwVS//ACRQBt0VifZfFP8A0GNH/wDBVL/8kUfZfFP/AEGNH/8ABVL/APJFAG3RWJ9l8U/9BjR//BVL/wDJFH2XxT/0GNH/APBVL/8AJFAG3RWJ9l8U/wDQY0f/AMFUv/yRR9l8U/8AQY0f/wAFUv8A8kUAbdFYn2XxT/0GNH/8FUv/AMkUfZfFP/QY0f8A8FUv/wAkUAbdFYn2XxT/ANBjR/8AwVS//JFH2XxT/wBBjR//AAVS/wDyRQBt0VifZfFP/QY0f/wVS/8AyRR9l8U/9BjR/wDwVS//ACRQBt0VifZfFP8A0GNH/wDBVL/8kUfZfFP/AEGNH/8ABVL/APJFAG3RWJ9l8U/9BjR//BVL/wDJFH2XxT/0GNH/APBVL/8AJFAG3RWJ9l8U/wDQY0f/AMFUv/yRR9l8U/8AQY0f/wAFUv8A8kUAbdFYn2XxT/0GNH/8FUv/AMkUfZfFP/QY0f8A8FUv/wAkUAbdFYn2XxT/ANBjR/8AwVS//JFH2XxT/wBBjR//AAVS/wDyRQBt0VifZfFP/QY0f/wVS/8AyRR9l8U/9BjR/wDwVS//ACRQBt0VifZfFP8A0GNH/wDBVL/8kUfZfFP/AEGNH/8ABVL/APJFAG3RWJ9l8U/9BjR//BVL/wDJFH2XxT/0GNH/APBVL/8AJFAG3RWJ9l8U/wDQY0f/AMFUv/yRR9l8U/8AQY0f/wAFUv8A8kUAbdFYn2XxT/0GNH/8FUv/AMkUfZfFP/QY0f8A8FUv/wAkUAbdFYn2XxT/ANBjR/8AwVS//JFH2XxT/wBBjR//AAVS/wDyRQBt0VifZfFP/QY0f/wVS/8AyRR9l8U/9BjR/wDwVS//ACRQBt0VifZfFP8A0GNH/wDBVL/8kUfZfFP/AEGNH/8ABVL/APJFAG3RWJ9l8U/9BjR//BVL/wDJFH2XxT/0GNH/APBVL/8AJFAG3RWJ9l8U/wDQY0f/AMFUv/yRR9l8U/8AQY0f/wAFUv8A8kUAbdFYn2XxT/0GNH/8FUv/AMkUfZfFP/QY0f8A8FUv/wAkUAbdFYn2XxT/ANBjR/8AwVS//JFH2XxT/wBBjR//AAVS/wDyRQBt0VifZfFP/QY0f/wVS/8AyRR9l8U/9BjR/wDwVS//ACRQBt0VifZfFP8A0GNH/wDBVL/8kUfZfFP/AEGNH/8ABVL/APJFAG3RWJ9l8U/9BjR//BVL/wDJFH2XxT/0GNH/APBVL/8AJFAG3RWJ9l8U/wDQY0f/AMFUv/yRR9l8U/8AQY0f/wAFUv8A8kUAbdFYn2XxT/0GNH/8FUv/AMkUfZfFP/QY0f8A8FUv/wAkUAbdFYn2XxT/ANBjR/8AwVS//JFH2XxT/wBBjR//AAVS/wDyRQBt0VifZfFP/QY0f/wVS/8AyRR9l8U/9BjR/wDwVS//ACRQBt0VifZfFP8A0GNH/wDBVL/8kUfZfFP/AEGNH/8ABVL/APJFAG3RWJ9l8U/9BjR//BVL/wDJFH2XxT/0GNH/APBVL/8AJFAG3RWJ9l8U/wDQY0f/AMFUv/yRR9l8U/8AQY0f/wAFUv8A8kUAbdFYn2XxT/0GNH/8FUv/AMkUfZfFP/QY0f8A8FUv/wAkUAbdFYn2XxT/ANBjR/8AwVS//JFH2XxT/wBBjR//AAVS/wDyRQBt0VifZfFP/QY0f/wVS/8AyRR9l8U/9BjR/wDwVS//ACRQBt0VifZfFP8A0GNH/wDBVL/8kUfZfFP/AEGNH/8ABVL/APJFAG3RWJ9l8U/9BjR//BVL/wDJFH2XxT/0GNH/APBVL/8AJFAG3RWJ9l8U/wDQY0f/AMFUv/yRR9l8U/8AQY0f/wAFUv8A8kUAbdFYn2XxT/0GNH/8FUv/AMkUfZfFP/QY0f8A8FUv/wAkUAbdFYn2XxT/ANBjR/8AwVS//JFH2XxT/wBBjR//AAVS/wDyRQBt0VifZfFP/QY0f/wVS/8AyRR9l8U/9BjR/wDwVS//ACRQBt0VifZfFP8A0GNH/wDBVL/8kUfZfFP/AEGNH/8ABVL/APJFAG3RWJ9l8U/9BjR//BVL/wDJFH2XxT/0GNH/APBVL/8AJFAB4N/5Ebw//wBg22/9FLW3VHRtP/sjQ9P03zfN+x20dv5m3bv2KFzjJxnHTNXqACiiigAooooAKKKKACiiigAooooAKKKKACiiigAooooAKKKKACiiigAooooAKKKKACiiigAooooAKKKKACiiigAooooAKKKKACiiigAooooAKKKKACiiigAooooAKKKKACiiigAooooAKKKKACiiigAooooAKKKKACiiigAooooAKKKKACiiigAooooAKKKKACiiigAooooAKKKKACiiigAooooAKKKKACiiigAooooAKKKKACiiigAooooAKKKKACiiigAooooAKKKKACiiigAooooAKKKKACiiigAooooAKKKKACiiigAooooAKKKKACiiigAooooAKKKKACiiigAooooAKKKKACiiigAooooAKKKKACiiigAooooAKKKKACiiigAooooAKKKKACiiigAooooAKKKKACiiigAooooAKKKKACiiigAooooAKKKKACiiigAooooAKKKKACiiigAooooAKKKKACiiigAooooAKKKKACiiigAooooAKKKKACiiigAooooAKKKKACiiigAooooAKKKKACiiigAooooAKKKKACiiigAooooAKKKKACiiigAooooAKKKKACiiigAooooAKKKKACiiigAooooAKKKKACiiigAooooAKKKKACiiigAooooAKKKKACiiigAooooAKKKKACiiigAooooAKKKKACiiigAooooAKKKKACiiigAooooAKKKKACiiigAooooAKKKKACiiigAooooAKKKKACiiigAooooAKKKKACiiigAooooAKKKKACiiigAooooAKKKKACiiigAooooAKKKKACiiigAooooAKKKKACiiigAooooAKKKKACiiigAooooAKKKKACiiigAooooAKKKKACiiigAooooAKKKKACiiigAooooAKKKKACiiigAooooAKKKKACiiigAooooAKKKKACiiigAooooAKKKKACiiigAooooAKKKKACiiigAooooAKKKKACiiigAooooAKKKKACiiigAooooAKKKKACiiigAooooAKKKKACiiigAooooAKKKKACiiigAooooAKKKKACiiigAooooAKKKKACiiigAooooAKKKKACiiigAooooAKKKKACiiigAooooAKKKKACiiigAooooAKKKKACiiigAooooAKKKKACiiigAooooAKKKKACiiigAooooAKKKKACiiigAooooAKKKKACiiigAooooAKKKKACiiigAooooAKKKKACiiigAooooAKKKKACiiigAooooAKKKKACiiigAooooAKKKKACiiigAooooAKKKKACiiigAooooAKKKKACiiigAooooAKKKKACiiigAooooAKKKKACiiigAooooAKKKKACiiigAooooAKKKKACiiigAooooAKKKKACiiigAooooAKKKKACiiigAooooAKKKKACiiigAooooAKKKKACiiigAooooAKKKKACiiigAooooAKKKKACiiigAooooAKKKKACiiigAooooAKKKKACiiigAooooAKKKKACiiigAooooAKKKKACiiigAooooAKKKKACiiigAooooAKKKKACiiigAooooAKKKKACiiigAooooAKKKKACiiigAooooAKKKKACiiigAooooAKKKKACiiigAooooAKKKKACiiigAooooAKKKKACiiigAooooAKKKKACiiigAooooAKKKKACiiigAooooAKKKKACiiigAooooAKKKKACiiigAooooAKKKKACiiigAooooAKKKKACiiigAooooAKKKKACiiigAooooAKKKKACiiigAooooAKKKKACiiigAooooAKKKKACiiigAooooAKKKKACiiigAooooAKKKKACiiigAooooAKKKKACiiigAooooAKKKKACiiigAooooAKKKKACiiigAooooAKKKKACiiigAooooAKKKKACiiigAooooAKKKKACiiigAooooAKKKKACiiigAooooAKKKKACiiigAooooAKKKKACiiigAooooAKKKKACiiigAooooAKKKKACiiigAooooAKKKKACiiigAooooAKKKKACiiigAooooAKKKKACiiigAooooAKKKKACiiigAooooAKKKKACiiigAooooAKKKKACiiigAooooAKKKKACiiigAooooAKKKKACiiigAooooAKKKKACiiigAooooAKKKKACiiigAooooAKKKKACiiigAooooAKKKKACiiigAooooAKKKKACiiigAooooAKKKKACiiigAooooAKKKKACiiigAooooAKKKKACiiigAooooAKKKKACiiigAooooAKKKKACiiigAooooAKKKKACiiigAooooAKKKKAP/Z;" vertex="1" parent="1">
          <mxGeometry x="840" y="370" width="200.01" height="150" as="geometry" />
        </mxCell>
        <mxCell id="CTJLBTLDGU4M1NpmP4fn-39" value="&lt;span style=&quot;font-size: 14px&quot;&gt;$$\boldsymbol \Theta_q,\boldsymbol \Theta_v,\boldsymbol \Theta_k,\boldsymbol\Theta_o$$&lt;/span&gt;" style="rounded=1;whiteSpace=wrap;html=1;strokeColor=#CC99FF;" vertex="1" parent="1">
          <mxGeometry x="465" y="462.5" width="145" height="25" as="geometry" />
        </mxCell>
        <mxCell id="CTJLBTLDGU4M1NpmP4fn-41" value="&lt;span style=&quot;font-size: 14px&quot;&gt;$$\boldsymbol \Theta_1,\boldsymbol\Theta_2,\mathbf{GELU}(\cdot)$$&lt;/span&gt;" style="rounded=1;whiteSpace=wrap;html=1;strokeColor=#FF6666;" vertex="1" parent="1">
          <mxGeometry x="465" y="302.5" width="145" height="25" as="geometry" />
        </mxCell>
        <mxCell id="CTJLBTLDGU4M1NpmP4fn-59" style="edgeStyle=none;rounded=0;orthogonalLoop=1;jettySize=auto;html=1;exitX=1;exitY=0;exitDx=0;exitDy=0;entryX=0;entryY=0;entryDx=0;entryDy=0;endArrow=classicThin;endFill=1;strokeWidth=1.5;" edge="1" parent="1" source="CTJLBTLDGU4M1NpmP4fn-44" target="CTJLBTLDGU4M1NpmP4fn-58">
          <mxGeometry relative="1" as="geometry" />
        </mxCell>
        <mxCell id="CTJLBTLDGU4M1NpmP4fn-60" style="edgeStyle=none;rounded=0;orthogonalLoop=1;jettySize=auto;html=1;exitX=1;exitY=1;exitDx=0;exitDy=0;entryX=0;entryY=1;entryDx=0;entryDy=0;endArrow=classicThin;endFill=1;strokeWidth=1.5;" edge="1" parent="1" source="CTJLBTLDGU4M1NpmP4fn-44" target="CTJLBTLDGU4M1NpmP4fn-58">
          <mxGeometry relative="1" as="geometry" />
        </mxCell>
        <mxCell id="CTJLBTLDGU4M1NpmP4fn-44" value="&lt;span style=&quot;font-size: 14px&quot;&gt;Feed Forward Network&lt;/span&gt;" style="rounded=1;whiteSpace=wrap;html=1;fillColor=#fad9d5;strokeColor=#ae4132;" vertex="1" parent="1">
          <mxGeometry x="1100" y="372.5" width="190" height="30" as="geometry" />
        </mxCell>
        <mxCell id="CTJLBTLDGU4M1NpmP4fn-48" style="edgeStyle=orthogonalEdgeStyle;rounded=0;orthogonalLoop=1;jettySize=auto;html=1;exitX=0.5;exitY=0;exitDx=0;exitDy=0;entryX=0.5;entryY=1;entryDx=0;entryDy=0;endArrow=openThin;endFill=0;strokeWidth=1.5;" edge="1" parent="1" source="CTJLBTLDGU4M1NpmP4fn-45" target="CTJLBTLDGU4M1NpmP4fn-47">
          <mxGeometry relative="1" as="geometry" />
        </mxCell>
        <mxCell id="CTJLBTLDGU4M1NpmP4fn-54" style="edgeStyle=orthogonalEdgeStyle;rounded=0;orthogonalLoop=1;jettySize=auto;html=1;exitX=1;exitY=0.5;exitDx=0;exitDy=0;entryX=0;entryY=0.5;entryDx=0;entryDy=0;endArrow=none;endFill=0;strokeWidth=1.5;" edge="1" parent="1" source="CTJLBTLDGU4M1NpmP4fn-45" target="CTJLBTLDGU4M1NpmP4fn-53">
          <mxGeometry relative="1" as="geometry" />
        </mxCell>
        <mxCell id="CTJLBTLDGU4M1NpmP4fn-45" value="&lt;span style=&quot;font-size: 14px&quot;&gt;Linear 1&lt;/span&gt;" style="rounded=1;whiteSpace=wrap;html=1;fillColor=#fff2cc;strokeColor=#d6b656;" vertex="1" parent="1">
          <mxGeometry x="1333.5" y="422.5" width="115" height="30" as="geometry" />
        </mxCell>
        <mxCell id="CTJLBTLDGU4M1NpmP4fn-52" style="edgeStyle=orthogonalEdgeStyle;rounded=0;orthogonalLoop=1;jettySize=auto;html=1;exitX=0.5;exitY=0;exitDx=0;exitDy=0;endArrow=openThin;endFill=0;strokeWidth=1.5;" edge="1" parent="1" source="CTJLBTLDGU4M1NpmP4fn-46">
          <mxGeometry relative="1" as="geometry">
            <mxPoint x="1391" y="302.5" as="targetPoint" />
          </mxGeometry>
        </mxCell>
        <mxCell id="CTJLBTLDGU4M1NpmP4fn-56" style="edgeStyle=orthogonalEdgeStyle;rounded=0;orthogonalLoop=1;jettySize=auto;html=1;exitX=1;exitY=0.5;exitDx=0;exitDy=0;entryX=0;entryY=0.5;entryDx=0;entryDy=0;endArrow=none;endFill=0;strokeWidth=1.5;" edge="1" parent="1" source="CTJLBTLDGU4M1NpmP4fn-46" target="CTJLBTLDGU4M1NpmP4fn-55">
          <mxGeometry relative="1" as="geometry" />
        </mxCell>
        <mxCell id="CTJLBTLDGU4M1NpmP4fn-46" value="&lt;span style=&quot;font-size: 14px&quot;&gt;Linear 2&lt;/span&gt;" style="rounded=1;whiteSpace=wrap;html=1;fillColor=#fff2cc;strokeColor=#d6b656;" vertex="1" parent="1">
          <mxGeometry x="1333.5" y="322.5" width="115" height="30" as="geometry" />
        </mxCell>
        <mxCell id="CTJLBTLDGU4M1NpmP4fn-49" style="edgeStyle=orthogonalEdgeStyle;rounded=0;orthogonalLoop=1;jettySize=auto;html=1;exitX=0.5;exitY=0;exitDx=0;exitDy=0;entryX=0.5;entryY=1;entryDx=0;entryDy=0;endArrow=openThin;endFill=0;strokeWidth=1.5;" edge="1" parent="1" source="CTJLBTLDGU4M1NpmP4fn-47" target="CTJLBTLDGU4M1NpmP4fn-46">
          <mxGeometry relative="1" as="geometry" />
        </mxCell>
        <mxCell id="CTJLBTLDGU4M1NpmP4fn-47" value="&lt;font style=&quot;font-size: 14px&quot;&gt;GPNN&lt;/font&gt;" style="rounded=1;whiteSpace=wrap;html=1;strokeColor=#b46504;fillColor=#fad7ac;" vertex="1" parent="1">
          <mxGeometry x="1361" y="372.5" width="60" height="30" as="geometry" />
        </mxCell>
        <mxCell id="CTJLBTLDGU4M1NpmP4fn-50" value="" style="endArrow=openThin;html=1;strokeWidth=1.5;entryX=0.5;entryY=1;entryDx=0;entryDy=0;endFill=0;" edge="1" parent="1" target="CTJLBTLDGU4M1NpmP4fn-45">
          <mxGeometry width="50" height="50" relative="1" as="geometry">
            <mxPoint x="1391" y="472.5" as="sourcePoint" />
            <mxPoint x="1510" y="352.5" as="targetPoint" />
          </mxGeometry>
        </mxCell>
        <mxCell id="CTJLBTLDGU4M1NpmP4fn-53" value="$$\boldsymbol\Theta_1$$" style="rounded=1;whiteSpace=wrap;html=1;strokeColor=#FFB366;" vertex="1" parent="1">
          <mxGeometry x="1460" y="422.5" width="50" height="30" as="geometry" />
        </mxCell>
        <mxCell id="CTJLBTLDGU4M1NpmP4fn-55" value="$$\boldsymbol\Theta_2$$" style="rounded=1;whiteSpace=wrap;html=1;strokeColor=#FFB366;" vertex="1" parent="1">
          <mxGeometry x="1460" y="322.5" width="50" height="30" as="geometry" />
        </mxCell>
        <mxCell id="CTJLBTLDGU4M1NpmP4fn-58" value="" style="rounded=0;whiteSpace=wrap;html=1;glass=0;sketch=0;shadow=0;fillColor=none;dashed=1;" vertex="1" parent="1">
          <mxGeometry x="1310" y="302.5" width="230" height="170" as="geometry" />
        </mxCell>
        <mxCell id="CTJLBTLDGU4M1NpmP4fn-61" style="edgeStyle=orthogonalEdgeStyle;rounded=0;orthogonalLoop=1;jettySize=auto;html=1;exitX=1;exitY=0.5;exitDx=0;exitDy=0;entryX=0;entryY=0.5;entryDx=0;entryDy=0;endArrow=none;endFill=0;strokeWidth=1.5;" edge="1" parent="1" source="CTJLBTLDGU4M1NpmP4fn-62" target="CTJLBTLDGU4M1NpmP4fn-63">
          <mxGeometry relative="1" as="geometry" />
        </mxCell>
        <mxCell id="CTJLBTLDGU4M1NpmP4fn-75" style="edgeStyle=none;rounded=0;orthogonalLoop=1;jettySize=auto;html=1;exitX=0.5;exitY=0;exitDx=0;exitDy=0;entryX=0.5;entryY=1;entryDx=0;entryDy=0;endArrow=openThin;endFill=0;strokeWidth=1.5;" edge="1" parent="1" source="CTJLBTLDGU4M1NpmP4fn-62" target="CTJLBTLDGU4M1NpmP4fn-72">
          <mxGeometry relative="1" as="geometry" />
        </mxCell>
        <mxCell id="CTJLBTLDGU4M1NpmP4fn-62" value="&lt;font style=&quot;font-size: 14px&quot;&gt;Word Embedding&lt;/font&gt;" style="rounded=1;whiteSpace=wrap;html=1;fillColor=#dae8fc;strokeColor=#6c8ebf;" vertex="1" parent="1">
          <mxGeometry x="-30" y="440" width="120" height="30" as="geometry" />
        </mxCell>
        <mxCell id="CTJLBTLDGU4M1NpmP4fn-63" value="&lt;span style=&quot;font-size: 14px&quot;&gt;$$\boldsymbol \Theta_w$$&lt;/span&gt;" style="rounded=1;whiteSpace=wrap;html=1;strokeColor=#0066CC;" vertex="1" parent="1">
          <mxGeometry x="100" y="442.5" width="50" height="25" as="geometry" />
        </mxCell>
        <mxCell id="CTJLBTLDGU4M1NpmP4fn-64" value="" style="endArrow=openThin;html=1;strokeWidth=1.5;entryX=0.5;entryY=1;entryDx=0;entryDy=0;endFill=0;" edge="1" parent="1">
          <mxGeometry width="50" height="50" relative="1" as="geometry">
            <mxPoint x="29.999999999999773" y="500" as="sourcePoint" />
            <mxPoint x="29.999999999999773" y="470" as="targetPoint" />
          </mxGeometry>
        </mxCell>
        <mxCell id="CTJLBTLDGU4M1NpmP4fn-90" style="edgeStyle=none;rounded=0;orthogonalLoop=1;jettySize=auto;html=1;exitX=1;exitY=0.5;exitDx=0;exitDy=0;entryX=0;entryY=0.5;entryDx=0;entryDy=0;endArrow=openThin;endFill=0;strokeWidth=1.5;" edge="1" parent="1" source="CTJLBTLDGU4M1NpmP4fn-65" target="CTJLBTLDGU4M1NpmP4fn-72">
          <mxGeometry relative="1" as="geometry" />
        </mxCell>
        <mxCell id="CTJLBTLDGU4M1NpmP4fn-65" value="" style="ellipse;whiteSpace=wrap;html=1;aspect=fixed;rounded=0;shadow=0;glass=0;sketch=0;strokeColor=#000000;fillColor=none;gradientColor=none;" vertex="1" parent="1">
          <mxGeometry x="-37" y="387.5" width="30" height="30" as="geometry" />
        </mxCell>
        <mxCell id="CTJLBTLDGU4M1NpmP4fn-69" value="" style="curved=1;endArrow=none;html=1;strokeWidth=1;exitX=0;exitY=0.5;exitDx=0;exitDy=0;entryX=1;entryY=0.5;entryDx=0;entryDy=0;endFill=0;" edge="1" parent="1" source="CTJLBTLDGU4M1NpmP4fn-65" target="CTJLBTLDGU4M1NpmP4fn-65">
          <mxGeometry width="50" height="50" relative="1" as="geometry">
            <mxPoint x="-27" y="446.5" as="sourcePoint" />
            <mxPoint x="23" y="396.5" as="targetPoint" />
            <Array as="points">
              <mxPoint x="-27" y="387.5" />
              <mxPoint x="-22" y="402.5" />
              <mxPoint x="-17" y="417.5" />
            </Array>
          </mxGeometry>
        </mxCell>
        <mxCell id="CTJLBTLDGU4M1NpmP4fn-71" value="&lt;font style=&quot;font-size: 14px&quot;&gt;Positional&lt;br&gt;Encoding&lt;/font&gt;" style="text;html=1;align=center;verticalAlign=middle;resizable=0;points=[];autosize=1;strokeColor=none;" vertex="1" parent="1">
          <mxGeometry x="-117" y="382.5" width="80" height="40" as="geometry" />
        </mxCell>
        <mxCell id="CTJLBTLDGU4M1NpmP4fn-81" style="edgeStyle=none;rounded=0;orthogonalLoop=1;jettySize=auto;html=1;exitX=0.5;exitY=0;exitDx=0;exitDy=0;entryX=0.5;entryY=1;entryDx=0;entryDy=0;endArrow=openThin;endFill=0;strokeWidth=1.5;" edge="1" parent="1" source="CTJLBTLDGU4M1NpmP4fn-72" target="CTJLBTLDGU4M1NpmP4fn-77">
          <mxGeometry relative="1" as="geometry" />
        </mxCell>
        <mxCell id="CTJLBTLDGU4M1NpmP4fn-72" value="" style="shape=orEllipse;perimeter=ellipsePerimeter;whiteSpace=wrap;html=1;backgroundOutline=1;fillColor=#f5f5f5;strokeColor=#666666;fontColor=#333333;" vertex="1" parent="1">
          <mxGeometry x="15" y="387.5" width="30" height="30" as="geometry" />
        </mxCell>
        <mxCell id="CTJLBTLDGU4M1NpmP4fn-83" style="edgeStyle=none;rounded=0;orthogonalLoop=1;jettySize=auto;html=1;exitX=0.5;exitY=0;exitDx=0;exitDy=0;entryX=0.5;entryY=1;entryDx=0;entryDy=0;endArrow=openThin;endFill=0;strokeWidth=1.5;" edge="1" parent="1" source="CTJLBTLDGU4M1NpmP4fn-77" target="CTJLBTLDGU4M1NpmP4fn-82">
          <mxGeometry relative="1" as="geometry" />
        </mxCell>
        <mxCell id="CTJLBTLDGU4M1NpmP4fn-77" value="&lt;font style=&quot;font-size: 17px&quot;&gt;Transformer&lt;/font&gt;" style="rounded=1;whiteSpace=wrap;html=1;fillColor=#fad7ac;strokeColor=#b46504;" vertex="1" parent="1">
          <mxGeometry x="-34.5" y="290" width="129" height="56" as="geometry" />
        </mxCell>
        <mxCell id="CTJLBTLDGU4M1NpmP4fn-87" style="edgeStyle=none;rounded=0;orthogonalLoop=1;jettySize=auto;html=1;exitX=1;exitY=0;exitDx=0;exitDy=0;entryX=0;entryY=0;entryDx=0;entryDy=0;endArrow=openThin;endFill=0;strokeWidth=1.5;" edge="1" parent="1" source="CTJLBTLDGU4M1NpmP4fn-78" target="CTJLBTLDGU4M1NpmP4fn-86">
          <mxGeometry relative="1" as="geometry" />
        </mxCell>
        <mxCell id="CTJLBTLDGU4M1NpmP4fn-88" style="edgeStyle=none;rounded=0;orthogonalLoop=1;jettySize=auto;html=1;exitX=1;exitY=1;exitDx=0;exitDy=0;entryX=0;entryY=1;entryDx=0;entryDy=0;endArrow=openThin;endFill=0;strokeWidth=1.5;" edge="1" parent="1" source="CTJLBTLDGU4M1NpmP4fn-78" target="CTJLBTLDGU4M1NpmP4fn-86">
          <mxGeometry relative="1" as="geometry" />
        </mxCell>
        <mxCell id="CTJLBTLDGU4M1NpmP4fn-78" value="" style="rounded=0;whiteSpace=wrap;html=1;shadow=0;glass=0;sketch=0;strokeColor=#000000;fillColor=none;gradientColor=none;dashed=1;" vertex="1" parent="1">
          <mxGeometry x="-74.5" y="270" width="209" height="104" as="geometry" />
        </mxCell>
        <mxCell id="CTJLBTLDGU4M1NpmP4fn-85" style="edgeStyle=none;rounded=0;orthogonalLoop=1;jettySize=auto;html=1;exitX=0.5;exitY=0;exitDx=0;exitDy=0;endArrow=openThin;endFill=0;strokeWidth=1.5;" edge="1" parent="1" source="CTJLBTLDGU4M1NpmP4fn-82">
          <mxGeometry relative="1" as="geometry">
            <mxPoint x="30.166666666666742" y="190" as="targetPoint" />
          </mxGeometry>
        </mxCell>
        <mxCell id="CTJLBTLDGU4M1NpmP4fn-82" value="&lt;span style=&quot;font-size: 14px&quot;&gt;Output Layer&lt;/span&gt;" style="rounded=1;whiteSpace=wrap;html=1;fillColor=#fff2cc;strokeColor=#d6b656;" vertex="1" parent="1">
          <mxGeometry x="-26.75" y="214" width="113.5" height="30" as="geometry" />
        </mxCell>
        <mxCell id="CTJLBTLDGU4M1NpmP4fn-84" value="&lt;font style=&quot;font-size: 22px&quot;&gt;N×&lt;/font&gt;" style="text;html=1;align=center;verticalAlign=middle;resizable=0;points=[];autosize=1;strokeColor=none;" vertex="1" parent="1">
          <mxGeometry x="-131" y="316" width="40" height="20" as="geometry" />
        </mxCell>
        <mxCell id="CTJLBTLDGU4M1NpmP4fn-86" value="" style="rounded=0;whiteSpace=wrap;html=1;shadow=0;glass=0;dashed=1;sketch=0;strokeColor=#000000;fillColor=none;gradientColor=none;" vertex="1" parent="1">
          <mxGeometry x="190" y="170" width="430" height="360" as="geometry" />
        </mxCell>
        <mxCell id="CTJLBTLDGU4M1NpmP4fn-91" style="edgeStyle=none;rounded=0;orthogonalLoop=1;jettySize=auto;html=1;exitX=1;exitY=1;exitDx=0;exitDy=0;endArrow=openThin;endFill=0;strokeWidth=1.5;" edge="1" parent="1" source="CTJLBTLDGU4M1NpmP4fn-86" target="CTJLBTLDGU4M1NpmP4fn-86">
          <mxGeometry relative="1" as="geometry" />
        </mxCell>
        <mxCell id="CTJLBTLDGU4M1NpmP4fn-92" value="&lt;font style=&quot;font-size: 28px&quot;&gt;(a)&lt;/font&gt;" style="text;html=1;align=center;verticalAlign=middle;resizable=0;points=[];autosize=1;strokeColor=none;" vertex="1" parent="1">
          <mxGeometry x="210" y="570" width="50" height="30" as="geometry" />
        </mxCell>
        <mxCell id="CTJLBTLDGU4M1NpmP4fn-93" value="&lt;font style=&quot;font-size: 28px&quot;&gt;(b)&lt;/font&gt;" style="text;html=1;align=center;verticalAlign=middle;resizable=0;points=[];autosize=1;strokeColor=none;" vertex="1" parent="1">
          <mxGeometry x="840" y="570" width="50" height="30" as="geometry" />
        </mxCell>
        <mxCell id="CTJLBTLDGU4M1NpmP4fn-94" value="&lt;font style=&quot;font-size: 28px&quot;&gt;(c)&lt;/font&gt;" style="text;html=1;align=center;verticalAlign=middle;resizable=0;points=[];autosize=1;strokeColor=none;" vertex="1" parent="1">
          <mxGeometry x="1311" y="570" width="50" height="30" as="geometry" />
        </mxCell>
      </root>
    </mxGraphModel>
  </diagram>
</mxfile>
